<svg xmlns="http://www.w3.org/2000/svg" width="528.618" height="336.602"><defs><linearGradient id="a" x1=".5" y1="1" x2=".5" gradientUnits="objectBoundingBox"><stop offset="0" stop-color="gray" stop-opacity=".251"/><stop offset=".535" stop-color="gray" stop-opacity=".122"/><stop offset="1" stop-color="gray" stop-opacity=".102"/></linearGradient></defs><g data-name="Group 275" transform="translate(-1064.505 -17574.398)"><g data-name="Group 203"><circle data-name="Ellipse 2884" cx="74.465" cy="74.465" transform="translate(1096.789 17604.633)" fill="url(#a)" r="74.465" opacity=".5"/></g><circle data-name="Ellipse 2956" cx="72.895" cy="72.895" transform="translate(1098.504 17605.727)" fill="#233187" r="72.895"/><path data-name="Path 916" d="M1211.5 17685.808c0 24.248-17.423 36.181-40.043 36.181s-41.875-11.933-41.875-36.181 18.337-43.9 40.957-43.9 40.961 19.652 40.961 43.9z" fill="#333"/><path data-name="Path 923" d="M1171.458 17751.807a72.554 72.554 0 0040.069-11.991c-2.686-14.679-12.908-15.516-12.908-15.516h-56.362s-9.646.792-12.659 14.3a72.559 72.559 0 0041.86 13.207z" fill="#f60"/><path data-name="Path 919" d="M1159.338 17706.394h22.545v18.664a10.644 10.644 0 01-10.644 10.644h-1.257a10.644 10.644 0 01-10.644-10.644v-18.664z" opacity=".1"/><path data-name="Path 920" d="M1161.368 17705.558h18.484a2.031 2.031 0 012.031 2.031v16.634a10.644 10.644 0 01-10.644 10.644h-1.257a10.644 10.644 0 01-10.644-10.644v-16.634a2.031 2.031 0 012.031-2.031z" fill="#fda57d"/><path data-name="Path 921" d="M1159.379 17714.905a32.447 32.447 0 0022.545.062v-2.769h-22.545z" opacity=".1"/><circle data-name="Ellipse 2957" cx="32.314" cy="32.314" transform="translate(1138.38 17651.785)" fill="#fda57d" r="32.314"/><path data-name="Path 917" d="M1133.448 17686.214s20.123-2.439 35.368-21.952c0 0 20.123 22.156 34.148 19.716 0 0 8.131-8.537 0-17.074s-14.432-19.31-25.2-17.887-23.985 2.033-29.676 7.114-14.64 30.083-14.64 30.083z" opacity=".1"/><path data-name="Path 918" d="M1133.448 17685.807s20.123-2.439 35.368-21.952c0 0 20.123 22.156 34.148 19.716 0 0 8.131-8.537 0-17.074s-14.432-19.31-25.2-17.887-23.985 2.033-29.676 7.114-14.64 30.083-14.64 30.083z" fill="#333"/><ellipse data-name="Ellipse 2958" cx="3.006" cy="5.636" rx="3.006" ry="5.636" transform="translate(1135.36 17678.434)" fill="#fda57d"/><ellipse data-name="Ellipse 2959" cx="3.006" cy="5.636" rx="3.006" ry="5.636" transform="translate(1199.998 17678.434)" fill="#fda57d"/><g data-name="Group 204"><circle data-name="Ellipse 2889" cx="74.465" cy="74.465" transform="translate(1412.15 17609.945)" fill="url(#a)" r="74.465" opacity=".5"/></g><circle data-name="Ellipse 2960" cx="72.895" cy="72.895" transform="translate(1413.865 17611.039)" fill="#233187" r="72.895"/><path data-name="Path 927" d="M1486.819 17757.118a72.554 72.554 0 0040.07-11.991c-2.686-14.679-12.908-15.516-12.908-15.516h-56.363s-9.646.792-12.659 14.3a72.56 72.56 0 0041.86 13.207z" fill="#f60"/><circle data-name="Ellipse 2964" cx="35.185" cy="35.185" transform="translate(1450.869 17647.215)" fill="#72351c" r="35.185"/><path data-name="Path 934" d="M1474.699 17711.706h22.545v18.665a10.644 10.644 0 01-10.644 10.644h-1.257a10.644 10.644 0 01-10.644-10.644z" opacity=".1"/><path data-name="Path 935" d="M1476.729 17710.871h18.484a2.031 2.031 0 012.031 2.031v16.634a10.644 10.644 0 01-10.644 10.644h-1.258a10.644 10.644 0 01-10.644-10.644v-16.634a2.031 2.031 0 012.031-2.031z" fill="#fda57d"/><path data-name="Path 936" d="M1474.74 17720.217a32.446 32.446 0 0022.545.062v-2.769h-22.545z" opacity=".1"/><circle data-name="Ellipse 2965" cx="32.314" cy="32.314" transform="translate(1453.74 17657.098)" fill="#fda57d" r="32.314"/><path data-name="Path 930" d="M1463.037 17660.02s13.619 27.644 52.035 11.586l-8.94-14.025-15.854-5.691z" opacity=".1"/><path data-name="Path 931" d="M1463.037 17659.613s13.619 27.644 52.035 11.586l-8.94-14.024-15.854-5.691z" fill="#72351c"/><path data-name="Path 932" d="M1462.916 17657.739a18.666 18.666 0 014.627-7.526c6.357-6.283 16.776-7.61 22.121-14.774a4.184 4.184 0 01-1.916 5.9c5.114-.033 11.056-.481 13.95-4.7a9.578 9.578 0 01-1.615 10.114c4.539.206 9.382 3.286 9.675 7.82.2 3.021-1.7 5.88-4.181 7.613a23.24 23.24 0 01-8.441 3.179c-8.629 1.911-39.85 9.884-34.22-7.626z" fill="#72351c"/><path data-name="Path 928" d="M1518.364 17689.696h-.857l-16.663 14.838c-16.058-7.521-27.847 0-27.847 0l-17.481-14.228-1.763.221a32.312 32.312 0 1064.618-.831zm-32.362 20.529c-6.286 0-11.383-1.274-11.383-2.846s5.1-2.846 11.383-2.846 11.383 1.274 11.383 2.846-5.1 2.846-11.383 2.846z" fill="#72351c"/><ellipse data-name="Ellipse 2966" cx="3.006" cy="5.636" rx="3.006" ry="5.636" transform="translate(1450.722 17683.746)" fill="#fda57d"/><ellipse data-name="Ellipse 2969" cx="3.006" cy="5.636" rx="3.006" ry="5.636" transform="translate(1515.359 17683.746)" fill="#fda57d"/><g data-name="Group 205"><circle data-name="Ellipse 2895" cx="74.465" cy="74.465" transform="translate(1254.479 17732.115)" fill="url(#a)" r="74.465" opacity=".5"/></g><circle data-name="Ellipse 2961" cx="72.895" cy="72.895" transform="translate(1256.049 17733.279)" fill="#233187" r="72.895"/><path data-name="Path 929" d="M1300.494 17806.823s-8.266 40.716-12.775 38.461c0 0 43.5 37.575 81.913 0 0 0-6.763-28.692-16.533-38.461z" fill="#333"/><path data-name="Path 939" d="M1329.147 17879.289a72.555 72.555 0 0040.069-11.991c-2.686-14.679-12.908-15.516-12.908-15.516h-56.362s-9.646.792-12.659 14.3a72.559 72.559 0 0041.86 13.211z" fill="#f60"/><circle data-name="Ellipse 2962" cx="32.314" cy="32.314" transform="translate(1296.068 17772.254)" fill="#333" r="32.314"/><path data-name="Path 937" d="M1317.027 17833.874h22.541v18.665a10.644 10.644 0 01-10.644 10.644h-1.256a10.644 10.644 0 01-10.644-10.644v-18.665z" opacity=".1"/><path data-name="Path 933" d="M1319.057 17833.039h18.484a2.031 2.031 0 012.031 2.031v16.634a10.644 10.644 0 01-10.644 10.644h-1.26a10.644 10.644 0 01-10.644-10.644v-16.635a2.031 2.031 0 012.031-2.031z" fill="#be7c5e"/><path data-name="Path 938" d="M1317.069 17842.388a32.447 32.447 0 0022.545.062v-2.77h-22.545z" opacity=".1"/><circle data-name="Ellipse 2963" cx="32.314" cy="32.314" transform="translate(1296.068 17779.268)" fill="#be7c5e" r="32.314"/><path data-name="Path 925" d="M1297.49 17799.307h61.623s-5.26-24.883-28.557-23.3-33.066 23.3-33.066 23.3z" fill="#333"/><ellipse data-name="Ellipse 2967" cx="3.006" cy="5.636" rx="3.006" ry="5.636" transform="translate(1293.73 17804.568)" fill="#be7c5e"/><ellipse data-name="Ellipse 2968" cx="3.006" cy="5.636" rx="3.006" ry="5.636" transform="translate(1356.857 17804.568)" fill="#be7c5e"/><path data-name="Path 926" d="M1297.49 17800.142h61.623s-5.26-24.883-28.557-23.3-33.066 23.3-33.066 23.3z" opacity=".1"/><path data-name="Path 924" d="M1328.947 17738.709a67.872 67.872 0 11-67.872 67.872 67.872 67.872 0 0167.872-67.872m0-16.761a84.633 84.633 0 1084.633 84.633 84.633 84.633 0 00-84.633-84.633z" fill="#fff"/><path data-name="Rectangle 919" fill="#fff" d="M1316.414 17702.162h19.839v20.884h-19.839z"/><path data-name="Rectangle 920" fill="#fff" d="M1360.881 17728.521l10.755-17.898 17.002 10.217-10.755 17.898z"/><path data-name="Rectangle 925" fill="#fff" d="M1395.629 17754.949l18.273-10.129 9.622 17.36-18.273 10.128z"/><path data-name="Rectangle 936" fill="#fff" d="M1395.919 17856.695l10.515-16.823 17.71 11.068-10.515 16.824z"/><path data-name="Rectangle 926" fill="#fff" d="M1234.376 17762.176l9.622-17.36 18.273 10.13-9.622 17.359z"/><path data-name="Rectangle 937" fill="#fff" d="M1233.748 17850.941l17.71-11.069 10.514 16.824-17.71 11.068z"/><path data-name="Rectangle 921" fill="#fff" d="M1269.249 17720.84l17.002-10.217 10.755 17.898-17.002 10.217z"/><path data-name="Rectangle 938" fill="#fff" d="M1360.882 17884.637l17.002-10.217 10.755 17.898-17.002 10.217z"/><path data-name="Rectangle 939" fill="#fff" d="M1269.249 17892.318l10.755-17.898 17.002 10.217-10.755 17.898z"/><path data-name="Rectangle 932" fill="#fff" d="M1222.438 17798.227h24.016v17.751h-24.016z"/><path data-name="Rectangle 933" fill="#fff" d="M1435.451 17815.977h-24.016v-17.751h24.016z"/><path data-name="Path 922" d="M1486.615 17616.539a67.872 67.872 0 11-67.872 67.872 67.872 67.872 0 0167.872-67.872m0-16.761a84.633 84.633 0 1084.633 84.633 84.633 84.633 0 00-84.633-84.633z" fill="#fff"/><path data-name="Rectangle 943" fill="#fff" d="M1553.301 17632.779l18.273-10.129 9.622 17.36-18.273 10.128z"/><path data-name="Rectangle 944" fill="#fff" d="M1553.591 17734.527l10.515-16.823 17.71 11.068-10.515 16.824z"/><path data-name="Rectangle 916" fill="#fff" d="M1392.047 17640.006l9.622-17.36 18.273 10.13-9.622 17.359z"/><path data-name="Rectangle 923" fill="#fff" d="M1391.42 17728.77l17.71-11.069 10.514 16.824-17.71 11.068z"/><path data-name="Rectangle 935" fill="#fff" d="M1474.085 17767.945h19.839v20.884h-19.839z"/><path data-name="Rectangle 942" fill="#fff" d="M1518.554 17762.467l17.002-10.217 10.755 17.898-17.002 10.217z"/><path data-name="Rectangle 930" fill="#fff" d="M1426.921 17770.148l10.755-17.898 17.002 10.217-10.755 17.898z"/><path data-name="Rectangle 917" fill="#fff" d="M1380.108 17676.059h24.016v17.751h-24.016z"/><path data-name="Rectangle 945" fill="#fff" d="M1593.123 17693.809h-24.016v-17.751h24.016z"/><path data-name="Path 915" d="M1171.23 17611.317q1.2 0 2.4.042a67.867 67.867 0 11-2.315 135.714c-.8-.011-1.6-.024-2.4-.052a67.867 67.867 0 112.312-135.715m0-16.751a84.627 84.627 0 10-2.9 169.23c.99.021 1.992.039 2.979.039a84.627 84.627 0 102.894-169.23c-.99-.021-1.99-.039-2.974-.039z" fill="#fff"/><path data-name="Rectangle 913" fill="#fff" d="M1239.706 17629.906l18.606-9.485 9.01 17.675-18.606 9.485z"/><path data-name="Rectangle 924" fill="#fff" d="M1236.465 17731.602l11.09-16.45 17.316 11.675-11.09 16.45z"/><path data-name="Rectangle 914" fill="#fff" d="M1078.3 17631.531l10.214-17.007 17.904 10.752-10.215 17.007z"/><path data-name="Rectangle 922" fill="#fff" d="M1074.592 17720.217l18.086-10.442 9.919 17.18-18.085 10.443z"/><path data-name="Rectangle 931" fill="#fff" d="M1155.125 17783.109l.724-20.871 19.828.688-.725 20.871z"/><path data-name="Rectangle 928" fill="#fff" d="M1200.48 17758.309l17.35-9.622 10.128 18.264-17.35 9.621z"/><path data-name="Rectangle 927" fill="#fff" d="M1108.638 17762.809l11.37-17.517 16.641 10.801-11.37 17.518z"/><path data-name="Rectangle 918" fill="#fff" d="M1277.387 17692.279l-24.002-.833.616-17.74 24.002.833z"/><path data-name="Rectangle 940" fill="#fff" d="M1316.414 17890.117h19.839v20.884h-19.839z"/><path data-name="Rectangle 934" fill="#fff" d="M1474.085 17579.992h19.839v20.884h-19.839z"/><path data-name="Rectangle 941" fill="#fff" d="M1518.552 17606.352l10.755-17.898 17.002 10.217-10.755 17.898z"/><path data-name="Rectangle 929" fill="#fff" d="M1426.921 17598.67l17.002-10.217 10.755 17.898-17.002 10.217z"/><path data-name="Rectangle 908" fill="#fff" d="M1161.646 17595.27l.724-20.871 19.828.688-.725 20.871z"/><path data-name="Rectangle 909" fill="#fff" d="M1205.897 17602.289l11.37-17.517 16.641 10.801-11.37 17.518z"/><path data-name="Rectangle 910" fill="#fff" d="M1114.587 17591.43l17.35-9.622 10.128 18.264-17.35 9.621z"/><path data-name="Rectangle 915" fill="#fff" d="M1065.121 17667.145l24.002.833-.616 17.74-24.002-.833z"/></g></svg>