<svg xmlns="http://www.w3.org/2000/svg" xmlns:xlink="http://www.w3.org/1999/xlink" width="528.618" height="336.602" viewBox="0 0 528.618 336.602">
  <defs>
    <linearGradient id="linear-gradient" x1="0.5" y1="1" x2="0.5" gradientUnits="objectBoundingBox">
      <stop offset="0" stop-color="gray" stop-opacity="0.251"/>
      <stop offset="0.535" stop-color="gray" stop-opacity="0.122"/>
      <stop offset="1" stop-color="gray" stop-opacity="0.102"/>
    </linearGradient>
  </defs>
  <g id="Group_275" data-name="Group 275" transform="translate(-1064.505 -17574.398)">
    <g id="Group_203" data-name="Group 203" transform="translate(1096.789 17604.633)" opacity="0.5">
      <ellipse id="Ellipse_2884" data-name="Ellipse 2884" cx="74.465" cy="74.465" rx="74.465" ry="74.465" transform="translate(0 0)" fill="url(#linear-gradient)"/>
    </g>
    <ellipse id="Ellipse_2956" data-name="Ellipse 2956" cx="72.895" cy="72.895" rx="72.895" ry="72.895" transform="translate(1098.504 17605.727)" fill="#233187"/>
    <path id="Path_916" data-name="Path 916" d="M577.718,169.359c0,24.248-17.423,36.181-40.043,36.181S495.8,193.607,495.8,169.359s18.337-43.9,40.957-43.9S577.718,145.111,577.718,169.359Z" transform="translate(633.782 17516.449)" fill="#333"/>
    <path id="Path_923" data-name="Path 923" d="M537.676,236.532a72.554,72.554,0,0,0,40.069-11.991c-2.686-14.679-12.908-15.516-12.908-15.516H508.475s-9.646.792-12.659,14.3A72.559,72.559,0,0,0,537.676,236.532Z" transform="translate(633.782 17515.275)" fill="#f60"/>
    <path id="Path_919" data-name="Path 919" d="M291.923,133.874h22.545v18.664a10.644,10.644,0,0,1-10.644,10.644h-1.257a10.644,10.644,0,0,1-10.644-10.644V133.874Z" transform="translate(867.415 17572.52)" opacity="0.1"/>
    <path id="Path_920" data-name="Path 920" d="M293.953,133.027h18.484a2.031,2.031,0,0,1,2.031,2.031v16.634a10.644,10.644,0,0,1-10.644,10.644h-1.257a10.644,10.644,0,0,1-10.644-10.644V135.058a2.031,2.031,0,0,1,2.031-2.031Z" transform="translate(867.415 17572.531)" fill="#fda57d"/>
    <path id="Path_921" data-name="Path 921" d="M526.022,199.458a32.447,32.447,0,0,0,22.545.062v-2.769H526.022Z" transform="translate(633.357 17515.447)" opacity="0.1"/>
    <ellipse id="Ellipse_2957" data-name="Ellipse 2957" cx="32.314" cy="32.314" rx="32.314" ry="32.314" transform="translate(1138.38 17651.785)" fill="#fda57d"/>
    <path id="Path_917" data-name="Path 917" d="M499.721,169.864s20.123-2.439,35.368-21.952c0,0,20.123,22.156,34.148,19.716,0,0,8.131-8.537,0-17.074s-14.432-19.31-25.2-17.887-23.985,2.033-29.676,7.114S499.721,169.864,499.721,169.864Z" transform="translate(633.727 17516.35)" opacity="0.1"/>
    <path id="Path_918" data-name="Path 918" d="M499.721,169.452s20.123-2.439,35.368-21.952c0,0,20.123,22.156,34.148,19.716,0,0,8.131-8.537,0-17.074s-14.432-19.31-25.2-17.887-23.985,2.033-29.676,7.114S499.721,169.452,499.721,169.452Z" transform="translate(633.727 17516.355)" fill="#333"/>
    <ellipse id="Ellipse_2958" data-name="Ellipse 2958" cx="3.006" cy="5.636" rx="3.006" ry="5.636" transform="translate(1135.36 17678.434)" fill="#fda57d"/>
    <ellipse id="Ellipse_2959" data-name="Ellipse 2959" cx="3.006" cy="5.636" rx="3.006" ry="5.636" transform="translate(1199.998 17678.434)" fill="#fda57d"/>
    <g id="Group_204" data-name="Group 204" transform="translate(1412.15 17609.945)" opacity="0.5">
      <ellipse id="Ellipse_2889" data-name="Ellipse 2889" cx="74.465" cy="74.465" rx="74.465" ry="74.465" transform="translate(0 0)" fill="url(#linear-gradient)"/>
    </g>
    <ellipse id="Ellipse_2960" data-name="Ellipse 2960" cx="72.895" cy="72.895" rx="72.895" ry="72.895" transform="translate(1413.865 17611.039)" fill="#233187"/>
    <path id="Path_927" data-name="Path 927" d="M857.53,241.919A72.554,72.554,0,0,0,897.6,229.928c-2.686-14.679-12.908-15.516-12.908-15.516H828.329s-9.646.792-12.659,14.3A72.56,72.56,0,0,0,857.53,241.919Z" transform="translate(629.289 17515.199)" fill="#f60"/>
    <ellipse id="Ellipse_2964" data-name="Ellipse 2964" cx="35.185" cy="35.185" rx="35.185" ry="35.185" transform="translate(1450.869 17647.215)" fill="#72351c"/>
    <path id="Path_934" data-name="Path 934" d="M611.777,139.261h22.545v18.665a10.644,10.644,0,0,1-10.644,10.644h-1.257a10.644,10.644,0,0,1-10.644-10.644Z" transform="translate(862.922 17572.445)" opacity="0.1"/>
    <path id="Path_935" data-name="Path 935" d="M613.807,138.414h18.484a2.031,2.031,0,0,1,2.031,2.031v16.634a10.644,10.644,0,0,1-10.644,10.644H622.42a10.644,10.644,0,0,1-10.644-10.644V140.445a2.031,2.031,0,0,1,2.031-2.031Z" transform="translate(862.922 17572.457)" fill="#fda57d"/>
    <path id="Path_936" data-name="Path 936" d="M845.875,204.846a32.446,32.446,0,0,0,22.545.062v-2.769H845.875Z" transform="translate(628.865 17515.371)" opacity="0.1"/>
    <ellipse id="Ellipse_2965" data-name="Ellipse 2965" cx="32.314" cy="32.314" rx="32.314" ry="32.314" transform="translate(1453.74 17657.098)" fill="#fda57d"/>
    <path id="Path_930" data-name="Path 930" d="M834.005,143.713s13.619,27.644,52.035,11.586L877.1,141.274l-15.854-5.691Z" transform="translate(629.032 17516.307)" opacity="0.1"/>
    <path id="Path_931" data-name="Path 931" d="M834.005,143.3s13.619,27.644,52.035,11.586L877.1,140.862l-15.854-5.691Z" transform="translate(629.032 17516.313)" fill="#72351c"/>
    <path id="Path_932" data-name="Path 932" d="M833.873,141.2a18.666,18.666,0,0,1,4.627-7.526c6.357-6.283,16.776-7.61,22.121-14.774a4.184,4.184,0,0,1-1.916,5.9c5.114-.033,11.056-.481,13.95-4.7a9.578,9.578,0,0,1-1.615,10.114c4.539.206,9.382,3.286,9.675,7.82.2,3.021-1.7,5.88-4.181,7.613a23.24,23.24,0,0,1-8.441,3.179C859.464,150.737,828.243,158.71,833.873,141.2Z" transform="translate(629.043 17516.539)" fill="#72351c"/>
    <path id="Path_928" data-name="Path 928" d="M889.2,173.928h-.857L871.68,188.766c-16.058-7.521-27.847,0-27.847,0l-17.481-14.228-1.763.221a32.312,32.312,0,1,0,64.618-.831Zm-32.362,20.529c-6.286,0-11.383-1.274-11.383-2.846s5.1-2.846,11.383-2.846,11.383,1.274,11.383,2.846-5.1,2.846-11.383,2.846Z" transform="translate(629.164 17515.768)" fill="#72351c"/>
    <ellipse id="Ellipse_2966" data-name="Ellipse 2966" cx="3.006" cy="5.636" rx="3.006" ry="5.636" transform="translate(1450.722 17683.746)" fill="#fda57d"/>
    <ellipse id="Ellipse_2969" data-name="Ellipse 2969" cx="3.006" cy="5.636" rx="3.006" ry="5.636" transform="translate(1515.359 17683.746)" fill="#fda57d"/>
    <g id="Group_205" data-name="Group 205" transform="translate(1254.479 17732.115)" opacity="0.5">
      <ellipse id="Ellipse_2895" data-name="Ellipse 2895" cx="74.465" cy="74.465" rx="74.465" ry="74.465" transform="translate(0 0)" fill="url(#linear-gradient)"/>
    </g>
    <ellipse id="Ellipse_2961" data-name="Ellipse 2961" cx="72.895" cy="72.895" rx="72.895" ry="72.895" transform="translate(1256.049 17733.279)" fill="#233187"/>
    <path id="Path_929" data-name="Path 929" d="M668.965,292.723s-8.266,40.716-12.775,38.461c0,0,43.5,37.575,81.913,0,0,0-6.763-28.692-16.533-38.461Z" transform="translate(631.529 17514.1)" fill="#333"/>
    <path id="Path_939" data-name="Path 939" d="M697.612,365.828a72.555,72.555,0,0,0,40.069-11.991c-2.686-14.679-12.908-15.516-12.908-15.516H668.411s-9.646.792-12.659,14.3a72.559,72.559,0,0,0,41.86,13.211Z" transform="translate(631.535 17513.461)" fill="#f60"/>
    <ellipse id="Ellipse_2962" data-name="Ellipse 2962" cx="32.314" cy="32.314" rx="32.314" ry="32.314" transform="translate(1296.068 17772.254)" fill="#333"/>
    <path id="Path_937" data-name="Path 937" d="M451.859,263.171H474.4v18.665a10.644,10.644,0,0,1-10.644,10.644H462.5a10.644,10.644,0,0,1-10.644-10.644V263.171Z" transform="translate(865.168 17570.703)" opacity="0.1"/>
    <path id="Path_933" data-name="Path 933" d="M453.889,262.324h18.484a2.031,2.031,0,0,1,2.031,2.031v16.634a10.644,10.644,0,0,1-10.644,10.644H462.5a10.644,10.644,0,0,1-10.644-10.644V264.354a2.031,2.031,0,0,1,2.031-2.031Z" transform="translate(865.168 17570.715)" fill="#be7c5e"/>
    <path id="Path_938" data-name="Path 938" d="M685.958,328.755a32.447,32.447,0,0,0,22.545.062v-2.77H685.958Z" transform="translate(631.111 17513.633)" opacity="0.1"/>
    <ellipse id="Ellipse_2963" data-name="Ellipse 2963" cx="32.314" cy="32.314" rx="32.314" ry="32.314" transform="translate(1296.068 17779.268)" fill="#be7c5e"/>
    <path id="Path_925" data-name="Path 925" d="M666.1,284.768h61.623s-5.26-24.883-28.557-23.3S666.1,284.768,666.1,284.768Z" transform="translate(631.39 17514.539)" fill="#333"/>
    <ellipse id="Ellipse_2967" data-name="Ellipse 2967" cx="3.006" cy="5.636" rx="3.006" ry="5.636" transform="translate(1293.73 17804.568)" fill="#be7c5e"/>
    <ellipse id="Ellipse_2968" data-name="Ellipse 2968" cx="3.006" cy="5.636" rx="3.006" ry="5.636" transform="translate(1356.857 17804.568)" fill="#be7c5e"/>
    <path id="Path_926" data-name="Path 926" d="M666.1,285.615h61.623s-5.26-24.883-28.557-23.3S666.1,285.615,666.1,285.615Z" transform="translate(631.39 17514.527)" opacity="0.1"/>
    <path id="Path_924" data-name="Path 924" d="M696.8,223.4a67.872,67.872,0,1,1-67.872,67.872A67.872,67.872,0,0,1,696.8,223.4m0-16.761a84.633,84.633,0,1,0,84.633,84.633A84.633,84.633,0,0,0,696.8,206.639Z" transform="translate(632.147 17515.309)" fill="#fff"/>
    <rect id="Rectangle_919" data-name="Rectangle 919" width="19.839" height="20.884" transform="translate(1316.414 17702.162)" fill="#fff"/>
    <rect id="Rectangle_920" data-name="Rectangle 920" width="20.884" height="19.839" transform="matrix(0.515, -0.857, 0.857, 0.515, 1360.881, 17728.521)" fill="#fff"/>
    <rect id="Rectangle_925" data-name="Rectangle 925" width="20.884" height="19.839" transform="matrix(0.875, -0.485, 0.485, 0.875, 1395.629, 17754.949)" fill="#fff"/>
    <rect id="Rectangle_936" data-name="Rectangle 936" width="19.839" height="20.884" transform="matrix(0.53, -0.848, 0.848, 0.53, 1395.919, 17856.695)" fill="#fff"/>
    <rect id="Rectangle_926" data-name="Rectangle 926" width="19.839" height="20.884" transform="matrix(0.485, -0.875, 0.875, 0.485, 1234.376, 17762.176)" fill="#fff"/>
    <rect id="Rectangle_937" data-name="Rectangle 937" width="20.884" height="19.839" transform="matrix(0.848, -0.53, 0.53, 0.848, 1233.748, 17850.941)" fill="#fff"/>
    <rect id="Rectangle_921" data-name="Rectangle 921" width="19.839" height="20.884" transform="matrix(0.857, -0.515, 0.515, 0.857, 1269.249, 17720.84)" fill="#fff"/>
    <rect id="Rectangle_938" data-name="Rectangle 938" width="19.839" height="20.884" transform="matrix(0.857, -0.515, 0.515, 0.857, 1360.882, 17884.637)" fill="#fff"/>
    <rect id="Rectangle_939" data-name="Rectangle 939" width="20.884" height="19.839" transform="matrix(0.515, -0.857, 0.857, 0.515, 1269.249, 17892.318)" fill="#fff"/>
    <rect id="Rectangle_932" data-name="Rectangle 932" width="24.016" height="17.751" transform="translate(1222.438 17798.227)" fill="#fff"/>
    <rect id="Rectangle_933" data-name="Rectangle 933" width="24.016" height="17.751" transform="translate(1435.451 17815.977) rotate(180)" fill="#fff"/>
    <path id="Path_922" data-name="Path 922" d="M856.714,99.49a67.872,67.872,0,1,1-67.872,67.872A67.872,67.872,0,0,1,856.714,99.49m0-16.761a84.633,84.633,0,1,0,84.633,84.633,84.633,84.633,0,0,0-84.633-84.633Z" transform="translate(629.901 17517.049)" fill="#fff"/>
    <rect id="Rectangle_943" data-name="Rectangle 943" width="20.884" height="19.839" transform="matrix(0.875, -0.485, 0.485, 0.875, 1553.301, 17632.779)" fill="#fff"/>
    <rect id="Rectangle_944" data-name="Rectangle 944" width="19.839" height="20.884" transform="matrix(0.53, -0.848, 0.848, 0.53, 1553.591, 17734.527)" fill="#fff"/>
    <rect id="Rectangle_916" data-name="Rectangle 916" width="19.839" height="20.884" transform="matrix(0.485, -0.875, 0.875, 0.485, 1392.047, 17640.006)" fill="#fff"/>
    <rect id="Rectangle_923" data-name="Rectangle 923" width="20.884" height="19.839" transform="matrix(0.848, -0.53, 0.53, 0.848, 1391.42, 17728.77)" fill="#fff"/>
    <rect id="Rectangle_935" data-name="Rectangle 935" width="19.839" height="20.884" transform="translate(1474.085 17767.945)" fill="#fff"/>
    <rect id="Rectangle_942" data-name="Rectangle 942" width="19.839" height="20.884" transform="matrix(0.857, -0.515, 0.515, 0.857, 1518.554, 17762.467)" fill="#fff"/>
    <rect id="Rectangle_930" data-name="Rectangle 930" width="20.884" height="19.839" transform="matrix(0.515, -0.857, 0.857, 0.515, 1426.921, 17770.148)" fill="#fff"/>
    <rect id="Rectangle_917" data-name="Rectangle 917" width="24.016" height="17.751" transform="translate(1380.108 17676.059)" fill="#fff"/>
    <rect id="Rectangle_945" data-name="Rectangle 945" width="24.016" height="17.751" transform="translate(1593.123 17693.809) rotate(180)" fill="#fff"/>
    <path id="Path_915" data-name="Path 915" d="M536.815,94.194q1.2,0,2.4.042A67.867,67.867,0,1,1,536.9,229.95c-.8-.011-1.6-.024-2.4-.052a67.867,67.867,0,1,1,2.312-135.715m0-16.751v0a84.627,84.627,0,1,0-2.9,169.23c.99.021,1.992.039,2.979.039a84.627,84.627,0,1,0,2.894-169.23c-.99-.021-1.99-.039-2.974-.039Z" transform="translate(634.415 17517.123)" fill="#fff"/>
    <rect id="Rectangle_913" data-name="Rectangle 913" width="20.884" height="19.839" transform="translate(1239.706 17629.906) rotate(-27.012)" fill="#fff"/>
    <rect id="Rectangle_924" data-name="Rectangle 924" width="19.839" height="20.884" transform="translate(1236.465 17731.602) rotate(-56.012)" fill="#fff"/>
    <rect id="Rectangle_914" data-name="Rectangle 914" width="19.839" height="20.884" transform="translate(1078.3 17631.531) rotate(-59.012)" fill="#fff"/>
    <rect id="Rectangle_922" data-name="Rectangle 922" width="20.884" height="19.839" transform="matrix(0.866, -0.5, 0.5, 0.866, 1074.592, 17720.217)" fill="#fff"/>
    <rect id="Rectangle_931" data-name="Rectangle 931" width="20.884" height="19.839" transform="translate(1155.125 17783.109) rotate(-88.012)" fill="#fff"/>
    <rect id="Rectangle_928" data-name="Rectangle 928" width="19.839" height="20.884" transform="translate(1200.48 17758.309) rotate(-29.012)" fill="#fff"/>
    <rect id="Rectangle_927" data-name="Rectangle 927" width="20.884" height="19.839" transform="translate(1108.638 17762.809) rotate(-57.012)" fill="#fff"/>
    <rect id="Rectangle_918" data-name="Rectangle 918" width="24.016" height="17.751" transform="translate(1277.387 17692.279) rotate(-178.012)" fill="#fff"/>
    <rect id="Rectangle_940" data-name="Rectangle 940" width="19.839" height="20.884" transform="translate(1316.414 17890.117)" fill="#fff"/>
    <rect id="Rectangle_934" data-name="Rectangle 934" width="19.839" height="20.884" transform="translate(1474.085 17579.992)" fill="#fff"/>
    <rect id="Rectangle_941" data-name="Rectangle 941" width="20.884" height="19.839" transform="matrix(0.515, -0.857, 0.857, 0.515, 1518.552, 17606.352)" fill="#fff"/>
    <rect id="Rectangle_929" data-name="Rectangle 929" width="19.839" height="20.884" transform="matrix(0.857, -0.515, 0.515, 0.857, 1426.921, 17598.67)" fill="#fff"/>
    <rect id="Rectangle_908" data-name="Rectangle 908" width="20.884" height="19.839" transform="translate(1161.646 17595.27) rotate(-88.012)" fill="#fff"/>
    <rect id="Rectangle_909" data-name="Rectangle 909" width="20.884" height="19.839" transform="translate(1205.897 17602.289) rotate(-57.012)" fill="#fff"/>
    <rect id="Rectangle_910" data-name="Rectangle 910" width="19.839" height="20.884" transform="translate(1114.587 17591.43) rotate(-29.012)" fill="#fff"/>
    <rect id="Rectangle_915" data-name="Rectangle 915" width="24.016" height="17.751" transform="translate(1065.121 17667.145) rotate(1.988)" fill="#fff"/>
  </g>
</svg>
