<svg xmlns="http://www.w3.org/2000/svg" width="139.397" height="83.668"><g data-name="Group 276" fill="#fff"><path data-name="Icon awesome-handshake" d="M94.681 0h-18.71a6.967 6.967 0 00-4.7 1.83l-21.41 19.6c-.022.022-.044.065-.065.087a8.664 8.664 0 00-.457 12.2 9.084 9.084 0 0012.219.588c.022-.022.065-.022.087-.044l17.4-15.943a3.484 3.484 0 114.7 5.14l-5.685 5.206 31.713 25.745a15.693 15.693 0 011.721 1.677V13.94L99.6 2.047A6.92 6.92 0 0094.681 0zm23.806 13.983V62.75a6.962 6.962 0 006.97 6.97H139.4V13.983zm10.455 48.767a3.485 3.485 0 113.485-3.485 3.5 3.5 0 01-3.485 3.485zM0 69.7h13.94a6.962 6.962 0 006.97-6.97V13.983H0zm10.455-13.92a3.485 3.485 0 11-3.485 3.485 3.5 3.5 0 013.485-3.485zm94.945 4.052l-32.519-26.4-6.534 5.99a15.678 15.678 0 01-21.196-23.108L62.968 0H44.716a6.957 6.957 0 00-4.922 2.047L27.879 13.94v48.767h3.986l19.712 17.838a13.937 13.937 0 0019.6-2.026l.044-.044 3.9 3.376a8.094 8.094 0 0011.391-1.176l6.839-8.407 1.176.958a6.959 6.959 0 009.8-1.024l2.069-2.548a6.982 6.982 0 00-1-9.823z"/><path data-name="Icon awesome-handshake" d="M118.487 13.983V62.75a6.962 6.962 0 006.97 6.97H139.4V13.983zm10.455 48.767a3.485 3.485 0 113.485-3.485 3.5 3.5 0 01-3.485 3.485zM0 69.7h13.94a6.962 6.962 0 006.97-6.97V13.983H0zm10.455-13.92a3.485 3.485 0 11-3.485 3.485 3.5 3.5 0 013.485-3.485z"/></g></svg>