<svg xmlns="http://www.w3.org/2000/svg" width="88.728" height="84.309" viewBox="0 0 88.728 84.309">
  <g id="Icon_ionic-ios-briefcase" data-name="Icon ionic-ios-briefcase" transform="translate(-3.375 -2.5)">
    <path id="Path_708" data-name="Path 708" d="M10.2,63.527H85.278A6.818,6.818,0,0,0,92.1,56.7V15.75H3.375V56.7A6.818,6.818,0,0,0,10.2,63.527Z" transform="translate(0 23.28)" fill="#fff"/>
    <path id="Path_709" data-name="Path 709" d="M85.278,18.151H83.572V16.444a1.711,1.711,0,0,0-1.706-1.706H75.04a1.711,1.711,0,0,0-1.706,1.706v1.706H67.362V11.325A6.845,6.845,0,0,0,60.537,4.5H34.942a6.845,6.845,0,0,0-6.825,6.825v6.825H22.144V16.444a1.711,1.711,0,0,0-1.706-1.706H13.613a1.711,1.711,0,0,0-1.706,1.706v1.706H10.2a6.818,6.818,0,0,0-6.825,6.825v8.532H92.1V24.976A6.818,6.818,0,0,0,85.278,18.151Zm-23.888,0h-27.3V12.178a1.711,1.711,0,0,1,1.706-1.706H59.683a1.711,1.711,0,0,1,1.706,1.706Z" transform="translate(0 -2)" fill="#fff"/>
  </g>
</svg>
