<svg xmlns="http://www.w3.org/2000/svg" width="88.728" height="84.309"><g data-name="Icon ionic-ios-briefcase" fill="#fff"><path data-name="Path 708" d="M6.825 84.307h75.078a6.818 6.818 0 006.822-6.827V36.53H0v40.95a6.818 6.818 0 006.825 6.827z"/><path data-name="Path 709" d="M81.903 13.651h-1.706v-1.707a1.711 1.711 0 00-1.706-1.706h-6.826a1.711 1.711 0 00-1.706 1.706v1.706h-5.972V6.825A6.845 6.845 0 0057.162 0H31.567a6.845 6.845 0 00-6.825 6.825v6.825h-5.973v-1.706a1.711 1.711 0 00-1.706-1.706h-6.825a1.711 1.711 0 00-1.706 1.706v1.706H6.825A6.818 6.818 0 000 20.475v8.532h88.725v-8.531a6.818 6.818 0 00-6.822-6.825zm-23.888 0h-27.3V7.678a1.711 1.711 0 011.706-1.706h23.887a1.711 1.711 0 011.706 1.706z"/></g></svg>