<svg xmlns="http://www.w3.org/2000/svg" width="103.926" height="103.926" viewBox="0 0 103.926 103.926">
  <g id="Icon_ionic-ios-sunny" data-name="Icon ionic-ios-sunny" transform="translate(-3.375 -3.375)">
    <g id="Group_175" data-name="Group 175" transform="translate(3.375 3.375)">
      <path id="Path_699" data-name="Path 699" d="M20.764,27.211a3.849,3.849,0,0,0-3.847,3.847V42.6a3.847,3.847,0,0,0,7.695,0V31.058A3.849,3.849,0,0,0,20.764,27.211Z" transform="translate(31.198 57.479)" fill="#fff"/>
      <path id="Path_700" data-name="Path 700" d="M20.764,3.375a3.849,3.849,0,0,0-3.847,3.847V18.764a3.847,3.847,0,0,0,7.695,0V7.222A3.849,3.849,0,0,0,20.764,3.375Z" transform="translate(31.198 -3.375)" fill="#fff"/>
      <path id="Path_701" data-name="Path 701" d="M22.611,20.764a3.849,3.849,0,0,0-3.847-3.847H7.222a3.847,3.847,0,0,0,0,7.695H18.764A3.849,3.849,0,0,0,22.611,20.764Z" transform="translate(-3.375 31.198)" fill="#fff"/>
      <path id="Path_702" data-name="Path 702" d="M42.6,16.917H31.058a3.847,3.847,0,0,0,0,7.695H42.6a3.847,3.847,0,0,0,0-7.695Z" transform="translate(57.479 31.198)" fill="#fff"/>
      <path id="Path_703" data-name="Path 703" d="M19.357,24.195a3.837,3.837,0,0,0-2.723,1.124L8.465,33.488a3.851,3.851,0,0,0,5.446,5.446l8.169-8.169a3.847,3.847,0,0,0-2.723-6.57Z" transform="translate(6.749 49.778)" fill="#fff"/>
      <path id="Path_704" data-name="Path 704" d="M28.042,23.2a3.837,3.837,0,0,0,2.723-1.124l8.169-8.169a3.851,3.851,0,0,0-5.446-5.446l-8.169,8.169a3.847,3.847,0,0,0,2.723,6.57Z" transform="translate(49.778 6.749)" fill="#fff"/>
      <path id="Path_705" data-name="Path 705" d="M13.911,8.465a3.851,3.851,0,0,0-5.446,5.446l8.169,8.169a3.851,3.851,0,0,0,5.446-5.446Z" transform="translate(6.749 6.749)" fill="#fff"/>
      <path id="Path_706" data-name="Path 706" d="M30.765,25.319a3.851,3.851,0,0,0-5.446,5.446l8.169,8.169a3.851,3.851,0,0,0,5.446-5.446Z" transform="translate(49.778 49.778)" fill="#fff"/>
    </g>
    <path id="Path_707" data-name="Path 707" d="M35.233,11.25A23.983,23.983,0,1,0,59.216,35.233,24.021,24.021,0,0,0,35.233,11.25Z" transform="translate(20.105 20.105)" fill="#fff"/>
  </g>
</svg>
