<svg xmlns="http://www.w3.org/2000/svg" width="103.926" height="103.926"><g data-name="Icon ionic-ios-sunny" fill="#fff"><g data-name="Group 175"><path data-name="Path 699" d="M51.962 84.69a3.849 3.849 0 00-3.847 3.847v11.542a3.848 3.848 0 007.695 0V88.537a3.849 3.849 0 00-3.848-3.847z"/><path data-name="Path 700" d="M51.962 0a3.849 3.849 0 00-3.847 3.847v11.542a3.848 3.848 0 007.695 0V3.847A3.849 3.849 0 0051.962 0z"/><path data-name="Path 701" d="M19.236 51.962a3.849 3.849 0 00-3.847-3.847H3.847a3.848 3.848 0 000 7.695h11.542a3.849 3.849 0 003.847-3.848z"/><path data-name="Path 702" d="M100.079 48.115H88.537a3.848 3.848 0 000 7.695h11.542a3.848 3.848 0 000-7.695z"/><path data-name="Path 703" d="M26.106 73.973a3.837 3.837 0 00-2.723 1.124l-8.169 8.169a3.851 3.851 0 005.446 5.446l8.169-8.169a3.847 3.847 0 00-2.723-6.57z"/><path data-name="Path 704" d="M77.82 29.949a3.837 3.837 0 002.723-1.124l8.169-8.169a3.851 3.851 0 00-5.446-5.446l-8.169 8.169a3.847 3.847 0 002.723 6.57z"/><path data-name="Path 705" d="M20.66 15.214a3.851 3.851 0 00-5.446 5.446l8.169 8.169a3.851 3.851 0 005.446-5.446z"/><path data-name="Path 706" d="M80.543 75.097a3.851 3.851 0 00-5.446 5.446l8.169 8.169a3.851 3.851 0 005.446-5.446z"/></g><path data-name="Path 707" d="M51.963 27.98a23.983 23.983 0 1023.983 23.983A24.021 24.021 0 0051.963 27.98z"/></g></svg>