<svg xmlns="http://www.w3.org/2000/svg" width="1135.233" height="435.577" viewBox="0 0 1135.233 435.577">
  <g id="RextBoxesleft" transform="translate(159.116 -386.286)" opacity="0.41">
    <rect id="Rectangle_807" data-name="Rectangle 807" width="143" height="143" rx="25" transform="translate(758.673 386.286) rotate(45)" fill="#489ae2" opacity="0.17"/>
    <rect id="Rectangle_808" data-name="Rectangle 808" width="143" height="143" rx="25" transform="translate(875 502.958) rotate(45)" fill="#489ae2" opacity="0.17"/>
    <rect id="Rectangle_809" data-name="Rectangle 809" width="143" height="143" rx="25" transform="translate(291.327 619.631) rotate(45)" fill="#489ae2" opacity="0.17"/>
    <rect id="Rectangle_810" data-name="Rectangle 810" width="143" height="143" rx="25" transform="translate(525.327 619.631) rotate(45)" fill="#489ae2" opacity="0.17"/>
    <rect id="Rectangle_811" data-name="Rectangle 811" width="143" height="143" rx="25" transform="translate(58.327 619.631) rotate(45)" fill="#489ae2" opacity="0.17"/>
    <rect id="Rectangle_812" data-name="Rectangle 812" width="143" height="143" rx="25" transform="translate(408 502.958) rotate(45)" fill="#489ae2" opacity="0.17"/>
    <rect id="Rectangle_813" data-name="Rectangle 813" width="143" height="143" rx="25" transform="translate(642 502.958) rotate(45)" fill="#489ae2" opacity="0.17"/>
    <rect id="Rectangle_814" data-name="Rectangle 814" width="143" height="143" rx="25" transform="translate(175 502.958) rotate(45)" fill="#489ae2" opacity="0.17"/>
    <rect id="Rectangle_815" data-name="Rectangle 815" width="143" height="143" rx="25" transform="translate(-58 502.958) rotate(45)" fill="#489ae2" opacity="0.17"/>
    <rect id="Rectangle_816" data-name="Rectangle 816" width="143" height="143" rx="25" transform="translate(524.673 386.286) rotate(45)" fill="#489ae2" opacity="0.17"/>
    <rect id="Rectangle_817" data-name="Rectangle 817" width="143" height="143" rx="25" transform="translate(291.673 386.286) rotate(45)" fill="#489ae2" opacity="0.17"/>
  </g>
</svg>
