<svg xmlns="http://www.w3.org/2000/svg" width="139.397" height="83.668" viewBox="0 0 139.397 83.668">
  <g id="ConnectWithUsimg" transform="translate(-318.603 -17160.012)">
    <path id="Icon_awesome-handshake" data-name="Icon awesome-handshake" d="M94.681,4.5H75.971a6.967,6.967,0,0,0-4.7,1.83l-21.41,19.6c-.022.022-.044.065-.065.087a8.664,8.664,0,0,0-.457,12.2,9.084,9.084,0,0,0,12.219.588c.022-.022.065-.022.087-.044l17.4-15.943a3.484,3.484,0,1,1,4.7,5.14l-5.685,5.206,31.713,25.745a15.693,15.693,0,0,1,1.721,1.677V18.44L99.6,6.547A6.92,6.92,0,0,0,94.681,4.5Zm23.806,13.983V67.25a6.962,6.962,0,0,0,6.97,6.97H139.4V18.483ZM128.942,67.25a3.485,3.485,0,1,1,3.485-3.485A3.5,3.5,0,0,1,128.942,67.25ZM0,74.2H13.94a6.962,6.962,0,0,0,6.97-6.97V18.483H0ZM10.455,60.28A3.485,3.485,0,1,1,6.97,63.765,3.5,3.5,0,0,1,10.455,60.28ZM105.4,64.332l-32.519-26.4-6.534,5.99A15.678,15.678,0,0,1,45.151,20.814L62.968,4.5H44.716a6.957,6.957,0,0,0-4.922,2.047L27.879,18.44V67.207h3.986L51.577,85.045a13.937,13.937,0,0,0,19.6-2.026l.044-.044,3.9,3.376a8.094,8.094,0,0,0,11.391-1.176l6.839-8.407,1.176.958a6.959,6.959,0,0,0,9.8-1.024l2.069-2.548a6.982,6.982,0,0,0-1-9.823Z" transform="translate(318.603 17155.512)" fill="#fff"/>
    <path id="Icon_awesome-handshake-2" data-name="Icon awesome-handshake" d="M118.487,18.483V67.25a6.962,6.962,0,0,0,6.97,6.97H139.4V18.483ZM128.942,67.25a3.485,3.485,0,1,1,3.485-3.485A3.5,3.5,0,0,1,128.942,67.25ZM0,74.2H13.94a6.962,6.962,0,0,0,6.97-6.97V18.483H0ZM10.455,60.28A3.485,3.485,0,1,1,6.97,63.765,3.5,3.5,0,0,1,10.455,60.28Z" transform="translate(318.603 17155.512)" fill="#fff"/>
  </g>
</svg>
