<svg xmlns="http://www.w3.org/2000/svg" width="681" height="681" viewBox="0 0 681 681">
  <g id="HRmIll" transform="translate(-1056 -8135)">
    <rect id="Rectangle_997" data-name="Rectangle 997" width="162" height="162" rx="19" transform="translate(1397 8361.448) rotate(45)" fill="#0c1475"/>
    <text id="HRM" transform="translate(1397 8494)" fill="#fff" font-size="52" font-family="Poppins-Medium, Poppins" font-weight="500" opacity="0.9"><tspan x="-56.316" y="0">HRM</tspan></text>
    <text id="Search_Engine" data-name="Search
Engine" transform="translate(1589 8348)" fill="#233187" font-size="34" font-family="Poppins-Medium, Poppins" font-weight="500"><tspan x="-60.282" y="0">Search</tspan><tspan x="-57.29" y="51">Engine</tspan></text>
    <text id="Screen" transform="translate(1530 8579)" fill="#233187" font-size="34" font-family="Poppins-Medium, Poppins" font-weight="500"><tspan x="0" y="0">Screen</tspan></text>
    <text id="Schedule" transform="translate(1323 8720)" fill="#233187" font-size="34" font-family="Poppins-Medium, Poppins" font-weight="500"><tspan x="0" y="0">Schedule</tspan></text>
    <text id="Client_Feedback" data-name="Client
Feedback" transform="translate(1216 8558)" fill="#233187" font-size="34" font-family="Poppins-Medium, Poppins" font-weight="500"><tspan x="-49.708" y="0">Client</tspan><tspan x="-83.878" y="51">Feedback</tspan></text>
    <text id="Result" transform="translate(1207 8391)" fill="#233187" font-size="34" font-family="Poppins-Medium, Poppins" font-weight="500"><tspan x="-51.493" y="0">Result</tspan></text>
    <path id="Polygon_8" data-name="Polygon 8" d="M13.145,4.648a3,3,0,0,1,5.229,0L29,23.547a3,3,0,0,1-2.615,4.471H5.13a3,3,0,0,1-2.615-4.471Z" transform="matrix(0.966, 0.259, -0.259, 0.966, 1481.756, 8248.842)" fill="#63b4fa"/>
    <path id="Polygon_10" data-name="Polygon 10" d="M13.145,4.648a3,3,0,0,1,5.229,0L29,23.547a3,3,0,0,1-2.615,4.471H5.13a3,3,0,0,1-2.615-4.471Z" transform="translate(1598.192 8441.534) rotate(60)" fill="#63b4fa"/>
    <path id="Polygon_9" data-name="Polygon 9" d="M13.145,4.648a3,3,0,0,1,5.229,0L29,23.547a3,3,0,0,1-2.615,4.471H5.13a3,3,0,0,1-2.615-4.471Z" transform="matrix(-0.259, 0.966, -0.966, -0.259, 1534.56, 8653.126)" fill="#63b4fa"/>
    <path id="Polygon_7" data-name="Polygon 7" d="M13.145,4.648a3,3,0,0,1,5.229,0L29,23.547a3,3,0,0,1-2.615,4.471H5.13a3,3,0,0,1-2.615-4.471Z" transform="matrix(0.259, 0.966, -0.966, 0.259, 1297.525, 8645.876)" fill="#63b4fa"/>
    <path id="Polygon_6" data-name="Polygon 6" d="M13.145,4.648a3,3,0,0,1,5.229,0L29,23.547a3,3,0,0,1-2.615,4.471H5.13a3,3,0,0,1-2.615-4.471Z" transform="translate(1226.615 8469.68) rotate(120)" fill="#63b4fa"/>
    <text id="Analyse" transform="translate(1335 8237)" fill="#233187" font-size="34" font-family="Poppins-Medium, Poppins" font-weight="500"><tspan x="0" y="0">Analyse</tspan></text>
    <circle id="Ellipse_2989" data-name="Ellipse 2989" cx="340.5" cy="340.5" r="340.5" transform="translate(1056 8135)" fill="#63b4fa" opacity="0.29"/>
  </g>
</svg>
