<svg xmlns="http://www.w3.org/2000/svg" xmlns:xlink="http://www.w3.org/1999/xlink" width="1135.233" height="614.386" viewBox="0 0 1135.233 614.386">
  <defs>
    <linearGradient id="linear-gradient" x1="0.501" y1="1" x2="0.501" gradientUnits="objectBoundingBox">
      <stop offset="0" stop-color="gray" stop-opacity="0.251"/>
      <stop offset="0.54" stop-color="gray" stop-opacity="0.122"/>
      <stop offset="1" stop-color="gray" stop-opacity="0.102"/>
    </linearGradient>
  </defs>
  <g id="PEOIll1" transform="translate(284.116 -9595.764)">
    <g id="Phone" transform="translate(342.725 9595.764)" opacity="0.9">
      <rect id="Rectangle_668" data-name="Rectangle 668" width="7.916" height="65.244" rx="2.29" transform="translate(263.244 122.088)" fill="#0c1475"/>
      <rect id="Rectangle_669" data-name="Rectangle 669" width="4.441" height="21.48" rx="2.22" transform="translate(0.161 70.98)" fill="#0c1475"/>
      <rect id="Rectangle_670" data-name="Rectangle 670" width="5.004" height="37.384" rx="2.29" transform="translate(0 110.303)" fill="#0c1475"/>
      <rect id="Rectangle_671" data-name="Rectangle 671" width="4.762" height="37.706" rx="2.29" transform="translate(0.08 160.768)" fill="#0c1475"/>
      <rect id="Rectangle_672" data-name="Rectangle 672" width="264.835" height="538.238" rx="38.99" transform="translate(2.681)" fill="#0c1475"/>
      <rect id="Rectangle_673" data-name="Rectangle 673" width="36.982" height="7.505" rx="3.753" transform="translate(109.544 16.065)" fill="#0c1475"/>
      <ellipse id="Ellipse_2804" data-name="Ellipse 2804" cx="4.262" cy="4.262" rx="4.262" ry="4.262" transform="translate(152.119 15.565)" fill="#0c1475"/>
    </g>
    <g id="Illustration">
      <path id="Path_793" data-name="Path 793" d="M697.845,174.84h-30.29v3.654a17.316,17.316,0,0,1-17.316,17.316H553.579a17.316,17.316,0,0,1-17.316-17.316V174.84H507.814a21.024,21.024,0,0,0-21.024,21.033V664.007a21.024,21.024,0,0,0,21.024,21.033H697.845a21.033,21.033,0,0,0,21.033-21.033V195.873A21.033,21.033,0,0,0,697.845,174.84Z" transform="translate(-125.024 9434.934)" fill="#63b4fa"/>
      <rect id="Rectangle_868" data-name="Rectangle 868" width="69.72" height="69.72" transform="translate(495.354 9931.479)" fill="#3a3768" opacity="0.3"/>
      <rect id="Rectangle_866" data-name="Rectangle 866" width="69.72" height="69.72" transform="translate(392.601 9839.449)" fill="#3a3768" opacity="0.3"/>
      <rect id="Rectangle_871" data-name="Rectangle 871" width="69.72" height="69.72" transform="translate(399.302 10021.938)" fill="#3a3768" opacity="0.3"/>
      <rect id="Rectangle_864" data-name="Rectangle 864" width="69.72" height="69.72" transform="translate(383.746 9668.263)" fill="#fff"/>
      <path id="Path_794" data-name="Path 794" d="M565.255,265.79l-2.475,2.466a8.73,8.73,0,0,1,0,12.357l2.475,2.484A12.241,12.241,0,0,0,565.255,265.79Z" transform="translate(-133.117 9425.248)" fill="#37138b"/>
      <path id="Path_795" data-name="Path 795" d="M566.024,260.217l-2.439,2.439a15.529,15.529,0,0,1,0,21.944l2.439,2.439a18.96,18.96,0,0,0,0-26.805Zm-11.616,9.132V258.18h-3.44l-10.293,8.578H526.951l-3.431,1.716v12.018l3.431,1.716,8.613,13.733h5.147l-3.216-13.733h3.216L551,289.077h3.44V277.909a4.387,4.387,0,0,0,0-8.56Z" transform="translate(-128.936 9426.059)" fill="#232a82"/>
      <rect id="Rectangle_869" data-name="Rectangle 869" width="69.72" height="69.72" transform="matrix(0.742, -0.671, 0.671, 0.742, 499.401, 9953.125)" fill="#fff"/>
      <path id="Path_816" data-name="Path 816" d="M673.34,550.011l5.057-4.593,27.7,30.531L701,580.56ZM685.286,578.6l5.093-4.6,8.041,8.935-5.093,4.6ZM695.955,559.7l5.093-4.611,12.661,14-5.084,4.6Zm.724-14.546,5.093-4.611,19.577,21.632-5.093,4.61Z" transform="translate(-144.891 9395.988)" fill="#232a82"/>
      <rect id="Rectangle_865" data-name="Rectangle 865" width="69.72" height="69.72" transform="translate(494.201 9752.279)" fill="#fff"/>
      <path id="Path_796" data-name="Path 796" d="M684.4,363.893l-9.355,14.3a5.093,5.093,0,0,1,1.161,3.252,5.156,5.156,0,0,1-10.3,0,5.67,5.67,0,0,1,.089-.956l-6.183-3.574a5.173,5.173,0,0,1-6.1.768l-6.576,6.156v6.138a4.592,4.592,0,0,0,4.584,4.584h38.9a4.6,4.6,0,0,0,4.584-4.584v-22.8L688.946,363a5.094,5.094,0,0,1-3.154,1.09,5.246,5.246,0,0,1-1.358-.188Z" transform="translate(-142.1 9414.896)" fill="#37138b"/>
      <path id="Path_797" data-name="Path 797" d="M656.244,366.5a5.147,5.147,0,0,1,5.156,5.147,3.346,3.346,0,0,1-.045.67l6.451,3.574a5.067,5.067,0,0,1,3.261-1.162,4.953,4.953,0,0,1,1.108.125l9.382-14.528a5.147,5.147,0,1,1,9.346-2.984,5.36,5.36,0,0,1-.143,1.215l4.468,2.957v-8.6a4.593,4.593,0,0,0-4.584-4.575h-38.93a4.584,4.584,0,0,0-4.584,4.575v24.607l4.289-4.11a5.205,5.205,0,0,1-.322-1.787,5.147,5.147,0,0,1,5.147-5.129Z" transform="translate(-142.1 9416.457)" fill="#232a82"/>
      <rect id="Rectangle_867" data-name="Rectangle 867" width="69.72" height="69.72" transform="translate(406.065 9830.014)" fill="#fff"/>
      <path id="Path_808" data-name="Path 808" d="M593.763,435.477l-42.888,23.231a.894.894,0,0,0,.062,1.6l7.318,2.761a1.788,1.788,0,0,1,.965.894l5.683,11.7c.107.518,1.063.661,1.072.134l-.894-9.677a3.44,3.44,0,0,1,.786-1.957l22.23-21.784a.554.554,0,0,1,.491-.143.509.509,0,0,1,.277.813L569.7,466.482a4.283,4.283,0,0,0-.751,1.93l-1.144,8.354c.089.733.661,1.01,1.126.357l4.128-4.852a.893.893,0,0,1,1.215-.2l10.642,7.756a.894.894,0,0,0,1.349-.527L595,436.415a.894.894,0,0,0-1.251-.965Z" transform="translate(-131.8 9407.188)" fill="#232a82"/>
      <path id="Path_893" data-name="Path 893" d="M1023.4,778.47c4.056.527,8.265.893,12.151-.411.6-.188,1.287-.6,1.207-1.215a1.433,1.433,0,0,0-.277-.59,37.924,37.924,0,0,1-3.69-7,.57.57,0,0,0-.223-.313.544.544,0,0,0-.393,0c-1.787.465-3.342,1.626-5.129,2.118a7.325,7.325,0,0,1-2.788.214c-.8-.089-1.912-.76-2.636-.679C1022.067,773.252,1023.085,775.763,1023.4,778.47Z" transform="translate(-300.747 9371.668)" fill="#6c63ff"/>
      <path id="Path_894" data-name="Path 894" d="M1109.01,770.345c2.68-1.787,5.45-3.771,7.032-6.6a1.085,1.085,0,0,0,.188-.563,1.166,1.166,0,0,0-.223-.554,22.888,22.888,0,0,0-5.71-6.165,16.875,16.875,0,0,0-3.19,2.94c-.67.706-2.528,1.867-2.546,2.922,0,.634.706,1.322,1.036,1.787.447.661.894,1.34,1.278,2.019C1107.079,766.539,1109.206,770.238,1109.01,770.345Z" transform="translate(-309.579 9372.994)" fill="#6c63ff"/>
      <path id="Path_895" data-name="Path 895" d="M1036.473,787.184a2.681,2.681,0,0,1-.483,1.787,2.384,2.384,0,0,1-1.028.6c-5.683,2.028-12.223-.509-17.87,1.5-1.17.411-2.269,1-3.44,1.394a18.622,18.622,0,0,1-4.262.76c-2.01.2-4.021.313-6.031.366a14.591,14.591,0,0,1-4.539-.393,5.5,5.5,0,0,1-3.485-2.761,2.679,2.679,0,0,1-.169-1.965,2.209,2.209,0,0,1,.366-.635,5.435,5.435,0,0,1,1.34-1.081l2.091-1.349a13.978,13.978,0,0,1,3.163-1.68c.822-.268,1.707-.384,2.538-.626,2.94-.893,5.173-3.19,7.255-5.423l2.841-3.029a2.786,2.786,0,0,1,.983-.786,2.682,2.682,0,0,1,1.215-.125,16.417,16.417,0,0,1,7.747,2.609,11.178,11.178,0,0,0,1.912,1.126,6.828,6.828,0,0,0,5.361-.67c.733-.384.572-.625.894-1.313s1.054-1.135,1.7-.5a1.864,1.864,0,0,1,.4.768c.626,2.028.384,4.2.384,6.317a2.806,2.806,0,0,0,.125.983,5.994,5.994,0,0,0,.554.893,1.4,1.4,0,0,1,.116.232A6.2,6.2,0,0,1,1036.473,787.184Z" transform="translate(-297.917 9371.156)" fill="#514e7f"/>
      <path id="Path_896" data-name="Path 896" d="M1036.473,788.433a2.681,2.681,0,0,1-.483,1.787,2.385,2.385,0,0,1-1.028.6c-5.683,2.028-12.223-.509-17.87,1.5-1.17.411-2.269,1-3.44,1.394a18.629,18.629,0,0,1-4.262.76c-2.01.2-4.021.313-6.031.366a14.584,14.584,0,0,1-4.539-.393,5.5,5.5,0,0,1-3.485-2.761,2.679,2.679,0,0,1-.169-1.966,2.211,2.211,0,0,1,.366-.634c.34.7.581,1.608.786,1.939A3.967,3.967,0,0,0,999,792.945a6.8,6.8,0,0,0,2.421-.313c5.147-1.278,10.615-1.3,15.547-3.225a37.153,37.153,0,0,1,5.093-1.957,40.48,40.48,0,0,1,5.5-.447c2.9-.232,5.71-1.108,8.578-1.564a6.2,6.2,0,0,1,.331,2.993Z" transform="translate(-297.917 9369.907)" fill="#464353"/>
      <path id="Path_897" data-name="Path 897" d="M1120.232,770.432a10.311,10.311,0,0,1-3.136,5.585,35.821,35.821,0,0,0-4.378,4.8c-1.483,2.252-2.135,5.03-4.047,6.934a10.967,10.967,0,0,1-2.43,1.787,16.8,16.8,0,0,1-3.154,1.447c-2.851.893-5.924.706-8.935.491a7.946,7.946,0,0,1-2.824-.554,8.186,8.186,0,0,1-1.2-.724,5.68,5.68,0,0,1-1.787-1.85,1.858,1.858,0,0,1-.17-1.331,3.04,3.04,0,0,1,.893-1.3,20.225,20.225,0,0,1,2.153-1.939,12.781,12.781,0,0,0,2.806-2.466,8.044,8.044,0,0,0,1.081-2.466,22.121,22.121,0,0,0,.786-4.691,14.755,14.755,0,0,1,.33-3.136c.456-1.608,1.653-3.065,1.51-4.735a1.216,1.216,0,0,1,.062-.715,1.119,1.119,0,0,1,.563-.349,10.179,10.179,0,0,1,2.931-.67,3.378,3.378,0,0,1,2.681,1.063c.42.5.688,1.2,1.3,1.421a2.161,2.161,0,0,0,.894,0,7.6,7.6,0,0,0,4.253-1.313,5.36,5.36,0,0,0,1.787-3.9c0-.554-.25-1.135.6-1.251.652-.089,1.161.59,1.492,1.036a14.579,14.579,0,0,1,2.868,5.227,1.451,1.451,0,0,1,.545-.107,2.332,2.332,0,0,1,1.948,1A3.858,3.858,0,0,1,1120.232,770.432Z" transform="translate(-307.828 9372.559)" fill="#514e7f"/>
      <path id="Path_898" data-name="Path 898" d="M1120.259,771.173a10.312,10.312,0,0,1-3.137,5.584,35.806,35.806,0,0,0-4.378,4.8c-1.483,2.251-2.135,5.03-4.048,6.934a10.974,10.974,0,0,1-2.43,1.787,16.818,16.818,0,0,1-3.154,1.447c-2.85.893-5.924.706-8.935.491a7.946,7.946,0,0,1-2.824-.554,8.2,8.2,0,0,1-1.2-.724,5.68,5.68,0,0,1-1.787-1.85,4.352,4.352,0,0,1,1.841-.438c1.331.071,2.3,1.322,3.574,1.707,1.787.545,3.574-.733,5.441-1.171,1.2-.277,2.466-.2,3.637-.581a8.981,8.981,0,0,0,2.681-1.626,13.6,13.6,0,0,0,2.868-2.77,17.645,17.645,0,0,0,1.689-3.36,48.005,48.005,0,0,1,3.4-6.513,4.331,4.331,0,0,1,.7-.894c.277-.259.625-.447.893-.679,1.224-.893,1.733-2.475,2.162-3.94a6.612,6.612,0,0,1,.483-1.313,2.332,2.332,0,0,1,1.948,1A3.861,3.861,0,0,1,1120.259,771.173Z" transform="translate(-307.855 9371.816)" fill="#464353"/>
      <path id="Path_817" data-name="Path 817" d="M980.114,556.192a12.973,12.973,0,0,1,3.645,4.262c.894,1.68,5.8,14.725,5.513,16.592,1.608-1.626,7.988-1.894,9.587-3.511.679-.679,4.351-4.074,4.9-4.861s4.637-2.475,5.084-3.279c1.671-2.993-11.848-14.3-10.124-17.3a.731.731,0,0,0,.143-.465.713.713,0,0,0-.223-.357,21.522,21.522,0,0,0-3.913-2.681,6.254,6.254,0,0,1-2.984-3.574,12.841,12.841,0,0,0-3.458,2.341q-3.708,3.172-7.309,6.5c-.947.893-2.752,2.028-3.19,3.27S979.212,555.459,980.114,556.192Z" transform="translate(-296.071 9395.938)" fill="#a1616a"/>
      <path id="Path_829" data-name="Path 829" d="M1002.858,552.61a39.19,39.19,0,0,0-5.79,4.736c-1.68,1.653-3.27,3.574-3.69,5.906-.17.893-.143,1.841-.286,2.761-.6,4-4.074,6.942-5.6,10.722a18.333,18.333,0,0,0-.983,3.574,42.133,42.133,0,0,0-.7,7.023c0,2.287,2.2,3.86,3.02,6a36.4,36.4,0,0,1,1.456,6.5,79.123,79.123,0,0,0,3.654,12.062c3.02,8.336,12.8,31.389,15.824,39.734,9.248-2.323,33.873-7.657,42.057-12.509,2.734-1.626-18.942-20-16.02-21.265a1.472,1.472,0,0,0,.813-.617,1.411,1.411,0,0,0,0-.894c-2.913-12.768-12.053-23.231-16.19-35.74-1.439-4.316-4.021-8-5.987-12.107-1.787-3.717-2.725-7.818-4.843-11.347a7.59,7.59,0,0,0-1.545-1.939,9.488,9.488,0,0,0-1.716-1.028C1005.163,553.548,1004.037,553.2,1002.858,552.61Z" transform="translate(-296.933 9394.703)" fill="#514e7f"/>
      <ellipse id="Ellipse_2928" data-name="Ellipse 2928" cx="14.475" cy="14.475" rx="14.475" ry="14.475" transform="translate(670.061 9921.723)" fill="#a1616a"/>
      <path id="Path_830" data-name="Path 830" d="M997.43,547.627a4.852,4.852,0,0,1,5.441-.777,2.68,2.68,0,0,1,1.617,2.609l7.148.107a14.96,14.96,0,0,1,3.4.313,4.948,4.948,0,0,1,2.841,1.787c.089.116.188.25.331.277a.57.57,0,0,0,.33-.116,6.3,6.3,0,0,1,3.574-.643c3.878.25,7.47,2.2,10.508,4.619a3.4,3.4,0,0,1,1.251,1.528c.25.813,0,1.859.59,2.413,0,6.746,2.314,13.027,3.86,19.595.268,1.171,1.394,2.2,2.171,3.118a12.5,12.5,0,0,1,2.323,3.467c1.3,3.4-.5,7.4.777,10.82a17.44,17.44,0,0,0,2.466,3.887,10.014,10.014,0,0,1,2.1,5.021c.054.822-.054,1.644,0,2.475a15.109,15.109,0,0,0,.59,3.252c.518,1.975,1.072,3.949,1.644,5.915.893,3.181,2.145,6.621,4.995,8.319-6.889,1.17-14.144,2.305-20.711-.08a10.729,10.729,0,0,1-2.582-1.3c-2.368-1.689-3.512-4.584-4.53-7.309a34.358,34.358,0,0,1-2.538-9.435,10.79,10.79,0,0,0-.429-3.083c-.67-1.787-2.439-2.85-4.065-3.833a19.567,19.567,0,0,1-4.887-3.806,7.594,7.594,0,0,1-1.984-5.718c.125-1.01.518-1.984.563-3a2.4,2.4,0,0,0-1.394-2.475c-5.013-1.519-7.407-7.452-8.524-12.572a40.127,40.127,0,0,1-.643-8.042l-.062-5.173a6.861,6.861,0,0,1-2.252-4.95,5.553,5.553,0,0,0,0-1.635,4.58,4.58,0,0,0-1.144-1.787A15.093,15.093,0,0,1,997.43,547.627Z" transform="translate(-298.17 9395.371)" fill="#464353"/>
      <path id="Path_831" data-name="Path 831" d="M980.05,565.793c-.161,1.617.205,3.27-.161,4.86-.143.608-.384,1.188-.563,1.787a10.544,10.544,0,0,0,.67,6.809,37.843,37.843,0,0,0,3.475,6.031,9.187,9.187,0,0,1,1.117,2.082,10.781,10.781,0,0,1,.429,2.386,72.72,72.72,0,0,0,1.707,9.6,18.854,18.854,0,0,0,3.378,7.711A2.341,2.341,0,0,0,991.5,608a2.523,2.523,0,0,0,1.188-.25l3.7-1.4a2.587,2.587,0,0,0,.894-.465,2.245,2.245,0,0,0,.518-1.448c.259-2.984-.635-5.942-1.626-8.765-3-8.524-6.987-16.735-8.935-25.554-.545-2.466-.831-6.255-2.627-8.176-.742-.8-.491-.464-1.376,0a11.23,11.23,0,0,0-1.3.688A4.244,4.244,0,0,0,980.05,565.793Z" transform="translate(-296.212 9393.76)" fill="#464353"/>
      <path id="Path_877" data-name="Path 877" d="M1059.24,625.68" transform="translate(-304.753 9386.922)" fill="#464353"/>
      <path id="Path_832" data-name="Path 832" d="M992.543,581.421q1.474,7.8,3.011,15.609l14.368-3.771c.116-1.5-.688-2.895-1.242-4.3-1.313-3.288-1.34-6.943-2.4-10.32-.8-2.573-2.2-4.941-2.948-7.532-.438-1.5-.652-3.074-1.081-4.584a34.985,34.985,0,0,0-1.689-4.369,27.837,27.837,0,0,0-3.136-5.817c-1.841.688-3.8,1.483-4.843,3.136a6.662,6.662,0,0,0-.894,3.091c-.25,3.234.894,6.478.527,9.677A28.591,28.591,0,0,0,992.543,581.421Z" transform="translate(-297.555 9394.306)" fill="#232a82"/>
      <path id="Path_878" data-name="Path 878" d="M1011.418,658.31c.8,3.074-.366,6.255-1.313,9.31a72.3,72.3,0,0,0-2.931,14.019,11.615,11.615,0,0,1-.724,3.574,33.4,33.4,0,0,1-1.742,2.859c-1.447,2.555-1.412,5.683-1.1,8.6.206,1.93.519,3.851.894,5.754.474,2.314,1.054,4.744.375,7.005,1.135-.25,1.912,1.215,1.867,2.386s-.456,2.421.1,3.449c1.412.509,1.43,2.448,1.385,3.94a33.225,33.225,0,0,0,.974,7.72q3.2,15.359,6.79,30.638c5.174,1.609,11.214,3.279,16.146,1.055a3.172,3.172,0,0,0,2.046-2.055,3.7,3.7,0,0,0-.2-1.582l-2.341-8.506a15.658,15.658,0,0,1-.84-6.254c.232-1.581.893-3.279.143-4.664a13.453,13.453,0,0,0-.983-1.3c-1.233-1.787-.59-4.191-.483-6.371a4.992,4.992,0,0,0-.107-1.457,7.654,7.654,0,0,0-.688-1.6,24.419,24.419,0,0,1-2.681-12.151,2.987,2.987,0,0,0-.214-1.59,3.634,3.634,0,0,1-.393-.643,1.724,1.724,0,0,1,.125-1.17,10.18,10.18,0,0,1-1.885-1.787,2.68,2.68,0,0,0,.447-4.128,1.376,1.376,0,0,0,.661-2.368c-.3-.214-.7-.3-.893-.607-.331-.447-.063-1.081.205-1.564l1.43-2.582c1.063-1.912,1.3-4.28,2.448-6.147a46.137,46.137,0,0,0,3.771-8.6l4.074-11.348,2.77,2.4a8.677,8.677,0,0,1,2.279,2.6,10.974,10.974,0,0,1,.733,3.109c1.018,6.165,4.905,11.508,6.344,17.593a11.848,11.848,0,0,0,1.3,3.932,8.53,8.53,0,0,1,.751,1.126,5.933,5.933,0,0,1,.313,1.867,8.7,8.7,0,0,0,3.672,6.255c1.358.894,3.083,1.581,3.8,3.065a6.049,6.049,0,0,0,.625,1.3c.661.8,2.091.894,2.376,1.885.152.563-.143,1.224.179,1.716a1.563,1.563,0,0,0,.67.5l3.994,2c4.468,2.225,6.719,7.327,10.016,11.07a23.007,23.007,0,0,1,2.993,3.967c1.42,2.538,2.082,5.727,4.468,7.363a6.948,6.948,0,0,1,1.733,1.286c.76.992.482,2.386.545,3.637s1.028,2.734,2.216,2.359a8.626,8.626,0,0,0,0,4.619,23.282,23.282,0,0,0,14.117-5.718c1.162-1.019,2.288-2.314,2.3-3.851a1.49,1.49,0,0,0-.17-.768,2.088,2.088,0,0,0-.893-.679c-3.726-2.019-4.852-6.7-6.719-10.507-1.653-3.351-4.083-6.255-6.148-9.364-4.467-6.7-7.452-14.805-14.162-19.237-1.474-.974-3.19-1.841-3.922-3.449a27.538,27.538,0,0,1-.786-2.859,2.4,2.4,0,0,0-2.1-1.787,12.751,12.751,0,0,0,.482-4.468,5.554,5.554,0,0,0-.223-1.921,9.076,9.076,0,0,0-.983-1.894,18.362,18.362,0,0,1-2.529-9.829c.054-1.787.366-3.574-.17-5.281-.268-.894-.732-1.635-1.063-2.466a15.381,15.381,0,0,1-.768-4.6l-.367-5.888a28.167,28.167,0,0,0-.759-5.817c-1.242-4.566-2.431-23.7-6.639-25.849s-11.392,12.563-16.083,12.858a21.443,21.443,0,0,0-6.148,1.179c-3.136,1.179-5.772,3.377-8.336,5.531l-8.685,7.291A31.655,31.655,0,0,1,1011.418,658.31Z" transform="translate(-298.81 9386.744)" fill="#464353"/>
      <path id="Path_818" data-name="Path 818" d="M965.294,521.69a10.92,10.92,0,0,1,8.426-4.11,19.656,19.656,0,0,1,9.31,2.341,12.006,12.006,0,0,0,2.68,1.117c1.537.313,3.234-.107,4.619.625,1.84.974,2.189,3.458,2.028,5.531s-.545,4.342.554,6.121a16.936,16.936,0,0,1,1.063,1.59,5.309,5.309,0,0,1-.1,3.4,27.305,27.305,0,0,1-1.787-2.243,2.079,2.079,0,0,0-2.528-.661c-.786.527-.786,1.5-.822,2.368s-.268,1.912-1.09,2.2a1.787,1.787,0,0,1-1.787-.715c-1.4-1.716-.84-4.468-2.225-6.183-.8-.983-2.109-1.456-2.841-2.484-.572-.8-.715-1.849-1.215-2.68s-1.671-1.51-2.457-.894a3.337,3.337,0,0,0-.652.893A3.762,3.762,0,0,1,972,529.249a7.833,7.833,0,0,0-1.939-.831,2.386,2.386,0,0,0-2.207,1.2,4.758,4.758,0,0,0-.581,2.555c0,1.206.215,2.529-.483,3.512a3.627,3.627,0,0,1-1.036.893c-1.027.652-2.43,1.09-3.4.348a2.556,2.556,0,0,1-.76-2.377,19.578,19.578,0,0,1,.724-2.511c.536-1.894-.161-4.03.429-5.817A18.317,18.317,0,0,1,965.294,521.69Z" transform="translate(-294.35 9398.434)" fill="#464353"/>
      <path id="Path_819" data-name="Path 819" d="M974.414,567.405a2.238,2.238,0,0,0,.134,1.331,2.162,2.162,0,0,0,.724.7,14.99,14.99,0,0,0,6.827,2.207,2.054,2.054,0,0,1,.893.241,1.689,1.689,0,0,1,.4,1.9,5.064,5.064,0,0,0-.429,2.019c.179,1.278,1.689,1.859,2.975,2.019a6.9,6.9,0,0,0,5.173-1,7.979,7.979,0,0,0,2.135-3.208c3.512-8.042,4.745-16.977,8.3-25.018a5.086,5.086,0,0,0,.536-1.671,1.662,1.662,0,0,0-.661-1.546c-.661-.411-1.689-.179-2.136-.813-.223-.331-.2-.768-.393-1.108-.411-.733-1.483-.643-2.225-1.036-.572-.313-.974-.894-1.609-1.063a2.054,2.054,0,0,0-1.68.724c-2.082,1.948-3.181,4.709-4.343,7.318a86.9,86.9,0,0,1-6.255,11.535c.277-.429-1.322-3.69-1.948-3.815-1.09-.223-2.5,1.7-3.092,2.421A15.331,15.331,0,0,0,974.414,567.405Z" transform="translate(-295.714 9395.901)" fill="#232a82"/>
      <rect id="Rectangle_870" data-name="Rectangle 870" width="69.72" height="69.72" transform="translate(686.009 9974.744)" fill="#fff"/>
      <path id="Path_833" data-name="Path 833" d="M1019.5,608.419V599.27H996.64v41.191h44.631V608.419Zm-13.715,27.457h-4.566V631.3h4.566Zm0-9.15h-4.566v-4.575h4.566Zm0-9.149h-4.566v-4.584h4.566Zm0-9.158h-4.566v-4.584h4.566Zm9.141,27.457h-4.557V631.3h4.565Zm0-9.15h-4.557v-4.575h4.565Zm0-9.149h-4.557v-4.584h4.565Zm0-9.158h-4.557v-4.584h4.565Zm21.784,27.457H1019.5V631.3h4.566v-4.575H1019.5v-4.575h4.566v-4.584H1019.5v-4.575H1036.7Zm-4-18.3h-4.566v4.584h4.566Zm0,9.149h-4.566v4.584h4.566Z" transform="translate(-298.086 9389.733)" fill="#232a82"/>
      <path id="Path_879" data-name="Path 879" d="M1059.425,625.87a28.177,28.177,0,0,0-3.306,3.467,6.9,6.9,0,0,0-1.519,4.467,2.3,2.3,0,0,0,.429,1.3,1.116,1.116,0,0,0,1.242.384,1.786,1.786,0,0,0,.608-.545,28.618,28.618,0,0,1,2.055-2.234c.268-.259.608-.536.965-.438a1.016,1.016,0,0,1,.42.277,2.839,2.839,0,0,1,.893,1.349,3.2,3.2,0,0,1-.947,2.6,6.737,6.737,0,0,0-1.6,2.368,1.009,1.009,0,0,0,0,.76,1.242,1.242,0,0,0,.474.411,6.9,6.9,0,0,0,5.781.375c1.242-.491,2.314-1.349,3.574-1.787a8.591,8.591,0,0,0,1.582-.59,3.254,3.254,0,0,0,1.4-2.091,8.944,8.944,0,0,0,.1-2.582,29.485,29.485,0,0,0-2.153-9.739,1.16,1.16,0,0,0-.348-.518,1.225,1.225,0,0,0-.59-.17c-1.563-.161-4.137-.965-5.647-.384a3.862,3.862,0,0,0-1.332,1.188C1061.158,624.056,1059.425,625.459,1059.425,625.87Z" transform="translate(-304.259 9387.275)" fill="#a1616a"/>
      <path id="Path_834" data-name="Path 834" d="M1056.784,617.92c0-1.5-1.858-5.1,1.081-5.361,0-1.591-2.26-2.591-1.849-4.271.143-.572.6-1.028.67-1.6.188-1.635-2.761-2.52-2.278-4.092.179-.6.831-.965.974-1.572.33-1.412-2.2-2.046-2.242-3.494,0-.491.268-.956.25-1.438,0-.617-.536-1.081-.831-1.608-.76-1.367-.393-3.485-1.787-4.182.893.071,1.242-1.3.849-2.135s-1.162-1.564-1.162-2.493a3.934,3.934,0,0,0,0-1.028c-.259-.894-1.724-.956-1.966-1.85a9.411,9.411,0,0,1,0-1.01c-.089-.7-.8-1.126-1.474-1.331a5.857,5.857,0,0,1-1.966-.7c-.429-.331-.893-.893-1.385-.581-.17.1-.26.295-.393.447-.545.634-1.59.357-2.287-.116-2.046-1.385-3.056-3.878-3.5-6.308s-.42-4.941-.956-7.354a16.818,16.818,0,0,0-.652-2.2,11.356,11.356,0,0,1-1.036-2.2c-.107-1.4,2.805-.447,3.913-.3a17.362,17.362,0,0,1,3.181.6,33.6,33.6,0,0,1,3.243,1.421c4.468,1.957,9.757,2.2,13.313,5.477,1.171,1.081,2.154,2.493,3.664,2.975a18.727,18.727,0,0,1,2.055.536c1.689.8,1.948,3.029,2.868,4.646a9.921,9.921,0,0,1,.759,1.34,5.281,5.281,0,0,1,.241,1.716l.125,4.244a156.712,156.712,0,0,1-.339,21.3c-.25,2.323-.6,4.727.08,6.969.178.608.438,1.188.59,1.787a12.2,12.2,0,0,1,.232,2.207l.1,2.743a.662.662,0,0,1-.876.813c-3.833-.34-7.693-2.5-11.312-1.2" transform="translate(-302.154 9393.842)" fill="#464353"/>
      <path id="Path_835" data-name="Path 835" d="M979.537,612.092a1.18,1.18,0,0,0-.429.358,3.047,3.047,0,0,0,0,3.627,1.233,1.233,0,0,1,.215.357,1.053,1.053,0,0,1-.108.608,2.01,2.01,0,0,0,.277,2.252c.277.232.652.349.831.652.313.518-.125,1.179-.054,1.787.089.8,1.028,1.188,1.787,1.287a1.9,1.9,0,0,0,1.742-.465,1.448,1.448,0,0,0,0-1.582,4.234,4.234,0,0,0-1.18-1.179,1.787,1.787,0,0,0,1.689-1.635,2.538,2.538,0,0,0-1.019-2.225c-.161-.134-.358-.268-.4-.482s.17-.509.366-.715c.893-.893,1.582-3.083-.1-3.574a4.136,4.136,0,0,0-1.787.081c-.429.134-.429.393-.76.572S979.913,611.9,979.537,612.092Z" transform="translate(-296.155 9388.474)" fill="#a1616a"/>
      <path id="Path_836" data-name="Path 836" d="M998.5,543.14a2.948,2.948,0,0,0-2.269,1.144,6.532,6.532,0,0,0-.947,3.038,26.632,26.632,0,0,1-3.574,9.7" transform="translate(-297.562 9395.711)" opacity="0.1"/>
      <path id="Path_837" data-name="Path 837" d="M1002.012,545.88a3.466,3.466,0,0,0-2.966,1.787,9.917,9.917,0,0,0-.751,3.029,16.461,16.461,0,0,1-2.975,6.353" transform="translate(-297.945 9395.42)" opacity="0.1"/>
      <path id="Path_838" data-name="Path 838" d="M330.293,608.466c-.518,5.647,3.744,11.115,2.5,16.637-.268,1.18-.777,2.3-.965,3.485-.509,3.279,1.447,6.389,3.315,9.132l16.029,23.535a15.245,15.245,0,0,0,2.3,2.833c3.074,2.681,7.666,2.439,11.7,3.252a20.058,20.058,0,0,1,7.827,3.467.509.509,0,0,1,.107.706,6.746,6.746,0,0,1-5.826,2.734c-.42.554,0,1.367.581,1.787.893.6,2.046.751,2.216,2.216a2.4,2.4,0,0,1-.295,1.465,4.53,4.53,0,0,1-2.806,1.948c-5.549,1.7-11.553-1.278-15.7-5.361s-7.148-9.177-11.222-13.313c-2.261-2.279-4.825-4.244-7.148-6.46-4.646-4.414-8.247-9.829-11.732-15.19a16.856,16.856,0,0,1-2.538-5.165c-.429-1.841-.232-3.779-.733-5.6-.643-2.377-2.395-4.28-3.842-6.255-2.85-3.914-4.745-8.712-4.369-13.536s3.36-9.6,7.916-11.231a7.087,7.087,0,0,1,4.468-.277c1.867.581,3.243,2.127,4.521,3.574l3.038,3.521a8.111,8.111,0,0,1,1.787,2.68,2.814,2.814,0,0,1-.625,2.993" transform="translate(-47.791 9389.759)" fill="#a1616a"/>
      <path id="Path_839" data-name="Path 839" d="M330.293,608.466c-.518,5.647,3.744,11.115,2.5,16.637-.268,1.18-.777,2.3-.965,3.485-.509,3.279,1.447,6.389,3.315,9.132l16.029,23.535a15.245,15.245,0,0,0,2.3,2.833c3.074,2.681,7.666,2.439,11.7,3.252a20.058,20.058,0,0,1,7.827,3.467.509.509,0,0,1,.107.706,6.746,6.746,0,0,1-5.826,2.734c-.42.554,0,1.367.581,1.787.893.6,2.046.751,2.216,2.216a2.4,2.4,0,0,1-.295,1.465,4.53,4.53,0,0,1-2.806,1.948c-5.549,1.7-11.553-1.278-15.7-5.361s-7.148-9.177-11.222-13.313c-2.261-2.279-4.825-4.244-7.148-6.46-4.646-4.414-8.247-9.829-11.732-15.19a16.856,16.856,0,0,1-2.538-5.165c-.429-1.841-.232-3.779-.733-5.6-.643-2.377-2.395-4.28-3.842-6.255-2.85-3.914-4.745-8.712-4.369-13.536s3.36-9.6,7.916-11.231a7.087,7.087,0,0,1,4.468-.277c1.867.581,3.243,2.127,4.521,3.574l3.038,3.521a8.111,8.111,0,0,1,1.787,2.68,2.814,2.814,0,0,1-.625,2.993" transform="translate(-47.791 9389.759)" fill="#a1616a" opacity="0.05"/>
      <path id="Path_880" data-name="Path 880" d="M384.468,754.4c3.5,2.135,7.863,2.261,11.937,1.787.652-.08,1.43-.134,1.849.375.608.733-.107,1.787-.849,2.412a17.762,17.762,0,0,1-8.2,3.369,55.936,55.936,0,0,1-8.042.536c-7.318.125-14.671.241-21.918-.813a2.9,2.9,0,0,1-1.2-.349,2.269,2.269,0,0,1-.893-1.376,5.477,5.477,0,0,1,1.912-5.218,16.087,16.087,0,0,1,5.111-2.743l6.362-2.475c1.492-.581,3.9-2.126,5.513-2C379.053,748.106,381.939,752.922,384.468,754.4Z" transform="translate(-115.448 9373.904)" fill="#3f3d56"/>
      <path id="Path_899" data-name="Path 899" d="M401.629,770.89a15.627,15.627,0,0,0,10.677,3.985c1,0,2.395.188,2.395,1.188a1.572,1.572,0,0,1-.286.831,9.828,9.828,0,0,1-5.522,4.325,19.656,19.656,0,0,1-6.666.42l-6.523-.339c-1.233-.062-2.475-.125-3.7-.277s-2.555-.4-3.833-.6a51.115,51.115,0,0,0-9.5-.447,2.762,2.762,0,0,1-2.341-.625c-.581-.733-.241-1.787-.054-2.681.393-1.885,0-3.869.366-5.772.625-3.324,3.485-5.879,6.657-7.086,2.931-1.117,8.131-2.395,10.91-.536C397.2,765.252,398.993,768.5,401.629,770.89Z" transform="translate(-148.594 9372.367)" fill="#3f3d56"/>
      <path id="Path_881" data-name="Path 881" d="M411.774,673.143c2.681,3.53,5.361,7.6,4.736,11.964-.357,2.35-1.671,4.423-2.636,6.6a46.543,46.543,0,0,0-2.68,9.274c-.992,4.619-1.984,9.248-2.6,13.93a86.989,86.989,0,0,0-.581,15.994,5.4,5.4,0,0,0,1.117,3.574c.357.358.822.652.974,1.135a1.92,1.92,0,0,1-.206,1.34,14.84,14.84,0,0,1-7.952,7.318,30.452,30.452,0,0,1-10.811,2.019,3.038,3.038,0,0,1-1.447-.187,2.788,2.788,0,0,1-1.117-1.278c-2.681-5.093-1.188-11.24-1.233-16.977,0-4.8-1.161-9.552-.956-14.35.17-3.842,1.2-7.595,1.573-11.428.617-6.255-.536-12.6-1.689-18.808-.894-4.754-1.787-9.516-2.9-14.225a27.127,27.127,0,0,0-3.074-8.256c-1.251-1.975-2.949-3.628-4.378-5.486a24.9,24.9,0,0,1-4.9-18.2c.089-.643,9.2,2.305,9.989,2.681a30.966,30.966,0,0,1,8.935,5.727c2.109,2,3.762,4.682,5.611,6.934q3.914,4.762,7.7,9.578Q407.575,667.541,411.774,673.143Z" transform="translate(-145.855 9385.715)" fill="#464353"/>
      <path id="Path_882" data-name="Path 882" d="M411.774,673.143c2.681,3.53,5.361,7.6,4.736,11.964-.357,2.35-1.671,4.423-2.636,6.6a46.543,46.543,0,0,0-2.68,9.274c-.992,4.619-1.984,9.248-2.6,13.93a86.989,86.989,0,0,0-.581,15.994,5.4,5.4,0,0,0,1.117,3.574c.357.358.822.652.974,1.135a1.92,1.92,0,0,1-.206,1.34,14.84,14.84,0,0,1-7.952,7.318,30.452,30.452,0,0,1-10.811,2.019,3.038,3.038,0,0,1-1.447-.187,2.788,2.788,0,0,1-1.117-1.278c-2.681-5.093-1.188-11.24-1.233-16.977,0-4.8-1.161-9.552-.956-14.35.17-3.842,1.2-7.595,1.573-11.428.617-6.255-.536-12.6-1.689-18.808-.894-4.754-1.787-9.516-2.9-14.225a27.127,27.127,0,0,0-3.074-8.256c-1.251-1.975-2.949-3.628-4.378-5.486a24.9,24.9,0,0,1-4.9-18.2c.089-.643,9.2,2.305,9.989,2.681a30.966,30.966,0,0,1,8.935,5.727c2.109,2,3.762,4.682,5.611,6.934q3.914,4.762,7.7,9.578Q407.575,667.541,411.774,673.143Z" transform="translate(-145.855 9385.715)" opacity="0.05"/>
      <path id="Path_883" data-name="Path 883" d="M427.762,645.449c-.572,2.734-3.226,4.825-3.3,7.622-.062,2.234,1.528,4.11,2.681,6.031a40.447,40.447,0,0,1,2.734,6.2,94.541,94.541,0,0,0,8.042,15.967c1.528,2.431,3.244,5.066,2.886,7.917a11.684,11.684,0,0,1-1.385,3.779l-4.593,9.123a26.181,26.181,0,0,0-2.341,5.763c-.4,1.733-.438,3.574-.67,5.289-.724,5.593-3.342,11.222-1.787,16.646.134.465.625,1.028.992.706-1.519,2.832-2.743,5.692-2.618,8.935.054,1.689.572,3.44-.054,5.012a5.472,5.472,0,0,0-.7,1.912c0,.456.214.893.259,1.349.125,1.286-1.054,2.368-2.287,2.779s-2.573.384-3.815.75c-2.395.715-4.092,2.77-6.147,4.2a12.91,12.91,0,0,1-7.05,2.3,1.786,1.786,0,0,1-1.036-.205,1.7,1.7,0,0,1-.581-1.26,7,7,0,0,1,2.529-6.085,2.816,2.816,0,0,0,.894-.983,2.386,2.386,0,0,0,.089-1.1,81.5,81.5,0,0,1,.268-15.055,23.23,23.23,0,0,0,.232-4.789,19.576,19.576,0,0,1-.384-3.994,20.382,20.382,0,0,1,1.224-3.815c.706-2.278.509-4.727.581-7.148a62.646,62.646,0,0,1,2.019-12.232,9.282,9.282,0,0,1,1.9-4.414c.956-1,2.5-1.948,2.135-3.279a3.784,3.784,0,0,0-.893-1.3,5.237,5.237,0,0,1-1.1-3.994,1.787,1.787,0,0,1-2.055-.965,32.167,32.167,0,0,1-16.155-18.37,5.969,5.969,0,0,0-.724-1.635,7.452,7.452,0,0,0-2.958-1.921c-3.342-1.68-5.647-4.834-7.765-7.917a18.414,18.414,0,0,1-3-5.745,18.927,18.927,0,0,1-.411-4.146l-.188-7.148a4.1,4.1,0,0,1,.134-1.4,3.577,3.577,0,0,1,.777-1.144,13.876,13.876,0,0,1,7.631-4.11c1.957-.349,3.958-.286,5.942-.447,3.842-.322,7.639-1.51,11.49-1.233,6.04.447,11.419,4.637,14.3,9.981C424.563,643.778,425.618,645.386,427.762,645.449Z" transform="translate(-181.196 9386.265)" fill="#464353"/>
      <rect id="Rectangle_872" data-name="Rectangle 872" width="69.72" height="69.72" transform="translate(308.263 10042.542)" fill="#fff"/>
      <path id="Path_884" data-name="Path 884" d="M307.957,693.42c0,7.952-3.726,12.956-9.614,12.956-3.011,0-5.307-1.608-5.709-3.994H292.2a6.254,6.254,0,0,1-6.192,3.851c-5.236,0-8.729-4.2-8.729-10.445,0-6,3.52-10.168,8.658-10.168a6.255,6.255,0,0,1,5.87,3.512h.429v-2.984h4.28v13.894a2.484,2.484,0,0,0,2.681,2.77c2.966,0,4.861-3.574,4.861-9.2,0-8.935-6.7-14.912-16.592-14.912s-16.753,7.148-16.753,17.226c0,10.32,6.9,16.914,17.638,16.914a32.348,32.348,0,0,0,5.834-.5,1.7,1.7,0,0,1,.715,3.315,29.7,29.7,0,0,1-6.719.733c-13.054,0-21.444-8.041-21.444-20.55,0-12.223,8.533-20.613,20.961-20.613C299.674,675.149,307.957,682.609,307.957,693.42Zm-26.045,2.466c0,3.967,1.859,6.37,4.9,6.37,3.2,0,5.218-2.466,5.218-6.37s-2.019-6.317-5.164-6.317-4.95,2.341-4.95,6.317Z" transform="translate(55.783 9381.645)" fill="#232a82"/>
      <ellipse id="Ellipse_2929" data-name="Ellipse 2929" cx="14.859" cy="14.859" rx="14.859" ry="14.859" transform="translate(280.528 9951.486)" fill="#a1616a"/>
      <path id="Path_840" data-name="Path 840" d="M354.654,572.87a19.264,19.264,0,0,1-12.33,8.622l1.117,4.056c1.93,6.987,4.11,14.385,9.507,19.228a8.989,8.989,0,0,1,1.51-6.951,26.324,26.324,0,0,1,5.039-5.272l8.551-7.443a2.33,2.33,0,0,0,.643-.715,2.18,2.18,0,0,0,0-1.626c-1.09-3.4-4.2-5.513-6.719-7.8a23.707,23.707,0,0,1-3.386-3.94C356.834,568.617,355.735,571.057,354.654,572.87Z" transform="translate(-72.643 9392.85)" fill="#a1616a"/>
      <path id="Path_841" data-name="Path 841" d="M426.732,592.829a8.042,8.042,0,0,0,.438,3.279,2.305,2.305,0,0,0,2.681,1.376c-.313-.706.509-1.51,1.278-1.421a2.4,2.4,0,0,1,1.7,1.439,5.36,5.36,0,0,1,.491,3.324c-.241,1.412-1.054,2.761-.84,4.173.17,1.171,1.036,2.341.572,3.44a5.527,5.527,0,0,1-1.108,1.322,3.753,3.753,0,0,0,.4,5.146l-11.615.223c.429,1.939-.447,3.922-1.439,5.638a35.5,35.5,0,0,1-26.466,17.28,2.305,2.305,0,0,1,.554,3.52,3.258,3.258,0,0,1-3.717.214,28.223,28.223,0,0,1-3.19-2.386,9.748,9.748,0,0,0-6.54-1.787c-1.456.134-2.859.6-4.316.679-4.289.232-7.979-2.859-12.08-4.119-3.011-.893-6.415-.893-8.935-2.806a3.543,3.543,0,0,1-1.662-3.449,5.62,5.62,0,0,1,1.251-2.019,35.964,35.964,0,0,0,3.351-6.254,37.338,37.338,0,0,1,8.372-11.2,73.906,73.906,0,0,1,8.292-6.3,14.028,14.028,0,0,1,2.252-1.349,23.045,23.045,0,0,0,3.074-1.251c1.367-.893,2.144-2.368,3.19-3.574,2.3-2.68,5.826-3.9,8.658-6.013,1.894-1.412,3.574-3.27,5.835-3.958,1.1-.331,2.278-.357,3.377-.688,2.5-.759,4.325-2.984,6.782-3.878,1.939-.715,4.083-.527,6.138-.786a14.3,14.3,0,0,0,6.308-2.386,7.588,7.588,0,0,1,2.037-1.2c3.1-.893,3.351,4.843,3.645,6.844C425.964,586.825,426.732,589.818,426.732,592.829Z" transform="translate(-146.615 9392.109)" fill="#3f3d56"/>
      <path id="Path_842" data-name="Path 842" d="M336.26,615.305c-.518,5.638,3.744,11.106,2.5,16.637-.268,1.18-.768,2.3-.956,3.485-.518,3.279,1.439,6.38,3.306,9.123l16.083,23.535a14.293,14.293,0,0,0,2.287,2.833c3.074,2.725,7.666,2.439,11.7,3.261a20.023,20.023,0,0,1,7.836,3.467.509.509,0,0,1,.1.7,6.719,6.719,0,0,1-5.826,2.734c-.42.554,0,1.376.581,1.787.894.6,2.046.759,2.216,2.216a2.484,2.484,0,0,1-.286,1.474,4.574,4.574,0,0,1-2.815,1.948c-5.549,1.7-11.544-1.287-15.7-5.361s-7.148-9.176-11.222-13.313c-2.261-2.287-4.825-4.244-7.148-6.46-4.637-4.467-8.247-9.829-11.732-15.19A16.9,16.9,0,0,1,324.644,643c-.429-1.832-.232-3.78-.733-5.593-.643-2.386-2.386-4.289-3.842-6.255-2.85-3.923-4.744-8.712-4.369-13.546s3.368-9.587,7.916-11.231a7.086,7.086,0,0,1,4.467-.268c1.867.572,3.243,2.118,4.521,3.574l3.047,3.521a8.362,8.362,0,0,1,1.787,2.68,2.815,2.815,0,0,1-.625,2.993" transform="translate(-59.172 9389.031)" fill="#a1616a"/>
      <path id="Path_843" data-name="Path 843" d="M375.6,590.477c2.109.125,4.468.331,5.924,1.787A8.276,8.276,0,0,1,383,594.605c1.447,2.94,2.859,6.022,2.957,9.3.089,2.618-.67,5.182-1.072,7.774-.331,2.153.509,4.351.67,6.531a44.6,44.6,0,0,1-8.435-3.243,28.2,28.2,0,0,0-4.941-2.564c-2.511-.84-6.746.6-9.123,1.787-.134-1.68,1.126-4.6.992-6.254a6.853,6.853,0,0,0-.375-2.082,12.423,12.423,0,0,0-1.26-2.01,8.229,8.229,0,0,1,.742-9.659c2.118-2.386,5.441-3.279,8.613-3.655a37.686,37.686,0,0,1,6.022-.205" transform="translate(-106.621 9390.69)" fill="#3f3d56"/>
      <path id="Path_844" data-name="Path 844" d="M355.877,555.768l.34-2.8c-2.35.6-4.575-1.385-6.076-3.449s-2.886-4.467-5.164-5.361c-2.779-1.045-5.718.625-8.372,2A26.207,26.207,0,0,1,327,549.343a6.8,6.8,0,0,0-1.59.259c-1.724.617-2.547,2.779-2.8,4.745s-.179,4.056-1.028,5.808c-.652,1.322-1.787,2.314-2.43,3.574-1.787,3.511-.062,8.318-1.984,11.767l4.763-4.36c.438-.4,1.054-.822,1.528-.482s.411.894.572,1.313a2.493,2.493,0,0,0,3.386,1.233,9.282,9.282,0,0,0,3.029-2.77,18.512,18.512,0,0,1,7.559-5.727,9.658,9.658,0,0,1,8,.474c2.225,1.26,3.851,4.182,6.576,4.28,3.735.143,5.29-6.808,7.014-9.551a3.387,3.387,0,0,1-.983-4.217C358.352,555.6,355.93,555.339,355.877,555.768Z" transform="translate(-40.913 9395.637)" fill="#464353"/>
      <path id="Path_845" data-name="Path 845" d="M755.135,809.18c-.724-3.065-1.162-5.745-1.162-5.745a11.9,11.9,0,0,0-1.331-5.834v-.84h0v-6.165a20.372,20.372,0,0,1,1.555-3.226c1.108-1.93,0-9.024,0-9.024s-4.11-10-3.118-16.342-8.435-28.172-8.435-28.172a27.851,27.851,0,0,1,.893-6.255,4.519,4.519,0,0,0,.116-1.3.979.979,0,0,0,0-.161v.053c-.143-4.182-3.449-12.027-3.449-12.027l.447-14.939s2.109-8.819-1.331-20.649c-1.206-4.128-1.975-7.425-2.466-9.98-.054-.286-.107-.563-.152-.831,7.086-1.081,12.509-1.984,12.509-1.984s-4.11-17.2-6.889-20.211-4.995-12.464-4.995-12.464-1.447-12.152.894-15.7,2.68-9.677,2.68-9.677,5.361-3.869,6-5.593a28.325,28.325,0,0,0,1.787-7.631c0-2.046-.67-3.869-.447-4.95s-1.555-5.156-.661-7.095a5.192,5.192,0,0,0,.348-1.867.121.121,0,0,0,0-.054h0a26.555,26.555,0,0,0-.473-5.048,14.3,14.3,0,0,0-5.272-2.824l-.116-.456-.3-1.206a4.073,4.073,0,0,0-.527-.313v-2.234l.831-3.931c1.644-6.817-7.47-7.836-7.47-7.836a4.806,4.806,0,0,0-2.582-2.27c-1.787-.643-.3,10.275.554,10.972A35.548,35.548,0,0,1,736.139,571h0l.161.277a3.627,3.627,0,0,0-.42.438l.349,2.368.054.366a9.729,9.729,0,0,0-1.457,2.475,5.281,5.281,0,0,1,1.331,3.878,12.149,12.149,0,0,0,.554,4.727c-.1-.116-1.269-1.385-2.439-1.072s-4.468,1.287-4.468,1.287-2.448.429-2.225.965-1.662,2.9-1.662,2.9l-6.567-6.255c-.071-.188-.134-.375-.2-.563a15,15,0,0,1-.563-2.681,14.573,14.573,0,0,0,2.091-.67,4.53,4.53,0,0,0,1.787-1.162,7.094,7.094,0,0,0,1.054-2.832,39.317,39.317,0,0,1,2.439-5.433,17.675,17.675,0,0,0,1.269-9.695,6.454,6.454,0,0,0-1-2.859c-1.072-1.474-3.02-2.073-4.468-3.253s-2.323-2.966-3.976-3.851a7.836,7.836,0,0,0-4.986-.429,26.643,26.643,0,0,0-9.3,3.377,4.782,4.782,0,0,1-3.118,1.028,4.209,4.209,0,0,1-2.243-1.644.434.434,0,0,1,0-.1l-.08-.08a11.767,11.767,0,0,0-1.019,4.914v1.054a2.019,2.019,0,0,1,0,.232h0a1.576,1.576,0,0,1-.054.349,2.529,2.529,0,0,1-.608.893,3.963,3.963,0,0,0-.536.733.79.79,0,0,1,.089-.268,3.877,3.877,0,0,0-.688,2.064,2.054,2.054,0,0,0,.5,1.483,7.142,7.142,0,0,0,1.063.893,12.506,12.506,0,0,0-.188,2.18,12.706,12.706,0,0,0,6.183,10.838l.223.563a15.626,15.626,0,0,1,1.188,7.148,1.205,1.205,0,0,1-.081.527l-.232.268h0s-10.847.107-13.4-2.207-6.442,5.647-6.442,5.647-3.887.76-4.664,0-5.361-.107-5.361-.107a9.829,9.829,0,0,0-6.773-2.466,19.9,19.9,0,0,0-4.977-2.77h0l-.125-.045h0a5.557,5.557,0,0,0-2.448-.3s-5.361-4.414-6.88-6.773-8.935-11.142-9-11.187v-.42l-.089-1.278a5.034,5.034,0,0,1-.661.062,1.553,1.553,0,0,0-.152-.447,24.143,24.143,0,0,0-1.573-3.574s0-1.608.474-2.01-.2-6.317-.2-6.317-4.807-11.231-9.1-2.85c0,0-8.14,5.423-1.313,11.75,0,0,2.68,1.313,3.109,2.359.259.679,1.18,2.582,1.787,3.842l.277.563-.08.063.107,1.054v.411c-1.287.724-2.153,1.448-1.948,2a11.751,11.751,0,0,1,.777,2.9s9.444,11.821,10.669,16.878c0,0,25.322,15.047,33.649,16.128l-1.438,7.523a59.551,59.551,0,0,0-.331,6.13c.107,1.608-1,8.935-1,8.935s-1.448,10.722-2.681,12.25-1,7.961-1,7.961a53.7,53.7,0,0,1-1.662,9.132,23.206,23.206,0,0,0-.331,9.141s-4.226,9.677,5.888,3.118c0,0,4.959-.3,10.722-.5v2.94c-.072,5.54-.107,13.179.143,18.96.447,10.213,3.574,30.379,3.574,30.379v10.15a14.22,14.22,0,0,0-.286,2.9,18.818,18.818,0,0,0,2.734,10.168l.777,6.773s1.787,4.467,1.858,7.148a3.5,3.5,0,0,1-.08.643,4.8,4.8,0,0,0-.09,1.036c-.1,3.074,1.787,10.436,1.787,10.436s.116,7.416,1.224,7.845c.947.366-1.269,4.28-1.93,5.361a1.821,1.821,0,0,1-.045-.214c-.081.143-.134.223-.134.223a5.21,5.21,0,0,0-.349,1.876,2.68,2.68,0,0,0,1.233,2.609c2.108,1.3,3.243,2.368,1.456,2.8a17.788,17.788,0,0,0-1.957.411c0-.08-.071-.17-.1-.25a1.2,1.2,0,0,0-.7,1.242,5.5,5.5,0,0,0,.67,2.511,26.813,26.813,0,0,0,3,5.486l.893-.1a4.218,4.218,0,0,1-.5.893,3.459,3.459,0,0,1-1.251,1.108,4,4,0,0,1-1.519.527A4.236,4.236,0,0,0,695,806.374c-1.108,1.43-1.787,3.386.384,5.1l7.943,2.734s13.662,1.787,12.938-1.287-1.162-5.745-1.162-5.745a12.128,12.128,0,0,0-1.117-5.442,5.358,5.358,0,0,0-.482-.8l.482-.054s1-6.773,2.332-8.041c.313-.295.384-.527.3-.706.143-.366-.206-.581-.652-.706l-.1.268a6.684,6.684,0,0,0-1.322-.143s-.447-3.574.992-4.843a1.366,1.366,0,0,0,.286-1.054,6.071,6.071,0,0,0-.152-1.448l-.054.089a51.605,51.605,0,0,0-3.19-8.337s-.107-3.225.777-4.521-.107-17.522-.107-17.522.331-7.845-.67-11.5,1.224-7.961,1.224-7.961v-.286s-.054-.482-.134-1.242v.081c-.223-2.082-.643-5.844-.956-7.577-.447-2.475.107-14.3.107-14.3l2-5.048,3.574,8.7,3.771,11.616a9.873,9.873,0,0,1,1.921,4.932v.366a5.817,5.817,0,0,0,0,.777,6.932,6.932,0,0,0,1.152,4.137s1,5.486,2.555,6.88,1.555,4.083,1.555,4.083,1.885,7.961,2.779,9.355c.75,1.179.786,4.414.777,5.361h0v.295s.259,2.841.25,5.236v.831a8.324,8.324,0,0,1-.232,1.93V770.3a19.884,19.884,0,0,0-.572,4.959c-.054,2.859.384,6.255,2.118,8.229,3,3.44,4.887,3.011,4.887,3.011s-1.448,4.3-3.226,5.164a1.092,1.092,0,0,0-.188.116.5.5,0,0,0-.045-.25,2.1,2.1,0,0,0-.518,1.608,11.509,11.509,0,0,0,2.2,6.371,3.521,3.521,0,0,0,1.5.894l-.277.17a6.227,6.227,0,0,1-.616.295,2.909,2.909,0,0,1-.893.232A4.236,4.236,0,0,0,734,802.63c-1.108,1.43-1.787,3.386.384,5.1l7.943,2.734S755.823,812.289,755.135,809.18Z" transform="translate(-140.114 9395.382)" fill="url(#linear-gradient)"/>
      <path id="Path_885" data-name="Path 885" d="M759.28,801.147a21.107,21.107,0,0,0-1.51,3.226v8.5c-2.144,3.574-13.331,2.368-14.832.429s-3.118-6.987-1.4-7.845,3.118-5.164,3.118-5.164-1.787.429-4.727-3.011-2.037-11.07-1.5-12.9,0-7.952,0-7.952.107-4.3-.75-5.7-2.681-9.355-2.681-9.355,0-2.68-1.5-4.083-2.475-6.88-2.475-6.88a7.05,7.05,0,0,1-1.072-4.619c.322-2.681-1.832-5.593-1.832-5.593l-3.654-11.615-3.44-8.712-1.93,5.048s-.545,11.83-.107,14.3,1.072,9.024,1.072,9.024-2.153,4.307-1.179,7.961.643,11.5.643,11.5.965,16.235.107,17.531-.75,4.468-.75,4.468,4.4,9.462,3,10.722-.965,4.843-.965,4.843,3.011,0,1.724,1.286-2.261,8.042-2.261,8.042l-13.018,1.644a27.533,27.533,0,0,1-2.913-5.486c-1.715-3.976.322-3.574,2.055-3.976s.634-1.5-1.412-2.8-.893-4.191-.893-4.191,3.118-5.272,2.046-5.7-1.188-7.845-1.188-7.845-2.144-8.819-1.608-11.178-1.724-8.041-1.724-8.041l-.751-6.773a18.621,18.621,0,0,1-2.323-12.813V736.966s-3.011-20.211-3.449-30.379c-.268-6.541-.2-15.466-.107-21.042.054-3.119.107-5.191.107-5.191l46.462-4.834a38.511,38.511,0,0,0,.849,6.9c.474,2.547,1.215,5.853,2.377,9.98,3.333,11.821,1.3,20.64,1.3,20.64l-.429,14.94s4.083,10,3.226,13.4a28.378,28.378,0,0,0-.894,6.255s9.141,21.828,8.176,28.172,3.02,16.3,3.02,16.3S760.352,799.252,759.28,801.147Z" transform="translate(-147.199 9381.613)" fill="#464353"/>
      <path id="Path_904" data-name="Path 904" d="M737.22,753.215l14.1-1.885S743.349,759.5,737.22,753.215Z" transform="translate(-151.694 9373.54)" opacity="0.05"/>
      <path id="Path_886" data-name="Path 886" d="M750.443,735.87s.491,4.995-2.573,6.88C747.87,742.75,753.347,741.892,750.443,735.87Z" transform="translate(-152.828 9375.187)" opacity="0.1"/>
      <path id="Path_887" data-name="Path 887" d="M747.793,718.06s-11.812,9.73-16.083,8.935S747.793,718.06,747.793,718.06Z" transform="translate(-151.044 9377.084)" opacity="0.1"/>
      <path id="Path_905" data-name="Path 905" d="M716.5,758.55s-8.935,2.046-9.239,5.647S716.5,758.55,716.5,758.55Z" transform="translate(-148.502 9372.771)" opacity="0.1"/>
      <path id="Path_578" data-name="Path 578" d="M706.586,815.78a2.51,2.51,0,0,1-1.162-1.84l-.125.232s-1.188,2.9.893,4.191c.232.143.456.295.661.438.375-.072.786-.125,1.17-.224C709.722,818.184,708.632,817.1,706.586,815.78Z" transform="translate(-148.258 9366.872)"/>
      <path id="Path_579" data-name="Path 579" d="M725,814.816c.349-.322.331-1.152.125-2.216a6,6,0,0,0-.724,3.118,2.387,2.387,0,0,1,.6-.9Z" transform="translate(-150.327 9367.016)"/>
      <path id="Path_580" data-name="Path 580" d="M722.774,755.22a14.8,14.8,0,0,0-.894,3.949,15.607,15.607,0,0,1,.983-2.68A7.988,7.988,0,0,0,722.774,755.22Z" transform="translate(-150.06 9373.126)"/>
      <path id="Path_581" data-name="Path 581" d="M755.362,748.759a5.113,5.113,0,0,0,.116-1.179c-.161.8-.268,1.555-.348,2.207C755.2,749.447,755.273,749.108,755.362,748.759Z" transform="translate(-153.601 9373.939)"/>
      <path id="Path_582" data-name="Path 582" d="M722.5,797.716a6.765,6.765,0,0,0,.322-2.386,7.875,7.875,0,0,0-.616,3.011A2.891,2.891,0,0,1,722.5,797.716Z" transform="translate(-150.095 9368.854)"/>
      <path id="Path_583" data-name="Path 583" d="M723.319,820.68a43,43,0,0,0-1.474,6.6l-13,1.51a26.93,26.93,0,0,1-2.913-5.486,9.6,9.6,0,0,1-.366-.947c-.777.357-1.09,1.161-.062,3.574a26.62,26.62,0,0,0,2.913,5.477l12.992-1.51s.974-6.773,2.261-8.042C724.3,821.171,723.9,820.85,723.319,820.68Z" transform="translate(-148.246 9366.154)"/>
      <path id="Path_584" data-name="Path 584" d="M705.092,786.441s.107,7.425,1.18,7.854h0c.545-1.224.893-2.386.42-2.582-1.072-.429-1.18-7.845-1.18-7.845s-2.153-8.819-1.608-11.187-1.724-8.042-1.724-8.042l-.75-6.773a18.656,18.656,0,0,1-2.368-12.795V734.626s-3.011-20.211-3.44-30.424c-.277-6.541-.2-15.467-.107-21.042v-2.68h-.366s-.054,2.064-.107,5.191c-.089,5.566-.17,14.5.107,21.042.429,10.213,3.44,30.424,3.44,30.424v10.427a18.594,18.594,0,0,0,2.421,12.9l.751,6.773s2.26,5.692,1.715,8.042S705.092,786.441,705.092,786.441Z" transform="translate(-147.192 9381.085)"/>
      <path id="Path_585" data-name="Path 585" d="M748.824,825.9a12.509,12.509,0,0,1-2.055-5.111c-1.331,1.2.2,5.852,1.626,7.693s12.688,3.118,14.841-.438V826C760.324,828.885,750.254,827.732,748.824,825.9Z" transform="translate(-152.656 9366.143)"/>
      <path id="Path_586" data-name="Path 586" d="M767.241,812.9a21.5,21.5,0,0,0-1.5,3.225v1.51c.241-.554.59-1.286,1.072-2.153a6.51,6.51,0,0,0,.474-2.681Z" transform="translate(-154.731 9366.994)"/>
      <path id="Path_587" data-name="Path 587" d="M749.137,812.916a20.694,20.694,0,0,0,1.063-2.555s-1.787.429-4.736-3.011c-2.109-2.5-2.225-7.229-1.93-10.32-.536,1.832-1.4,9.462,1.5,12.9C746.938,812.193,748.359,812.774,749.137,812.916Z" transform="translate(-152.307 9368.674)"/>
      <path id="Path_588" data-name="Path 588" d="M741.337,781.087a59.09,59.09,0,0,1,.215,6.371c.071-.42.152-.76.214-1,.545-1.787,0-7.952,0-7.952s.107-4.307-.75-5.7-2.681-9.355-2.681-9.355,0-2.681-1.5-4.083-2.475-6.88-2.475-6.88a7.048,7.048,0,0,1-1.081-4.619c.331-2.681-1.787-5.593-1.787-5.593l-3.655-11.616L724.351,722l-1.939,5.048s0,.634-.063,1.635l1.573-4.1,3.44,8.7,3.655,11.616s2.144,2.9,1.787,5.584a7.068,7.068,0,0,0,1.117,4.575s.965,5.477,2.466,6.88,1.51,4.083,1.51,4.083,1.787,7.952,2.681,9.355S741.337,781.087,741.337,781.087Z" transform="translate(-150.11 9376.664)"/>
      <path id="Path_846" data-name="Path 846" d="M752.439,565.553l-.8,3.931.045,1.787v1.287l-4.467.465-.5-.893h0a38.015,38.015,0,0,0-3.485-5.629c-.831-.7-2.305-11.615-.536-10.963a4.681,4.681,0,0,1,2.5,2.261S754.029,558.727,752.439,565.553Z" transform="translate(-152.188 9394.394)" fill="#ffcdd3"/>
      <path id="Path_847" data-name="Path 847" d="M752.3,574.328l-4.468.465-.5-.893h0a3.949,3.949,0,0,1,4.95-.813Z" transform="translate(-152.771 9392.579)" opacity="0.1"/>
      <path id="Path_848" data-name="Path 848" d="M753.391,576.5l-5.906,1.376-.125-.893-.339-2.368a4.066,4.066,0,0,1,5.727-.786l.295,1.206Z" transform="translate(-152.738 9392.533)" fill="#dce6f2"/>
      <path id="Path_849" data-name="Path 849" d="M645.2,564.983l-6.308,3.4-.572-1.2c-.608-1.26-1.5-3.154-1.787-3.833-.375-1.045-3.011-2.368-3.011-2.368-6.612-6.317,1.26-11.741,1.26-11.741,4.173-8.39,8.819,2.841,8.819,2.841s.643,5.924.188,6.317-.456,2.019-.456,2.019a24.565,24.565,0,0,1,1.528,3.574C645.1,564.616,645.2,564.983,645.2,564.983Z" transform="translate(-140.369 9395.393)" fill="#ffcdd3"/>
      <path id="Path_850" data-name="Path 850" d="M646.09,567.111l-6.308,3.4-.572-1.2c.893-.742,4.048-3.306,5.084-3.19a7.379,7.379,0,0,0,1.5,0C645.992,566.745,646.09,567.111,646.09,567.111Z" transform="translate(-141.256 9393.265)" opacity="0.1"/>
      <path id="Path_851" data-name="Path 851" d="M646.756,569.075l-7.094,3.494-.143-1.528-.1-1.045s4.11-3.529,5.361-3.4a6.584,6.584,0,0,0,1.859,0l.08,1.278Z" transform="translate(-141.279 9393.213)" fill="#dce6f2"/>
      <path id="Path_852" data-name="Path 852" d="M731.365,593.072s-30.942,3.494-25.161,1.617c4.03-1.313,5.629-3.869,5.969-6.71a16.343,16.343,0,0,0-1.153-7.148,31.076,31.076,0,0,0-2.77-5.593s23.651-13.009,18.924-1.179a18.547,18.547,0,0,0-1.34,5.6,15.792,15.792,0,0,0,.6,5.665A16.9,16.9,0,0,0,731.365,593.072Z" transform="translate(-148.314 9392.947)" fill="#ffcdd3"/>
      <path id="Path_853" data-name="Path 853" d="M727.5,574.049a18.553,18.553,0,0,0-1.34,5.6c-2.234,1.867-4.673,1.787-7.809,1.787-2.412,0-5.084.59-7-.572a31.062,31.062,0,0,0-2.77-5.593S732.231,562.219,727.5,574.049Z" transform="translate(-148.644 9392.947)" opacity="0.1"/>
      <ellipse id="Ellipse_2930" data-name="Ellipse 2930" cx="12.795" cy="12.795" rx="12.795" ry="12.795" transform="translate(556.496 9949.582)" fill="#ffcdd3"/>
      <path id="Path_854" data-name="Path 854" d="M731.365,594.847s-30.942,3.494-25.161,1.617c4.03-1.313,5.629-3.869,5.969-6.71,1.537-1.671,4.628-2.877,6.621-3.511a9.228,9.228,0,0,1,5.6-.089,7.464,7.464,0,0,1,2.037.893A16.9,16.9,0,0,0,731.365,594.847Z" transform="translate(-148.314 9391.172)" opacity="0.1"/>
      <path id="Path_855" data-name="Path 855" d="M753.431,576.72l-5.906,1.376-.125-.893a5.218,5.218,0,0,1,5.683-1.948Z" transform="translate(-152.778 9392.313)" opacity="0.1"/>
      <path id="Path_856" data-name="Path 856" d="M646.767,569.227l-7.094,3.494-.143-1.528a52.2,52.2,0,0,1,7.148-3.163Z" transform="translate(-141.291 9393.061)" opacity="0.1"/>
      <path id="Path_888" data-name="Path 888" d="M742.5,682.368c-11.982,1.885-29.039,4.351-31.746,3.529-2.243-.688-9.409-.617-15.654-.4.054-3.118.107-5.191.107-5.191l46.462-4.834a38.467,38.467,0,0,0,.831,6.9Z" transform="translate(-147.208 9381.619)" opacity="0.1"/>
      <path id="Path_857" data-name="Path 857" d="M748.306,668.12s-39.457,6.773-43.693,5.477-25.974.116-25.974.116c-9.784,6.549-5.692-3.118-5.692-3.118a23.317,23.317,0,0,1,.322-9.141,55.988,55.988,0,0,0,1.608-9.141s-.215-6.451.965-7.952,2.582-12.259,2.582-12.259,1.081-7.309.974-8.935.322-6.12.322-6.12l1.394-7.532c-8.042-1.072-32.577-16.128-32.577-16.128-1.18-5.048-10.32-16.878-10.32-16.878a12.442,12.442,0,0,0-.75-2.9c-.643-1.715,9.033-5.155,9.033-5.155s7.2,8.819,8.7,11.178,6.666,6.773,6.666,6.773a5.209,5.209,0,0,1,2.368.313h.125a19.076,19.076,0,0,1,4.807,2.761,9.319,9.319,0,0,1,6.558,2.475s4.414-.643,5.165.107,4.467,0,4.467,0,3.771-7.952,6.255-5.647,12.965,2.207,12.965,2.207c1.4-1.859,4.8-3.19,6.934-3.878a9.231,9.231,0,0,1,5.6-.089,6.933,6.933,0,0,1,2.216,1.072l6.362,6.255s1.787-2.368,1.617-2.9,2.153-.965,2.153-.965,3.118-.965,4.3-1.3,2.269.965,2.359,1.072a12.593,12.593,0,0,1-.536-4.727,5.361,5.361,0,0,0-1.287-3.869c3.8-9.185,12.295-1.412,12.295-1.412s.965,5.048.107,6.987.893,6.022.643,7.094.429,2.9.429,4.941a29.394,29.394,0,0,1-1.716,7.639c-.652,1.716-5.808,5.585-5.808,5.585s-.322,6.129-2.582,9.677-.893,15.7-.893,15.7,2.144,9.462,4.834,12.509S748.306,668.12,748.306,668.12Z" transform="translate(-141.067 9393.016)" fill="#3f3d56"/>
      <path id="Path_858" data-name="Path 858" d="M696.509,600.084s-1.18-3.574-2.261-3.878a25.42,25.42,0,0,1-3.118-1.394l.7-1.322s4.039,1.108,4.682,2.287S696.509,600.084,696.509,600.084Z" transform="translate(-146.786 9390.35)" opacity="0.1"/>
      <path id="Path_859" data-name="Path 859" d="M671.835,591.746c-.214,1.081-9.775,2.046-9.775,2.046l4.834-4.852h0l.125.045h0A19.073,19.073,0,0,1,671.835,591.746Z" transform="translate(-143.69 9390.834)" opacity="0.1"/>
      <ellipse id="Ellipse_2931" data-name="Ellipse 2931" cx="0.858" cy="0.858" rx="0.858" ry="0.858" transform="translate(499.57 9966.971)" fill="#575988"/>
      <ellipse id="Ellipse_2932" data-name="Ellipse 2932" cx="0.858" cy="0.858" rx="0.858" ry="0.858" transform="translate(500.67 9968.694)" fill="#575988"/>
      <ellipse id="Ellipse_2933" data-name="Ellipse 2933" cx="0.858" cy="0.858" rx="0.858" ry="0.858" transform="translate(501.751 9970.275)" fill="#575988"/>
      <ellipse id="Ellipse_2934" data-name="Ellipse 2934" cx="0.858" cy="0.858" rx="0.858" ry="0.858" transform="translate(502.877 9972)" fill="#575988"/>
      <ellipse id="Ellipse_2935" data-name="Ellipse 2935" cx="0.697" cy="0.697" rx="0.697" ry="0.697" transform="translate(604.379 9972.063)" fill="#575988"/>
      <ellipse id="Ellipse_2936" data-name="Ellipse 2936" cx="0.697" cy="0.697" rx="0.697" ry="0.697" transform="translate(604.486 9973.653)" fill="#575988"/>
      <ellipse id="Ellipse_2937" data-name="Ellipse 2937" cx="0.697" cy="0.697" rx="0.697" ry="0.697" transform="translate(604.575 9975.235)" fill="#575988"/>
      <path id="Path_889" data-name="Path 889" d="M697.21,633.47c-.1-.125,24.125,30.477,42.951,12.795C740.161,646.265,710.425,650.295,697.21,633.47Z" transform="translate(-147.433 9386.092)" opacity="0.1"/>
      <path id="Path_890" data-name="Path 890" d="M681.63,651.28s14.5.393,16.021,4.566v4.342a2.779,2.779,0,0,1-2.681,0c-1.465-.786-10.231-5.245-13.322-3.1Z" transform="translate(-145.774 9384.195)" opacity="0.1"/>
      <path id="Path_891" data-name="Path 891" d="M681.93,651.28s13.867.375,15.324,4.351v4.146a2.68,2.68,0,0,1-2.582,0c-1.4-.76-9.829-5-12.741-2.958Z" transform="translate(-145.806 9384.195)" fill="#3f3d56"/>
      <path id="Path_860" data-name="Path 860" d="M690.49,616a46.717,46.717,0,0,0,5.62,9.641,37.662,37.662,0,0,0,8.81,8.506S690.731,618.028,690.49,616Z" transform="translate(-146.718 9387.952)" opacity="0.1"/>
      <path id="Path_861" data-name="Path 861" d="M685.18,597.18s2.421,10.445,8.649,13.992Z" transform="translate(-146.152 9389.956)" opacity="0.1"/>
      <path id="Path_862" data-name="Path 862" d="M680.974,598.36c-.063-.2-2.153,8.256,8.042,12.938C689.016,611.3,684.709,609.832,680.974,598.36Z" transform="translate(-145.681 9389.831)" opacity="0.1"/>
      <path id="Path_863" data-name="Path 863" d="M751.9,590.519c-.161,0,5.021,3.306,6.433,4.834C758.333,595.353,754.964,590.3,751.9,590.519Z" transform="translate(-153.257 9390.666)" opacity="0.1"/>
      <path id="Path_864" data-name="Path 864" d="M713.912,579a2.726,2.726,0,0,0,.992,1.733,2.8,2.8,0,0,0,1.206.268c3.9.241,7.961.411,11.616-1.09a4.324,4.324,0,0,0,1.787-1.171,6.959,6.959,0,0,0,.947-2.814,43.886,43.886,0,0,1,2.368-5.432,18.254,18.254,0,0,0,1.26-9.757,6.53,6.53,0,0,0-.974-2.859c-1.036-1.474-2.922-2.073-4.289-3.252s-2.252-2.975-3.842-3.86a7.47,7.47,0,0,0-4.825-.429,25.494,25.494,0,0,0-9.006,3.386,4.459,4.459,0,0,1-3.011,1.028,4.136,4.136,0,0,1-2.216-1.7,11.9,11.9,0,0,0-.956,5.567,1.647,1.647,0,0,1-.6,1.733c-.965,1.117-1.564,2.886-.617,4.012.42.491,1.054.759,1.456,1.26.724.894.474,2.189.456,3.342a1.786,1.786,0,0,0,.286,1.135,1.662,1.662,0,0,0,1.582.375,4.327,4.327,0,0,1,1.68-.161,2.832,2.832,0,0,1,1.465,1.126C712.447,573.726,713.153,576.237,713.912,579Z" transform="translate(-148.079 9394.969)" fill="#2d293d"/>
      <path id="Path_612" data-name="Path 612" d="M729.824,579.029a4.229,4.229,0,0,1-1.787,1.162c-3.574,1.51-7.666,1.331-11.562,1.09a2.626,2.626,0,0,1-1.206-.268,2.681,2.681,0,0,1-1-1.724c-.759-2.761-1.457-5.281-3.261-7.568a2.787,2.787,0,0,0-1.465-1.126,4.323,4.323,0,0,0-1.68.161,1.662,1.662,0,0,1-1.581-.375,1.733,1.733,0,0,1-.277-1.135c0-1.152.259-2.448-.465-3.342-.4-.5-1.037-.768-1.456-1.26a2.52,2.52,0,0,1-.241-2.573,2.943,2.943,0,0,0-.188,3.431c.42.491,1.054.759,1.456,1.26.724.893.474,2.189.456,3.342a1.787,1.787,0,0,0,.286,1.135,1.653,1.653,0,0,0,1.582.375,4.327,4.327,0,0,1,1.68-.161,2.833,2.833,0,0,1,1.465,1.126c1.787,2.3,2.5,4.807,3.261,7.568a2.726,2.726,0,0,0,.992,1.733,2.8,2.8,0,0,0,1.206.268c3.9.241,7.961.411,11.615-1.09a4.385,4.385,0,0,0,1.787-1.17,3.4,3.4,0,0,0,.554-1.036A.647.647,0,0,1,729.824,579.029Z" transform="translate(-148.069 9393.695)"/>
      <path id="Path_613" data-name="Path 613" d="M705.172,559.451a1.785,1.785,0,0,0,.393-.652,2.67,2.67,0,0,0,0-.84,11.8,11.8,0,0,1,.6-4.628l-.072-.08a11.793,11.793,0,0,0-.956,5.567A3.75,3.75,0,0,1,705.172,559.451Z" transform="translate(-148.274 9394.635)"/>
      <path id="Path_865" data-name="Path 865" d="M712.62,591.086s15.985,2.118,17.423-.286" transform="translate(-149.074 9390.635)" opacity="0.1"/>
      <path id="Path_866" data-name="Path 866" d="M747.4,583.72s8.872,0,10.829,3.342" transform="translate(-152.778 9391.39)" opacity="0.1"/>
      <path id="Path_900" data-name="Path 900" d="M710.748,844.4l-7.693-2.734c-2.118-1.715-1.438-3.672-.366-5.1a4.048,4.048,0,0,1,3.038-1.528,3.758,3.758,0,0,0,1.474-.527,3.484,3.484,0,0,0,1.215-1.108,5.657,5.657,0,0,0,.894-2.975s8.444-2.466,10.722,0a6.307,6.307,0,0,1,1.027,1.5,12.509,12.509,0,0,1,1.072,5.442s.429,2.68,1.126,5.745S710.748,844.4,710.748,844.4Z" transform="translate(-147.908 9365.232)" fill="#2d293d"/>
      <path id="Path_901" data-name="Path 901" d="M752.858,840.2l-7.684-2.734c-2.127-1.715-1.447-3.672-.375-5.093a4.039,4.039,0,0,1,3.047-1.537,2.778,2.778,0,0,0,.894-.233,4.52,4.52,0,0,0,.59-.295c2.153-1.18,2.1-4.083,2.1-4.083s8.435-2.475,10.722,0a5.987,5.987,0,0,1,.8,1.1,12.277,12.277,0,0,1,1.3,5.844s.429,2.68,1.126,5.745S752.858,840.2,752.858,840.2Z" transform="translate(-152.393 9365.681)" fill="#2d293d"/>
      <path id="Path_902" data-name="Path 902" d="M720.845,830.429a6.307,6.307,0,0,1,1.027,1.5h0L709.22,833.4a5.655,5.655,0,0,0,.893-2.975S718.539,827.963,720.845,830.429Z" transform="translate(-148.712 9365.232)" opacity="0.1"/>
      <path id="Path_903" data-name="Path 903" d="M763.552,827.286v2.368c-1.966,3.244-11.481,2.538-14.242.893a4.558,4.558,0,0,0,.59-.295c2.153-1.179,2.1-4.083,2.1-4.083s8.435-2.475,10.722,0A5.981,5.981,0,0,1,763.552,827.286Z" transform="translate(-152.981 9365.688)" opacity="0.1"/>
      <path id="Path_906" data-name="Path 906" d="M718.651,808.72s-12.679,2.368-9.078,3.985a61.485,61.485,0,0,0,9.516,2.895S723.172,815.814,718.651,808.72Z" transform="translate(-148.681 9367.428)" opacity="0.05"/>
    </g>
    <g id="RectBoxes" transform="translate(-125 9347)" opacity="0.41">
      <rect id="Rectangle_807" data-name="Rectangle 807" width="143" height="143" rx="25" transform="translate(758.673 386.286) rotate(45)" fill="#489ae2" opacity="0.17"/>
      <rect id="Rectangle_808" data-name="Rectangle 808" width="143" height="143" rx="25" transform="translate(875 502.958) rotate(45)" fill="#489ae2" opacity="0.17"/>
      <rect id="Rectangle_809" data-name="Rectangle 809" width="143" height="143" rx="25" transform="translate(291.327 619.631) rotate(45)" fill="#489ae2" opacity="0.17"/>
      <rect id="Rectangle_810" data-name="Rectangle 810" width="143" height="143" rx="25" transform="translate(525.327 619.631) rotate(45)" fill="#489ae2" opacity="0.17"/>
      <rect id="Rectangle_811" data-name="Rectangle 811" width="143" height="143" rx="25" transform="translate(58.327 619.631) rotate(45)" fill="#489ae2" opacity="0.17"/>
      <rect id="Rectangle_812" data-name="Rectangle 812" width="143" height="143" rx="25" transform="translate(408 502.958) rotate(45)" fill="#489ae2" opacity="0.17"/>
      <rect id="Rectangle_813" data-name="Rectangle 813" width="143" height="143" rx="25" transform="translate(642 502.958) rotate(45)" fill="#489ae2" opacity="0.17"/>
      <rect id="Rectangle_814" data-name="Rectangle 814" width="143" height="143" rx="25" transform="translate(175 502.958) rotate(45)" fill="#489ae2" opacity="0.17"/>
      <rect id="Rectangle_815" data-name="Rectangle 815" width="143" height="143" rx="25" transform="translate(-58 502.958) rotate(45)" fill="#489ae2" opacity="0.17"/>
      <rect id="Rectangle_816" data-name="Rectangle 816" width="143" height="143" rx="25" transform="translate(524.673 386.286) rotate(45)" fill="#489ae2" opacity="0.17"/>
      <rect id="Rectangle_817" data-name="Rectangle 817" width="143" height="143" rx="25" transform="translate(291.673 386.286) rotate(45)" fill="#489ae2" opacity="0.17"/>
    </g>
  </g>
</svg>
