<svg xmlns="http://www.w3.org/2000/svg" width="1920" height="5424" viewBox="0 0 1920 5424">
  <g id="PEOIll2" transform="translate(0 -5731)">
    <g id="Ellipse_2938" data-name="Ellipse 2938" transform="translate(1234 10242)" fill="none" stroke="#232a82" stroke-width="9" opacity="0.55">
      <ellipse cx="228.5" cy="229" rx="228.5" ry="229" stroke="none"/>
      <ellipse cx="228.5" cy="229" rx="224" ry="224.5" fill="none"/>
    </g>
    <g id="Subtraction_2" data-name="Subtraction 2" transform="translate(-13898 6413)" fill="#233187" opacity="0.84">
      <path d="M 15491.4453125 4240.166015625 C 15491.4833984375 4238.443359375 15491.501953125 4236.7197265625 15491.501953125 4235.0009765625 C 15491.501953125 4158.36279296875 15453.9853515625 4086.78515625 15391.0302734375 4043.07421875 C 15385.9765625 3962.97216796875 15339.888671875 3890.990966796875 15269.6484375 3852.7314453125 C 15282.2763671875 3847.111083984375 15295.4267578125 3842.6689453125 15308.8564453125 3839.492919921875 C 15325.6748046875 3835.51611328125 15343.05078125 3833.49951171875 15360.5009765625 3833.49951171875 C 15375.701171875 3833.49951171875 15390.890625 3835.033935546875 15405.646484375 3838.06005859375 C 15420.0263671875 3841.009033203125 15434.1708984375 3845.4091796875 15447.6865234375 3851.138427734375 C 15460.9580078125 3856.7646484375 15473.759765625 3863.72802734375 15485.734375 3871.83544921875 C 15497.5966796875 3879.86767578125 15508.751953125 3889.09130859375 15518.888671875 3899.250244140625 C 15529.0283203125 3909.412353515625 15538.232421875 3920.592041015625 15546.244140625 3932.478515625 C 15554.3359375 3944.482666015625 15561.28515625 3957.3125 15566.8974609375 3970.611572265625 C 15572.6142578125 3984.157958984375 15577.005859375 3998.33447265625 15579.9482421875 4012.748046875 C 15582.96875 4027.53466796875 15584.5 4042.75927734375 15584.5 4057.99951171875 C 15584.5 4077.17724609375 15582.0849609375 4096.22216796875 15577.3203125 4114.60498046875 C 15572.697265625 4132.44384765625 15565.857421875 4149.69677734375 15556.990234375 4165.88427734375 C 15548.2734375 4181.7958984375 15537.615234375 4196.6533203125 15525.3095703125 4210.04443359375 C 15515.056640625 4221.20068359375 15503.6943359375 4231.3046875 15491.4453125 4240.166015625 Z" stroke="none"/>
      <path d="M 15495.970703125 4231.11279296875 C 15505.263671875 4223.79541015625 15513.9765625 4215.7255859375 15521.99609375 4207 C 15534.0556640625 4193.8759765625 15544.501953125 4179.3154296875 15553.04296875 4163.72265625 C 15561.732421875 4147.86083984375 15568.4345703125 4130.95556640625 15572.96484375 4113.47607421875 C 15577.6328125 4095.4619140625 15580 4076.796875 15580 4057.99951171875 C 15580 4043.06103515625 15578.4990234375 4028.139404296875 15575.5390625 4013.648193359375 C 15572.65625 3999.525146484375 15568.353515625 3985.634521484375 15562.7509765625 3972.361328125 C 15557.251953125 3959.329345703125 15550.4423828125 3946.75732421875 15542.5126953125 3934.993896484375 C 15534.66015625 3923.3447265625 15525.640625 3912.38818359375 15515.703125 3902.428955078125 C 15505.7685546875 3892.47265625 15494.8369140625 3883.433349609375 15483.2109375 3875.561767578125 C 15471.4775390625 3867.617431640625 15458.9345703125 3860.79443359375 15445.9296875 3855.28173828125 C 15432.6884765625 3849.66845703125 15418.8310546875 3845.357421875 15404.7431640625 3842.468505859375 C 15390.283203125 3839.503173828125 15375.3984375 3837.99951171875 15360.5009765625 3837.99951171875 C 15343.3994140625 3837.99951171875 15326.3720703125 3839.975341796875 15309.892578125 3843.872314453125 C 15299.66015625 3846.2919921875 15289.59375 3849.4619140625 15279.8037109375 3853.341796875 C 15346.2666015625 3892.9580078125 15389.755859375 3962.92529296875 15395.3740234375 4040.6240234375 C 15457.412109375 4084.53271484375 15494.734375 4155.193359375 15495.970703125 4231.11279296875 M 15486.580078125 4249.0146484375 L 15486.580078125 4249.0126953125 C 15486.8603515625 4244.3857421875 15487.001953125 4239.67138671875 15487.001953125 4235.0009765625 C 15487.001953125 4159.11181640625 15449.4931640625 4088.28369140625 15386.666015625 4045.534912109375 C 15382.251953125 3963.0986328125 15333.5234375 3889.143310546875 15259.4970703125 3852.528564453125 C 15274.884765625 3844.916259765625 15291.1435546875 3839.0576171875 15307.8212890625 3835.11376953125 C 15324.978515625 3831.056640625 15342.7021484375 3828.99951171875 15360.5009765625 3828.99951171875 C 15376.00390625 3828.99951171875 15391.4970703125 3830.564697265625 15406.55078125 3833.65185546875 C 15421.22265625 3836.66064453125 15435.6533203125 3841.150146484375 15449.4423828125 3846.995361328125 C 15462.9814453125 3852.734619140625 15476.041015625 3859.83837890625 15488.2568359375 3868.109130859375 C 15500.3564453125 3876.3017578125 15511.734375 3885.709716796875 15522.07421875 3896.07177734375 C 15532.4150390625 3906.435791015625 15541.802734375 3917.838623046875 15549.9755859375 3929.96337890625 C 15558.2275390625 3942.204833984375 15565.31640625 3955.292236328125 15571.04296875 3968.862060546875 C 15576.8759765625 3982.681884765625 15581.35546875 3997.14453125 15584.357421875 4011.847900390625 C 15587.4384765625 4026.93212890625 15589 4042.459716796875 15589 4057.99951171875 C 15589 4077.55810546875 15586.5361328125 4096.982421875 15581.6767578125 4115.73388671875 C 15576.9609375 4133.9306640625 15569.9833984375 4151.53125 15560.9365234375 4168.04638671875 C 15552.0458984375 4184.2763671875 15541.173828125 4199.43115234375 15528.623046875 4213.08935546875 C 15516.1025390625 4226.712890625 15501.9580078125 4238.7998046875 15486.58203125 4249.013671875 L 15486.580078125 4249.0146484375 Z" stroke="none" fill="#232a82"/>
    </g>
    <g id="Ellipse_2943" data-name="Ellipse 2943" transform="translate(1131 10419)" fill="none" stroke="#f60" stroke-width="9" opacity="0.55">
      <circle cx="229" cy="229" r="229" stroke="none"/>
      <circle cx="229" cy="229" r="224.5" fill="none"/>
    </g>
    <g id="Ellipse_2939" data-name="Ellipse 2939" transform="translate(1032 10242)" fill="none" stroke="#63b4fa" stroke-width="9" opacity="0.55">
      <ellipse cx="228.5" cy="229" rx="228.5" ry="229" stroke="none"/>
      <ellipse cx="228.5" cy="229" rx="224" ry="224.5" fill="none"/>
    </g>
    <text id="Statutory_Regulatory_and_Taxes" data-name="Statutory, 
Regulatory 
and Taxes" transform="translate(1215 10600)" fill="#233187" font-size="21" font-family="Poppins-Medium, Poppins" font-weight="500"><tspan x="-53.582" y="0">Statutory, </tspan><tspan x="-59.965" y="30">Regulatory </tspan><tspan x="-53.917" y="60">and Taxes</tspan></text>
    <text id="Payroll_Administration" data-name="Payroll &amp;
Administration" transform="translate(1496 10625)" fill="#233187" font-size="21" font-family="Poppins-Medium, Poppins" font-weight="500"><tspan x="-45.244" y="0">Payroll &amp;</tspan><tspan x="-78.414" y="30">Administration</tspan></text>
    <text id="Co_employment" data-name="Co employment" transform="translate(1362 10532)" fill="#233187" font-size="25" font-family="Poppins-Medium, Poppins" font-weight="500"><tspan x="-101.825" y="0">Co employment</tspan></text>
    <text id="Project_Management_Deliverables" data-name="Project 
Management 
&amp; Deliverables" transform="translate(1363 10343)" fill="#233187" font-size="21" font-family="Poppins-Medium, Poppins" font-weight="500"><tspan x="-39.281" y="0">Project </tspan><tspan x="-74.539" y="30">Management </tspan><tspan x="-74.834" y="60">&amp; Deliverables</tspan></text>
    <text id="Employee" transform="translate(1584 10441)" fill="#fff" font-size="29" font-family="Poppins-Medium, Poppins" font-weight="500"><tspan x="-71.775" y="0">Employee</tspan></text>
    <g id="Subtraction_3" data-name="Subtraction 3" transform="translate(1032 10242)" fill="#63b4fa" opacity="0.84">
      <path d="M 94.51824188232422 408.9302673339844 C 82.68634796142578 400.0645751953125 71.72208404541016 390.0262756347656 61.83756256103516 379.0022583007813 C 49.90017700195313 365.6887512207031 39.56756591796875 350.9698791503906 31.12678718566895 335.2544250488281 C 22.53823089599609 319.2635498046875 15.91584205627441 302.249755859375 11.44356441497803 284.6856994628906 C 6.836175441741943 266.5910949707031 4.500064373016357 247.8555908203125 4.500064373016357 228.9996490478516 C 4.500064373016357 213.7639312744141 6.031342029571533 198.539306640625 9.051397323608398 183.7486419677734 C 11.99417495727539 169.3363189697266 16.38523101806641 155.1596984863281 22.10256385803223 141.6125946044922 C 27.71645355224609 128.3108062744141 34.66511917114258 115.4809265136719 42.75561904907227 103.4792556762695 C 50.76995468139648 91.59064483642578 59.97384262084961 80.41108703613281 70.11167907714844 70.25114440917969 C 80.24922943115234 60.09136962890625 91.40412139892578 50.86753463745117 103.2665100097656 42.83586883544922 C 115.2408981323242 34.72842407226563 128.0419006347656 27.76503562927246 141.3138427734375 22.13920211791992 C 154.8293914794922 16.40997886657715 168.9735717773438 12.0098123550415 183.3534545898438 9.060812950134277 C 198.1102294921875 6.03447961807251 213.2997894287109 4.500035285949707 228.5001678466797 4.500035285949707 C 245.9443359375 4.500035285949707 263.3186645507813 6.517090797424316 280.1404418945313 10.49520206451416 C 293.5709838867188 13.67128658294678 306.7216796875 18.11277008056641 319.348388671875 23.73177909851074 C 249.8563537597656 61.60309600830078 203.8336334228516 132.7636260986328 198.1129302978516 211.9305267333984 C 133.187744140625 255.4517364501953 94.50000762939453 327.8277587890625 94.50000762939453 405.9999389648438 C 94.50000762939453 406.9742736816406 94.506103515625 407.9515991210938 94.51824188232422 408.9302673339844 Z" stroke="none"/>
      <path d="M 90.08096313476563 399.7496948242188 C 92.06492614746094 323.2034912109375 130.4334564208984 252.7297668457031 193.7928314208984 209.4209594726563 C 200.0580902099609 132.6803588867188 243.4704284667969 63.55222320556641 309.1957702636719 24.34385681152344 C 299.406494140625 20.46461296081543 289.338134765625 17.29439926147461 279.1048583984375 14.87441730499268 C 262.6221008300781 10.97647953033447 245.5962219238281 9.000041961669922 228.5001678466797 9.000041961669922 C 213.6026611328125 9.000041961669922 198.71728515625 10.50360488891602 184.2574768066406 13.46904182434082 C 170.1693420410156 16.35822868347168 156.3119049072266 20.66922950744629 143.0700378417969 26.2823543548584 C 130.06591796875 31.7946662902832 117.5229110717773 38.61772918701172 105.7894744873047 46.56216812133789 C 94.16422271728516 54.43323135375977 83.23222351074219 63.47279357910156 73.29709625244141 73.42973327636719 C 63.36153793334961 83.38691711425781 54.34128570556641 94.34329223632813 46.48697280883789 105.9946670532227 C 38.55878448486328 117.7554779052734 31.74959945678711 130.3277893066406 26.24847412109375 143.3622894287109 C 20.6464729309082 156.635986328125 16.34397315979004 170.5267944335938 13.46041107177734 184.6488494873047 C 10.50072383880615 199.1442260742188 9.000036239624023 214.0659790039063 9.000036239624023 228.9996032714844 C 9.000036239624023 247.4814758300781 11.28934860229492 265.8433532714844 15.80441093444824 283.5753479003906 C 20.18647384643555 300.78515625 26.67547416687012 317.4561767578125 35.09115982055664 333.1251525878906 C 43.36291122436523 348.5259704589844 53.48897552490234 362.9505310058594 65.18791198730469 375.9981079101563 C 72.85636138916016 384.550537109375 81.18911743164063 392.4985656738281 90.08096313476563 399.7496948242188 M 99.30435180664063 417.9079284667969 L 99.30265808105469 417.9068603515625 C 84.35428619384766 407.6188049316406 70.62197113037109 395.5401000976563 58.48709869384766 382.00634765625 C 46.31122207641602 368.4269104003906 35.77209854125977 353.4136657714844 27.16241073608398 337.3836669921875 C 18.40097427368164 321.0708618164063 11.64516162872314 303.7142944335938 7.082724094390869 285.7961120605469 C 2.382973909378052 267.3388671875 3.637695408542641e-05 248.229736328125 3.637695408542641e-05 228.9996032714844 C 3.637695408542641e-05 213.4622955322266 1.561973929405212 197.9347991943359 4.642348766326904 182.8483581542969 C 7.64453649520874 168.1452941894531 12.124098777771 153.6829223632813 17.95666122436523 139.8628540039063 C 23.68347358703613 126.2936019897461 30.77159881591797 113.206169128418 39.02428817749023 100.9639205932617 C 47.19860076904297 88.83791351318359 56.58616256713867 77.43522644042969 66.92622375488281 67.07266998291016 C 77.26622009277344 56.70998001098633 88.64403533935547 47.30191802978516 100.7435989379883 39.10966873168945 C 112.9589767456055 30.83897972106934 126.0179138183594 23.73535537719727 139.5576019287109 17.99604225158691 C 153.3474731445313 12.15060424804688 167.7783508300781 7.661229610443115 182.4494171142578 4.652542114257813 C 197.5029754638672 1.565354466438293 212.9967193603516 4.199218892608769e-05 228.5001678466797 4.199218892608769e-05 C 246.292724609375 4.199218892608769e-05 264.0154724121094 2.057729482650757 281.1760864257813 6.115979671478271 C 297.8569030761719 10.06072902679443 314.1152954101563 15.91891670227051 329.4995422363281 23.52785491943359 C 256.2339782714844 59.77079010009766 207.5525970458984 132.9275360107422 202.4532165527344 214.4511108398438 C 137.6739044189453 256.9947814941406 98.99997711181641 328.6015319824219 98.99997711181641 405.9999084472656 C 98.99997711181641 409.9553527832031 99.10234832763672 413.961181640625 99.30422210693359 417.9059143066406 L 99.30435180664063 417.9079284667969 Z" stroke="none" fill="#63b4fa"/>
    </g>
    <text id="Client" transform="translate(1142 10443)" fill="#fff" font-size="36" font-family="Poppins-Medium, Poppins" font-weight="500"><tspan x="-52.632" y="0">Client</tspan></text>
    <g id="Subtraction_4" data-name="Subtraction 4" transform="translate(1032 10242)" fill="#f60" opacity="0.71">
      <path d="M 327.9995422363281 630.5004272460938 C 313.2408447265625 630.5004272460938 298.4827880859375 629.059814453125 284.1353454589844 626.218505859375 C 270.1466064453125 623.4484252929688 256.3626098632813 619.3110961914063 243.1660308837891 613.9214477539063 C 230.2081604003906 608.6292724609375 217.6690368652344 602.0701904296875 205.8970336914063 594.4262084960938 C 194.2429046630859 586.8587036132813 183.2242889404297 578.1527099609375 173.1472778320313 568.5501708984375 C 163.0820922851563 558.9589233398438 153.8614044189453 548.3826904296875 145.7412261962891 537.115234375 C 137.5580291748047 525.7604370117188 130.4122772216797 513.5914306640625 124.5024719238281 500.9462280273438 C 118.4965362548828 488.0956726074219 113.7010955810547 474.610107421875 110.2494125366211 460.8641052246094 C 107.4439392089844 449.692138671875 105.4977798461914 438.2318725585938 104.4412002563477 426.686767578125 C 141.5668029785156 450.1447448730469 184.2629547119141 462.5000915527344 228.5000915527344 462.5000915527344 C 263.9046936035156 462.5000915527344 297.8730773925781 454.7566528320313 329.4999084472656 439.4810485839844 C 361.1268005371094 454.7566528320313 395.0951843261719 462.5000915527344 430.4997863769531 462.5000915527344 C 473.4026184082031 462.5000915527344 514.9937133789063 450.8299865722656 551.3690185546875 428.6644592285156 C 550.2180786132813 440.1189880371094 548.189453125 451.4840087890625 545.3147583007813 462.5596618652344 C 541.7783203125 476.1856079101563 536.9168701171875 489.548095703125 530.8653564453125 502.2759094238281 C 524.9086303710938 514.803955078125 517.7337646484375 526.8558959960938 509.5400390625 538.096923828125 C 501.4069213867188 549.2545166015625 492.1893615722656 559.7244262695313 482.1432189941406 569.2157592773438 C 472.0833435058594 578.7200927734375 461.0952758789063 587.3351440429688 449.4842834472656 594.8215942382813 C 437.7552185058594 602.3839721679688 425.269287109375 608.8723754882813 412.373291015625 614.1064453125 C 399.2400817871094 619.4366455078125 385.5269775390625 623.528076171875 371.6147155761719 626.26708984375 C 357.3465881347656 629.0761108398438 342.6723327636719 630.5004272460938 327.9995422363281 630.5004272460938 Z" stroke="none"/>
      <path d="M 327.9995422363281 626.0004272460938 C 342.3812866210938 626.0004272460938 356.7630920410156 624.6046142578125 370.7454223632813 621.8518676757813 C 384.3766784667969 619.168212890625 397.8129577636719 615.159423828125 410.6808776855469 609.9368896484375 C 423.317626953125 604.8079833984375 435.552490234375 598.449951171875 447.0456848144531 591.03955078125 C 458.4250793457031 583.7025146484375 469.1938171386719 575.2593383789063 479.0528259277344 565.9447631835938 C 488.8988952636719 556.6423950195313 497.9327392578125 546.3812255859375 505.903564453125 535.4462890625 C 513.9331665039063 524.4304809570313 520.9641723632813 512.6202392578125 526.80126953125 500.3436279296875 C 532.7305297851563 487.8729553222656 537.4939575195313 474.7802124023438 540.9591674804688 461.4290771484375 C 543.0297241210938 453.4515991210938 544.6524658203125 445.3195190429688 545.8148803710938 437.1124267578125 C 510.6635131835938 456.7162170410156 471.1581420898438 467.0001525878906 430.499755859375 467.0001525878906 C 395.1403503417969 467.0001525878906 361.1844482421875 459.4218444824219 329.4999389648438 444.4676818847656 C 297.8154296875 459.4218444824219 263.8595581054688 467.0001525878906 228.5000915527344 467.0001525878906 C 186.5079650878906 467.0001525878906 145.8830108642578 456.0811157226563 109.9309921264648 435.2674865722656 C 111.0298767089844 443.5345153808594 112.5946807861328 451.72705078125 114.613883972168 459.7680969238281 C 117.9958877563477 473.2365417480469 122.6945495605469 486.4498291015625 128.5792236328125 499.0409545898438 C 134.3702239990234 511.431884765625 141.3726196289063 523.356689453125 149.3918914794922 534.4842529296875 C 157.3500823974609 545.5267944335938 166.3870239257813 555.8922119140625 176.2516174316406 565.2924194335938 C 186.1276245117188 574.7034912109375 196.9263458251953 583.235595703125 208.3477478027344 590.6520385742188 C 219.8831481933594 598.1423950195313 232.1701507568359 604.56982421875 244.8674163818359 609.7554931640625 C 257.7974243164063 615.0361938476563 271.3031616210938 619.0900268554688 285.0094909667969 621.8042602539063 C 299.0698852539063 624.588623046875 313.5338134765625 626.0004272460938 327.9995422363281 626.0004272460938 M 327.9995422363281 635.0004272460938 C 312.9482727050781 635.0004272460938 297.8960876464844 633.5309448242188 283.2611389160156 630.6328125 C 268.9898071289063 627.8067016601563 254.9274139404297 623.5857543945313 241.4646148681641 618.08740234375 C 228.2456207275391 612.6885986328125 215.4544219970703 605.9976196289063 203.4463500976563 598.2003173828125 C 191.5592803955078 590.4815673828125 180.3207550048828 581.6018676757813 170.0428771972656 571.8079833984375 C 159.7771453857422 562.0255126953125 150.3726196289063 551.2384033203125 142.0904235839844 539.7462158203125 C 133.7432250976563 528.1636962890625 126.4541473388672 515.75048828125 120.4257507324219 502.8515625 C 114.2984848022461 489.7414245605469 109.4062805175781 475.9834899902344 105.8848876953125 461.9600219726563 C 102.2797546386719 447.6033630371094 100.0656814575195 432.7821044921875 99.30442047119141 417.907958984375 C 137.4147491455078 444.1361694335938 182.08935546875 458.0001525878906 228.5000915527344 458.0001525878906 C 263.9524230957031 458.0001525878906 297.9336853027344 450.084228515625 329.4999389648438 434.4723510742188 C 361.0662231445313 450.084228515625 395.0471496582031 458.0001525878906 430.499755859375 458.0001525878906 C 475.5715637207031 458.0001525878906 519.1687622070313 444.8653564453125 556.5782470703125 420.0157470703125 C 555.6868286132813 434.7724914550781 553.3623046875 449.4663696289063 549.6704711914063 463.6901550292969 C 546.0625 477.591552734375 541.1029052734375 491.2237548828125 534.9293212890625 504.2081604003906 C 528.8529663085938 516.9879760742188 521.5342407226563 529.2816162109375 513.176513671875 540.7476196289063 C 504.8811645507813 552.1278076171875 495.4798278808594 562.8063354492188 485.2336120605469 572.4867553710938 C 474.9730834960938 582.1807861328125 463.7656860351563 590.9676513671875 451.9227600097656 598.6035766601563 C 439.9582824707031 606.3178100585938 427.2213439941406 612.9365844726563 414.0656127929688 618.2761840820313 C 400.66748046875 623.7138671875 386.6774291992188 627.8880004882813 372.4839477539063 630.682373046875 C 357.9302062988281 633.547607421875 342.9634704589844 635.0004272460938 327.9995422363281 635.0004272460938 Z" stroke="none" fill="#f60"/>
    </g>
    <text id="InfoPro_HR" data-name="InfoPro HR" transform="translate(1369 10781)" fill="#fff" font-size="36" font-family="Poppins-Medium, Poppins" font-weight="500"><tspan x="-90.954" y="0">InfoPro HR</tspan></text>
    <g id="SSIll3">
      <rect id="Background" width="1920" height="5424" transform="translate(0 5731)" fill="none"/>
      <rect id="Rectangle_882" data-name="Rectangle 882" width="214" height="214" rx="107" transform="translate(279.042 7353.064) rotate(45)" fill="none" stroke="#63b4fa" stroke-width="20"/>
      <rect id="Rectangle_996" data-name="Rectangle 996" width="56" height="56" transform="translate(277.577 7370)" fill="#fff"/>
      <rect id="Rectangle_883" data-name="Rectangle 883" width="214" height="214" rx="107" transform="translate(381.042 7164.064) rotate(45)" fill="none" stroke="#63b4fa" stroke-width="20"/>
      <text id="Full_Time_Staffing" data-name="Full
Time
Staffing" transform="translate(278 7093)" fill="#0c1475" font-size="30" font-family="Poppins-Medium, Poppins" font-weight="500"><tspan x="-31.26" y="0">FULL</tspan><tspan x="-32.625" y="37">TIME</tspan><tspan x="-68.565" y="74">STAFFING</tspan></text>
      <text id="Temporary_Staffing" data-name="Temporary
Staffing" transform="translate(380 7313)" fill="#0c1475" font-size="30" font-family="Poppins-Medium, Poppins" font-weight="500"><tspan x="-86.91" y="0">TEMPORARY</tspan><tspan x="-68.565" y="37">STAFFING</tspan></text>
      <text id="Hire_Manage_Transfer" data-name="Hire,
Manage,
Transfer" transform="translate(280 7475)" fill="#0c1475" font-size="30" font-family="Poppins-Medium, Poppins" font-weight="500"><tspan x="-33.855" y="0">HIRE,</tspan><tspan x="-66.345" y="37">MANAGE,</tspan><tspan x="-71.07" y="74">TRANSFER</tspan></text>
      <rect id="Rectangle_995" data-name="Rectangle 995" width="56" height="56" transform="translate(329 7180)" fill="#fff"/>
      <rect id="Rectangle_884" data-name="Rectangle 884" width="214" height="214" rx="107" transform="translate(279.042 6975.064) rotate(45)" fill="none" stroke="#63b4fa" stroke-width="20"/>
      <path id="Polygon_16" data-name="Polygon 16" d="M23.261,3.06a2,2,0,0,1,3.478,0L48.3,41.012A2,2,0,0,1,46.563,44H3.437A2,2,0,0,1,1.7,41.012Z" transform="translate(309 7189)" fill="#63b4fa"/>
      <path id="Path_976" data-name="Path 976" d="M-14610.78,3385.513l-9.094,17.511,19.364.842s-22.058,27.277-21.553,26.267-25.089-47.146-25.089-47.146Z" transform="translate(14930 3829)" fill="#fff"/>
      <path id="Path_977" data-name="Path 977" d="M-14660.1,3377.253v51.439l35.68-28.018Z" transform="translate(14731.835 3067.347) rotate(-3)" fill="#fff"/>
      <path id="Polygon_17" data-name="Polygon 17" d="M23.261,3.061a2,2,0,0,1,3.478,0L48.3,41.012A2,2,0,0,1,46.563,44H3.437A2,2,0,0,1,1.7,41.012Z" transform="translate(303.577 7379)" fill="#63b4fa"/>
      <path id="Path_978" data-name="Path 978" d="M-14636.882,3385.513l9.094,17.511-19.364.842s22.058,27.277,21.553,26.267,25.089-47.146,25.089-47.146Z" transform="translate(14980.238 4019)" fill="#fff"/>
      <path id="Path_979" data-name="Path 979" d="M0,51.439V0l35.68,28.018Z" transform="translate(391.307 7448.591) rotate(-177)" fill="#fff"/>
    </g>
  </g>
</svg>
