<svg xmlns="http://www.w3.org/2000/svg" width="1920" height="5424" viewBox="0 0 1920 5424">
  <g id="SSIll3" transform="translate(0 -5731)">
    <rect id="Background" width="1920" height="5424" transform="translate(0 5731)" fill="none"/>
    <rect id="Rectangle_882" data-name="Rectangle 882" width="214" height="214" rx="107" transform="translate(279.042 7353.064) rotate(45)" fill="none" stroke="#63b4fa" stroke-width="20"/>
    <rect id="Rectangle_996" data-name="Rectangle 996" width="56" height="56" transform="translate(277.577 7370)" fill="#fff"/>
    <rect id="Rectangle_883" data-name="Rectangle 883" width="214" height="214" rx="107" transform="translate(381.042 7164.064) rotate(45)" fill="none" stroke="#63b4fa" stroke-width="20"/>
    <text id="Full_Time_Staffing" data-name="Full
Time
Staffing" transform="translate(278 7093)" fill="#0c1475" font-size="30" font-family="Poppins-Medium, Poppins" font-weight="500"><tspan x="-31.26" y="0">FULL</tspan><tspan x="-32.625" y="37">TIME</tspan><tspan x="-68.565" y="74">STAFFING</tspan></text>
    <text id="Temporary_Staffing" data-name="Temporary
Staffing" transform="translate(380 7313)" fill="#0c1475" font-size="30" font-family="Poppins-Medium, Poppins" font-weight="500"><tspan x="-86.91" y="0">TEMPORARY</tspan><tspan x="-68.565" y="37">STAFFING</tspan></text>
    <text id="Hire_Manage_Transfer" data-name="Hire,
Manage,
Transfer" transform="translate(280 7475)" fill="#0c1475" font-size="30" font-family="Poppins-Medium, Poppins" font-weight="500"><tspan x="-33.855" y="0">HIRE,</tspan><tspan x="-66.345" y="37">MANAGE,</tspan><tspan x="-71.07" y="74">TRANSFER</tspan></text>
    <rect id="Rectangle_995" data-name="Rectangle 995" width="56" height="56" transform="translate(329 7180)" fill="#fff"/>
    <rect id="Rectangle_884" data-name="Rectangle 884" width="214" height="214" rx="107" transform="translate(279.042 6975.064) rotate(45)" fill="none" stroke="#63b4fa" stroke-width="20"/>
    <path id="Polygon_16" data-name="Polygon 16" d="M23.261,3.06a2,2,0,0,1,3.478,0L48.3,41.012A2,2,0,0,1,46.563,44H3.437A2,2,0,0,1,1.7,41.012Z" transform="translate(309 7189)" fill="#63b4fa"/>
    <path id="Path_976" data-name="Path 976" d="M-14610.78,3385.513l-9.094,17.511,19.364.842s-22.058,27.277-21.553,26.267-25.089-47.146-25.089-47.146Z" transform="translate(14930 3829)" fill="#fff"/>
    <path id="Path_977" data-name="Path 977" d="M-14660.1,3377.253v51.439l35.68-28.018Z" transform="translate(14731.835 3067.347) rotate(-3)" fill="#fff"/>
    <path id="Polygon_17" data-name="Polygon 17" d="M23.261,3.061a2,2,0,0,1,3.478,0L48.3,41.012A2,2,0,0,1,46.563,44H3.437A2,2,0,0,1,1.7,41.012Z" transform="translate(303.577 7379)" fill="#63b4fa"/>
    <path id="Path_978" data-name="Path 978" d="M-14636.882,3385.513l9.094,17.511-19.364.842s22.058,27.277,21.553,26.267,25.089-47.146,25.089-47.146Z" transform="translate(14980.238 4019)" fill="#fff"/>
    <path id="Path_979" data-name="Path 979" d="M0,51.439V0l35.68,28.018Z" transform="translate(391.307 7448.591) rotate(-177)" fill="#fff"/>
  </g>
</svg>
