<svg xmlns="http://www.w3.org/2000/svg" width="1135.232" height="642.714" viewBox="0 0 1135.232 642.714">
  <g id="SSIll1" transform="translate(-1068.884 -6220.286)">
    <text id="Accelerate_your_hiring_needs" data-name="Accelerate your hiring needs" transform="translate(1444.5 6853)" fill="#63b4fa" font-size="41" font-family="PlayfairDisplay-Italic, Playfair Display" font-style="italic"><tspan x="-245.979" y="0">Accelerate your hiring needs</tspan></text>
    <rect id="Rectangle_828" data-name="Rectangle 828" width="347.696" height="235.496" rx="22" transform="translate(1216.609 6248.197)" fill="#63b4fa"/>
    <rect id="Rectangle_829" data-name="Rectangle 829" width="102.952" height="112.2" rx="14" transform="translate(1238.802 6269.773)" fill="#fff"/>
    <rect id="Rectangle_850" data-name="Rectangle 850" width="99.253" height="6.781" rx="3.391" transform="translate(1405.252 6269.773)" fill="#fff"/>
    <rect id="Rectangle_835" data-name="Rectangle 835" width="35.139" height="6.781" rx="3.391" transform="translate(1306.615 6399.234)" fill="#fff"/>
    <rect id="Rectangle_830" data-name="Rectangle 830" width="100.487" height="6.781" rx="3.391" transform="translate(1240.035 6411.564)" fill="#fff"/>
    <rect id="Rectangle_836" data-name="Rectangle 836" width="143.024" height="6.781" rx="3.391" transform="translate(1381.826 6294.433)" fill="#fff"/>
    <rect id="Rectangle_837" data-name="Rectangle 837" width="143.024" height="6.781" rx="3.391" transform="translate(1381.826 6313.543)" fill="#fff"/>
    <rect id="Rectangle_838" data-name="Rectangle 838" width="143.024" height="6.781" rx="3.391" transform="translate(1381.826 6332.655)" fill="#fff"/>
    <rect id="Rectangle_839" data-name="Rectangle 839" width="143.024" height="6.781" rx="3.391" transform="translate(1381.826 6351.766)" fill="#fff"/>
    <rect id="Rectangle_840" data-name="Rectangle 840" width="143.024" height="6.781" rx="3.391" transform="translate(1381.826 6370.876)" fill="#fff"/>
    <rect id="Rectangle_841" data-name="Rectangle 841" width="143.024" height="6.781" rx="3.391" transform="translate(1381.826 6389.987)" fill="#fff"/>
    <rect id="Rectangle_842" data-name="Rectangle 842" width="143.024" height="6.781" rx="3.391" transform="translate(1381.826 6409.099)" fill="#fff"/>
    <g id="Group_273" data-name="Group 273">
      <g id="Group_214" data-name="Group 214" transform="translate(1228 5834)" opacity="0.58">
        <rect id="Rectangle_807" data-name="Rectangle 807" width="143" height="143" rx="25" transform="translate(758.673 386.286) rotate(45)" fill="#489ae2" opacity="0.17"/>
        <rect id="Rectangle_808" data-name="Rectangle 808" width="143" height="143" rx="25" transform="translate(875 502.958) rotate(45)" fill="#489ae2" opacity="0.17"/>
        <rect id="Rectangle_809" data-name="Rectangle 809" width="143" height="143" rx="25" transform="translate(291.327 619.631) rotate(45)" fill="#489ae2" opacity="0.17"/>
        <rect id="Rectangle_810" data-name="Rectangle 810" width="143" height="143" rx="25" transform="translate(525.327 619.631) rotate(45)" fill="#489ae2" opacity="0.17"/>
        <rect id="Rectangle_811" data-name="Rectangle 811" width="143" height="143" rx="25" transform="translate(58.327 619.631) rotate(45)" fill="#489ae2" opacity="0.17"/>
        <rect id="Rectangle_812" data-name="Rectangle 812" width="143" height="143" rx="25" transform="translate(408 502.958) rotate(45)" fill="#489ae2" opacity="0.17"/>
        <rect id="Rectangle_813" data-name="Rectangle 813" width="143" height="143" rx="25" transform="translate(642 502.958) rotate(45)" fill="#489ae2" opacity="0.17"/>
        <rect id="Rectangle_814" data-name="Rectangle 814" width="143" height="143" rx="25" transform="translate(175 502.958) rotate(45)" fill="#489ae2" opacity="0.17"/>
        <rect id="Rectangle_815" data-name="Rectangle 815" width="143" height="143" rx="25" transform="translate(-58 502.958) rotate(45)" fill="#489ae2" opacity="0.17"/>
        <rect id="Rectangle_816" data-name="Rectangle 816" width="143" height="143" rx="25" transform="translate(524.673 386.286) rotate(45)" fill="#489ae2" opacity="0.17"/>
        <rect id="Rectangle_817" data-name="Rectangle 817" width="143" height="143" rx="25" transform="translate(291.673 386.286) rotate(45)" fill="#489ae2" opacity="0.17"/>
      </g>
      <path id="Path_753" data-name="Path 753" d="M914.838,227.635a18.211,18.211,0,0,0-4.985-2.5,127.118,127.118,0,0,0-35.125-7.646c-10.444-.741-21.764.139-29.922,6.7a10.289,10.289,0,0,0-3.035,3.536c-1.026,2.215-.715,4.789-.383,7.207a8.144,8.144,0,0,0,.7,2.713c1.1,2.09,3.8,2.822,6.148,2.572s4.55-1.244,6.866-1.7a30.69,30.69,0,0,1,4.336-.442l14.522-.786c9.03-.489,18.18-.97,27.038.853a26.932,26.932,0,0,1,7.812,2.692c2.023,1.136,3.385,2.766,5.263.668C917.37,237.815,919.195,231.04,914.838,227.635Z" transform="translate(411.455 6106.207)" fill="#2f2e41"/>
      <path id="Path_754" data-name="Path 754" d="M896.043,236.9s-19.533-8.756-26.942,1.347,4.041,6.062,4.041,6.062l12.8,4.041,14.144-2.694Z" transform="translate(407.747 6103.363)" fill="#f2f2f2"/>
      <path id="Path_755" data-name="Path 755" d="M897.662,228.585s-2.694,12.8-.674,16.165-11.45,8.083-11.45,8.083l-12.8-5.388s3.368-20.88,0-24.921Z" transform="translate(405.118 6105.279)" fill="#a0616a"/>
      <path id="Path_756" data-name="Path 756" d="M861.29,210.013A20.223,20.223,0,0,0,881.5,230.22a19.721,19.721,0,0,0,3.59-.323,20.205,20.205,0,1,0-23.8-19.883Z" transform="translate(410.506 6111.055)" fill="#a0616a"/>
      <path id="Path_757" data-name="Path 757" d="M846.927,279.91h64.441l-1.461-6.344L903.582,246l-7.311-4.938-.006-.006-3.434-2.324-1.708-1.153s-1.011.462-2.176,1.091c-.339.191-.684.388-1.03.6-.006-.006-.006,0-.006,0a12.064,12.064,0,0,0-1.591,1.1c-.093.086-.173.16-.253.24-1.282,1.282-5.024,8.088-11.214,4.605a9.441,9.441,0,0,1-.906-.567A44.84,44.84,0,0,1,869.342,241c-1.3-1.19-2.145-2.108-2.836-2.743a4.479,4.479,0,0,0-1.048-.777,1.992,1.992,0,0,0-.943-.228c-2.022,0-4.716,4.038-4.716,4.038l-.08.234-.006.019-8.5,25.522Z" transform="translate(412.669 6102.68)" fill="#f2f2f2"/>
      <path id="Path_765" data-name="Path 765" d="M851.872,279h-19.53a47.506,47.506,0,0,1,.351-6.757c.6-4.507,2.065-8.846,2.99-13.3a55.932,55.932,0,0,0,1.178-11.861c-.006-.549-.019-1.1-.068-1.658a7.594,7.594,0,0,0-1.067-3.6c-.462-.709-1.1-1.313-1.59-1.991a4.567,4.567,0,0,1-.45-.709v-.006a4.1,4.1,0,0,1-.167-.376,3.047,3.047,0,0,1-.185-.919c-.111-2.034,1.732-3.995,3.724-4.833a13.921,13.921,0,0,1,8.723-.351,41.521,41.521,0,0,1,8.2,3.354c.882.432,1.757.875,2.6,1.369a12.92,12.92,0,0,1,2.756,2.1c2.1,2.164,3.015,5.178,3.754,8.094a17.112,17.112,0,0,1,.709,6.9c-.006.074-.025.154-.037.228-.734,3.841-3.865,6.726-5.536,10.264-1.936,4.106-1.806,8.89-1.036,13.365.037.228.08.456.123.684h-5.444Z" transform="translate(472.165 6103.588)" fill="#2f2e41"/>
      <path id="Path_750" data-name="Path 750" d="M899.149,253.337A152.627,152.627,0,0,1,904.469,278h27.84q1.091-2.978,2.176-5.961a44.66,44.66,0,0,0,1.486-4.587,21.955,21.955,0,0,0,.623-5.524c0-.444-.018-.894-.056-1.338a.019.019,0,0,1,0-.025,22.062,22.062,0,0,0-1.609-6.824,25.468,25.468,0,0,0-1.418-2.879c-1.295-2.343-2.86-4.55-4.254-6.843A31.408,31.408,0,0,1,927,239.633a.023.023,0,0,0-.006-.019,15.756,15.756,0,0,1-1.276-6.134c.043-2.719,4.642-7.459-.357-7-6.824.616-12.687,4.544-18.032,9.019-1.424,1.2-2.817,2.435-4.18,3.656-2.108,1.9-4.334,3.97-4.969,6.738a7.181,7.181,0,0,0-.179,1.344A18.453,18.453,0,0,0,899.149,253.337Z" transform="translate(345.386 6104.586)" fill="#2f2e41"/>
      <path id="Path_758" data-name="Path 758" d="M869.485,248.238a15.055,15.055,0,0,1,3.161-5.1,11.727,11.727,0,0,1,4.829-2.446,26.407,26.407,0,0,1,7.083-1.015c2.852-.018,6.16.747,7.371,3.33.962,2.051.216,4.479-.752,6.527a6.4,6.4,0,0,1-2,2.7c-1.23.831-2.821.8-4.279,1.083a19.738,19.738,0,0,0-6.325,2.866l-5,3.02L865,264.391c.226-.137.146-6.022.409-6.986C866.256,254.3,868.168,251.181,869.485,248.238Z" transform="translate(416.779 6102.25)" fill="#a0616a"/>
      <path id="Path_759" data-name="Path 759" d="M853.868,198.536a5.461,5.461,0,0,1,2.369-3.092,12.527,12.527,0,0,1,.5-4.08c1.3-3.852,4.389-3.631,7.3-5.334,1.263-.739,1.185-1.392,1.843-2.605a9.67,9.67,0,0,1,3.726-3.8c1.868-1.19,3.841-2.416,6.051-2.567,4.645-.317,8.206,4.052,12.646,5.454,1.957.618,4.06.643,6.027,1.228s3.93,1.979,4.223,4.01c.135.938-.1,1.9.034,2.837.273,1.863,1.908,3.168,3,4.7,2.42,3.389,2.143,8.176.208,11.863a16.666,16.666,0,0,1-1.4,2.184,13.433,13.433,0,0,1-1.473,4.988c-1.935,3.687-5.265,6.442-8.743,8.731a20.634,20.634,0,0,0,.516-3.723,2.571,2.571,0,0,0-.158-1.234c-.387-.81-1.411-1.025-2.191-1.469-1.616-.919-2.25-2.951-2.3-4.81s.347-3.72.152-5.569a3.044,3.044,0,0,0-1.042-2.239,3.6,3.6,0,0,0-1.964-.468c-3.312-.135-6.772-.2-9.694-1.762a14.366,14.366,0,0,0-3.017-1.526c-2.483-.647-5.02,1.093-6.451,3.222s-2.144,4.664-3.464,6.864-3.6,4.162-6.153,3.9a1.021,1.021,0,0,1-.762-.339,1.143,1.143,0,0,1-.141-.649l-.143-9.757A14.743,14.743,0,0,1,853.868,198.536Z" transform="translate(418.597 6107.792)" fill="#2f2e41"/>
      <path id="Path_766" data-name="Path 766" d="M826.206,271.209q-.657,5.41-.8,10.856h16.953V267.818c-.086-.345-.179-.684-.29-1.023-1.06-3.267-3.286-6-5.215-8.846-.093-.142-.191-.284-.284-.425a23.144,23.144,0,0,1-2.108-3.8c-.277-.653-.721-3.816-1.19-4.087-2.01-1.165-3.643,3.816-3.921,4.926-.986,3.952-1.843,7.94-2.491,11.966Q826.487,268.863,826.206,271.209Z" transform="translate(499.39 6100.525)" fill="#2f2e41"/>
      <path id="Path_751" data-name="Path 751" d="M887.853,281.251h38.919c.333-.783.66-1.566,1-2.343A68.5,68.5,0,0,1,937.11,263.6a4.05,4.05,0,0,0,1.153-2.287,1.936,1.936,0,0,0-.253-1.03c-.592-1.1-2.158-1.751-3.428-2.275a11.811,11.811,0,0,1-3.563-2.244,7.641,7.641,0,0,1-2.059-3.039,6.662,6.662,0,0,1-.259-1.048l-.542.709c-.438.58-.882,1.153-1.332,1.726-4.315,5.542-9.056,11-15.018,14.29a25.268,25.268,0,0,1-4.907,2.09,1.288,1.288,0,0,1-1.036,0,1.254,1.254,0,0,1-.45-.826c-.53-2.219-.715-4.507-1.1-6.757a38.484,38.484,0,0,0-4.063-11.7c-1.1-2.053-4.691-9.556-6.966-4.827q-.98,2.044-1.973,4.1c-.413.869-.832,1.732-1.251,2.6a16.18,16.18,0,0,0-2.028,9.062Q887.939,271.708,887.853,281.251Z" transform="translate(352.071 6101.339)" fill="#2f2e41"/>
      <path id="Path_767" data-name="Path 767" d="M844.2,285.735h-3.372l1.911-6.344,2.756-9.142a29.821,29.821,0,0,0,.265,4.63,30.83,30.83,0,0,0,2.688,9.149c.265.561.549,1.128.777,1.708H844.2Z" transform="translate(479.839 6096.854)" opacity="0.1"/>
      <path id="Path_760" data-name="Path 760" d="M928.383,265.38c.475,1.277.044,2.689-.322,4a40.312,40.312,0,0,0-1.469,11.7.426.426,0,0,0,.5.51c1.555.1,3.335.105,4.389-1.041Z" transform="translate(326.966 6097.714)" opacity="0.1"/>
      <rect id="Rectangle_831" data-name="Rectangle 831" width="347.696" height="235.496" rx="22" transform="translate(1216.242 6517.426)" fill="#63b4fa"/>
      <rect id="Rectangle_832" data-name="Rectangle 832" width="102.952" height="112.2" rx="14" transform="translate(1238.436 6539.002)" fill="#fff"/>
      <rect id="Rectangle_851" data-name="Rectangle 851" width="99.253" height="6.781" transform="translate(1404.886 6539.002)" fill="#fff"/>
      <rect id="Rectangle_833" data-name="Rectangle 833" width="35.139" height="6.781" transform="translate(1239.669 6668.464)" fill="#fff"/>
      <rect id="Rectangle_834" data-name="Rectangle 834" width="100.487" height="6.781" transform="translate(1239.669 6680.793)" fill="#fff"/>
      <rect id="Rectangle_843" data-name="Rectangle 843" width="143.024" height="6.781" transform="translate(1381.46 6563.662)" fill="#fff"/>
      <rect id="Rectangle_844" data-name="Rectangle 844" width="143.024" height="6.781" transform="translate(1381.46 6582.772)" fill="#fff"/>
      <rect id="Rectangle_845" data-name="Rectangle 845" width="143.024" height="6.781" transform="translate(1381.46 6601.884)" fill="#fff"/>
      <rect id="Rectangle_846" data-name="Rectangle 846" width="143.024" height="6.781" transform="translate(1381.46 6620.994)" fill="#fff"/>
      <rect id="Rectangle_847" data-name="Rectangle 847" width="143.024" height="6.781" transform="translate(1381.46 6640.105)" fill="#fff"/>
      <rect id="Rectangle_848" data-name="Rectangle 848" width="143.024" height="6.781" transform="translate(1381.46 6659.217)" fill="#fff"/>
      <rect id="Rectangle_849" data-name="Rectangle 849" width="143.024" height="6.781" transform="translate(1381.46 6678.328)" fill="#fff"/>
      <path id="Path_768" data-name="Path 768" d="M209.2,283.649H195.82q-1.544-4.152-2.743-8.409a16.8,16.8,0,0,0-4.365-8.9,16.5,16.5,0,0,1-1.88-2.552,11.987,11.987,0,0,1-1.184-7.268,18.884,18.884,0,0,1,.345-2.059c.586-2.632,1.566-5.16,2.386-7.724a2.93,2.93,0,0,1,2.392-1.979,4.744,4.744,0,0,1,2.614.3,3.243,3.243,0,0,1,.524.271c1.461.882,2.219,2.682,2.83,4.328q4.189,11.245,8.372,22.489.814,2.182,1.628,4.377c.8,2.145,1.6,4.291,2.275,6.479C209.081,283.223,209.142,283.432,209.2,283.649Z" transform="translate(1129.385 6368.171)" fill="#0c1475"/>
      <path id="Path_761" data-name="Path 761" d="M141.425,171.79c-3.328,1.124-6.342,3.752-7.024,7.2-.316,1.6-.122,3.258-.388,4.864-.616,3.725-3.541,6.57-6.238,9.213s-5.482,5.713-5.679,9.484c-.216,4.129,2.779,8,2.261,12.1-.6,4.766-5.636,7.854-6.88,12.494-.831,3.1.187,6.436,1.862,9.171,3.192,5.213,8.649,8.752,14.459,10.649s12,2.3,18.111,2.36c7.442.078,15.523-.561,21.115-5.473a16.915,16.915,0,0,0,5.616-11.012c.531-5.69-1.843-11.569-.205-17.043,1.031-3.445,3.616-6.592,3.23-10.168-.377-3.5-3.431-5.974-5.525-8.8a35.763,35.763,0,0,1-4.306-8.821l-3.98-10.5c-.782-2.065-1.641-4.237-3.385-5.592-3.264-2.537-8.512-2.039-12.329-1.515C148.6,170.88,144.83,170.64,141.425,171.79Z" transform="translate(1141.447 6381.362)" fill="#2f2e41"/>
      <path id="Path_762" data-name="Path 762" d="M150.161,213.726s.39,11.686-.779,12.855,4.674,8.959,4.674,8.959l10.517-.39,5.453-4.285-4.674-6.232s-1.948-10.128-.39-12.465S150.161,213.726,150.161,213.726Z" transform="translate(1135.791 6374.044)" fill="#a0616a"/>
      <path id="Path_763" data-name="Path 763" d="M150.161,213.726s.39,11.686-.779,12.855,4.674,8.959,4.674,8.959l10.517-.39,5.453-4.285-4.674-6.232s-1.948-10.128-.39-12.465S150.161,213.726,150.161,213.726Z" transform="translate(1135.791 6374.044)" opacity="0.1"/>
      <ellipse id="Ellipse_2917" data-name="Ellipse 2917" cx="14.023" cy="14.023" rx="14.023" ry="14.023" transform="translate(1278.355 6564.204)" fill="#a0616a"/>
      <path id="Path_764" data-name="Path 764" d="M156.967,280.2h11.368c.425-.771.826-1.572,1.288-2.3v-.006a6.293,6.293,0,0,1,2.071-2.17,8.161,8.161,0,0,0,1.535-.919,3.959,3.959,0,0,0,.937-1.751,27.132,27.132,0,0,0,1.282-7.558c.018-.863,0-1.738.049-2.6a10.939,10.939,0,0,1,.259-2,15.779,15.779,0,0,1,1.683-3.81q2.312-4.207,4.636-8.415a5.882,5.882,0,0,0,.314-2.466,6.079,6.079,0,0,0-1-3.163c-.216-.388-.45-.777-.7-1.153a25.6,25.6,0,0,0-3.3-4.217,26.732,26.732,0,0,0-9.408-6.368,5.459,5.459,0,0,1-1.264-.616,5.246,5.246,0,0,1-1.159-1.387c-1.233-1.856-2.737-3.945-4.963-3.828a3.051,3.051,0,0,0-2.355-.16,3.215,3.215,0,0,0-.345.111,21.9,21.9,0,0,0-2.472,1.288,11.476,11.476,0,0,1-6.658,1.208,2.255,2.255,0,0,1-.777-.2,3.978,3.978,0,0,1-.715-.579,4.111,4.111,0,0,0-4.087-.653,3.711,3.711,0,0,0-1.628,1.147c-.407.512-.69,1.128-1.141,1.609-1.165,1.245-3.089,1.295-4.79,1.288a44.269,44.269,0,0,0-10.523.968,20,20,0,0,0-8.286,4.007l-.006.006c-.333.284-.641.573-.949.882a7.037,7.037,0,0,0-1.64,2.343c-.469,1.208-.407,2.571-.832,3.8-.469,1.375-1.51,2.5-1.93,3.878a15.594,15.594,0,0,1-.808,3.156c.025.018.043.037.068.055,2.244,1.973,4.161,4.562,6.411,6.516a12.938,12.938,0,0,1,3.255,3.637,6,6,0,0,1,.4.986,15.168,15.168,0,0,1,.333,3.588c.284,5.764,3.409,10.992,6.9,15.578.068.092.136.185.21.271Z" transform="translate(1142.6 6371.623)" fill="#0c1475"/>
      <path id="Path_752" data-name="Path 752" d="M118.238,264.483q-.8,5.521-1.6,11.035a48.078,48.078,0,0,1-1.1,5.844c-.321,1.19-.734,2.355-1.023,3.545H98.461a15.379,15.379,0,0,1,.154-1.991,32.92,32.92,0,0,1,2-6.911q2.8-7.564,5.6-15.141c.8-2.152,1.48-4.4,2.355-6.535.154-.395.321-.789.5-1.171.931-2.047,3.514-1.208,5.425-.9a5.151,5.151,0,0,1,1.517.431,3.913,3.913,0,0,1,1.424,1.344c1.812,2.682,1.418,6.227.949,9.432Q118.312,263.974,118.238,264.483Z" transform="translate(1144.752 6366.913)" fill="#0c1475"/>
      <path id="Path_769" data-name="Path 769" d="M179.551,289.2c.025.086.29,1,.727,2.3H166.894c6.633-1.141,12.656-2.306,12.656-2.306Z" transform="translate(1132.672 6360.315)" fill="#2f2e41"/>
      <ellipse id="Ellipse_2918" data-name="Ellipse 2918" cx="15.192" cy="8.18" rx="15.192" ry="8.18" transform="translate(1278.355 6561.867)" fill="#2f2e41"/>
      <rect id="Rectangle_852" data-name="Rectangle 852" width="347.696" height="235.496" rx="22" transform="translate(1428.305 6373.314)" fill="#0c1475"/>
      <rect id="Rectangle_853" data-name="Rectangle 853" width="102.952" height="112.2" rx="14" transform="translate(1450.498 6394.891)" fill="#fff"/>
      <path id="Path_772" data-name="Path 772" d="M401.27,315.052a1.511,1.511,0,0,0,1.771-.732c1.424-2.244-1.2-5.136-.63-7.732.455-2.08,2.818-3.314,3.3-5.387.47-2.015-.977-4.285,0-6.108.766-1.428,2.68-1.8,4.281-1.554s3.121.954,4.738,1.053c2.155.131,4.21-.817,6.318-1.288s4.679-.286,5.918,1.482c1.592,2.27-.023,5.431.531,8.148.44,2.157,2.246,3.944,2.285,6.145.014.782-2.043.152-1.934.927s-.863.093-.086,0a1.539,1.539,0,0,0,1.17-1.391c.092-.645,1.305-.861,1.291-1.512-.033-1.528,2.729-.5,3.184-1.956a14.793,14.793,0,0,0-.6-10.32,20.668,20.668,0,0,1-1.762-4.2c-.406-2.026.233-4.2-.437-6.154-.9-2.634-3.886-3.977-6.657-4.249s-5.586.215-8.341-.187c-2.468-.36-4.857-1.43-7.346-1.275-2.987.186-5.586,2.11-7.656,4.271s-3.827,4.646-6.178,6.5a12.118,12.118,0,0,0-1.981,1.705,6.654,6.654,0,0,0-.986,5.4c.333,1.858,1.058,3.631,1.364,5.494.288,1.751.2,3.539.323,5.309a9.332,9.332,0,0,0,1.557,5.012,4.73,4.73,0,0,0,3.681,1.923c.5.012.919-.436,1.422-.32C400.439,314.2,400.712,314.8,401.27,315.052Z" transform="translate(1082.38 6131.354)" fill="#2f2e41"/>
      <path id="Path_773" data-name="Path 773" d="M375.913,393.322c.45-6.171.789-10.782.789-10.782l2.91-7.669,9.34,18.451Z" transform="translate(1085.096 6114.386)" fill="#575a89"/>
      <path id="Path_774" data-name="Path 774" d="M375.913,393.322c.45-6.171.789-10.782.789-10.782l2.91-7.669,9.34,18.451Z" transform="translate(1085.096 6114.386)" opacity="0.1"/>
      <path id="Path_775" data-name="Path 775" d="M402.2,322.44s8.709,22.168,3.695,26.39,27.974-7.125,27.974-7.125l-.792-2.9s-10.82-4.222-5.542-16.362S402.2,322.44,402.2,322.44Z" transform="translate(1080.457 6124.594)" fill="#a0616a"/>
      <path id="Path_776" data-name="Path 776" d="M402.2,322.44s8.709,22.168,3.695,26.39,27.974-7.125,27.974-7.125l-.792-2.9s-10.82-4.222-5.542-16.362S402.2,322.44,402.2,322.44Z" transform="translate(1080.457 6124.594)" opacity="0.1"/>
      <ellipse id="Ellipse_2924" data-name="Ellipse 2924" cx="18.473" cy="18.473" rx="18.473" ry="18.473" transform="translate(1476.583 6419.06)" fill="#a0616a"/>
      <path id="Path_777" data-name="Path 777" d="M454.988,357.057l-.2,4.032c-.265,5.222-.74,15.005-1.214,26.293H381.96a35.5,35.5,0,0,1-4.556-8.156,8.8,8.8,0,0,1-.536-2.626c-.395-7,5.875-16.762,10.3-17.693,5.012-1.06,14.512-11.084,14.512-11.084a2.26,2.26,0,0,0,1.208,1.825v.006a4.911,4.911,0,0,0,2.484.543c3.095,0,16.707-6.282,21.078-8.335.857-.4,1.356-.641,1.356-.641A102.438,102.438,0,0,0,443.38,346.5,16.562,16.562,0,0,1,454.988,357.057Z" transform="translate(1084.931 6120.326)" fill="#575a89"/>
      <path id="Path_778" data-name="Path 778" d="M397.424,312.809a1.511,1.511,0,0,0,1.771-.732c1.424-2.243-1.2-5.136-.63-7.732.455-2.08,2.818-3.314,3.3-5.387.47-2.015-.977-4.285,0-6.108.766-1.428,2.68-1.8,4.281-1.554s3.121.954,4.739,1.053c2.155.131,4.21-.817,6.318-1.288s4.679-.286,5.918,1.482c1.592,2.27-.023,5.431.531,8.148.44,2.157,5.456,3.672,5.91,2.213a14.793,14.793,0,0,0-.6-10.32,20.671,20.671,0,0,1-1.762-4.2c-.406-2.026.233-4.2-.437-6.154-.9-2.634-3.886-3.977-6.657-4.249s-5.586.215-8.341-.187c-2.468-.36-4.857-1.43-7.346-1.275-2.987.186-5.586,2.11-7.656,4.271s-3.827,4.646-6.178,6.5a12.116,12.116,0,0,0-1.981,1.705,6.654,6.654,0,0,0-.986,5.4c.333,1.858,1.058,3.631,1.364,5.494.288,1.751.2,3.539.323,5.309a9.332,9.332,0,0,0,1.557,5.012,4.73,4.73,0,0,0,3.681,1.923c.5.012.919-.436,1.422-.32C396.593,311.956,396.866,312.553,397.424,312.809Z" transform="translate(1083.059 6131.75)" fill="#2f2e41"/>
      <path id="Path_779" data-name="Path 779" d="M477.753,390.776h-20.9c-1.591-11.664-2.9-23.858-2.9-23.858l4.223-1.849,8.581-4.617s.629,1.492,1.64,4.032C470.552,369.914,474.467,380.136,477.753,390.776Z" transform="translate(1071.321 6116.931)" opacity="0.1"/>
      <path id="Path_780" data-name="Path 780" d="M478.55,390.154H454.963c-3.5-12.761-6.942-26.632-6.942-26.632l8.976-6.6,10.554,2.9S473.729,374.533,478.55,390.154Z" transform="translate(1072.367 6117.554)" fill="#575a89"/>
      <rect id="Rectangle_854" data-name="Rectangle 854" width="99.253" height="6.781" rx="3.391" transform="translate(1616.948 6394.891)" fill="#f60"/>
      <rect id="Rectangle_855" data-name="Rectangle 855" width="35.139" height="6.781" rx="3.391" transform="translate(1451.731 6524.353)" fill="#f60"/>
      <rect id="Rectangle_856" data-name="Rectangle 856" width="100.487" height="6.781" rx="3.391" transform="translate(1451.731 6536.682)" fill="#f60"/>
      <rect id="Rectangle_857" data-name="Rectangle 857" width="143.024" height="6.781" rx="3.391" transform="translate(1593.522 6419.551)" fill="#fff"/>
      <rect id="Rectangle_858" data-name="Rectangle 858" width="143.024" height="6.781" rx="3.391" transform="translate(1593.522 6438.662)" fill="#fff"/>
      <rect id="Rectangle_859" data-name="Rectangle 859" width="143.024" height="6.781" rx="3.391" transform="translate(1593.522 6457.772)" fill="#fff"/>
      <rect id="Rectangle_860" data-name="Rectangle 860" width="143.024" height="6.781" rx="3.391" transform="translate(1593.522 6476.884)" fill="#fff"/>
      <rect id="Rectangle_861" data-name="Rectangle 861" width="143.024" height="6.781" rx="3.391" transform="translate(1593.522 6495.995)" fill="#fff"/>
      <rect id="Rectangle_862" data-name="Rectangle 862" width="143.024" height="6.781" rx="3.391" transform="translate(1593.522 6515.106)" fill="#fff"/>
      <rect id="Rectangle_863" data-name="Rectangle 863" width="143.024" height="6.781" rx="3.391" transform="translate(1593.522 6534.216)" fill="#fff"/>
    </g>
  </g>
</svg>
