<svg xmlns="http://www.w3.org/2000/svg" width="601.036" height="619.662" viewBox="0 0 601.036 619.662">
  <g id="SSIll2" transform="translate(-1197.804 -7024.804)">
    <g id="Rectangle_875" data-name="Rectangle 875" transform="translate(1412.196 7024.804) rotate(45)" fill="#0c1475" stroke="#707070" stroke-width="1">
      <rect width="112" height="112" rx="19" stroke="none"/>
      <rect x="0.5" y="0.5" width="111" height="111" rx="18.5" fill="none"/>
    </g>
    <g id="Rectangle_876" data-name="Rectangle 876" transform="translate(1547 7108.804) rotate(45)" fill="#0c1475" stroke="#707070" stroke-width="1">
      <rect width="112" height="112" rx="19" stroke="none"/>
      <rect x="0.5" y="0.5" width="111" height="111" rx="18.5" fill="none"/>
    </g>
    <g id="Rectangle_877" data-name="Rectangle 877" transform="translate(1547 7261.804) rotate(45)" fill="#0c1475" stroke="#707070" stroke-width="1">
      <rect width="112" height="112" rx="19" stroke="none"/>
      <rect x="0.5" y="0.5" width="111" height="111" rx="18.5" fill="none"/>
    </g>
    <g id="Rectangle_878" data-name="Rectangle 878" transform="translate(1412.196 7344.804) rotate(45)" fill="#0c1475" stroke="#707070" stroke-width="1">
      <rect width="112" height="112" rx="19" stroke="none"/>
      <rect x="0.5" y="0.5" width="111" height="111" rx="18.5" fill="none"/>
    </g>
    <g id="Rectangle_879" data-name="Rectangle 879" transform="translate(1277 7261.804) rotate(45)" fill="#0c1475" stroke="#707070" stroke-width="1">
      <rect width="112" height="112" rx="19" stroke="none"/>
      <rect x="0.5" y="0.5" width="111" height="111" rx="18.5" fill="none"/>
    </g>
    <g id="Rectangle_880" data-name="Rectangle 880" transform="translate(1277 7108.804) rotate(45)" fill="#0c1475" stroke="#707070" stroke-width="1">
      <rect width="112" height="112" rx="19" stroke="none"/>
      <rect x="0.5" y="0.5" width="111" height="111" rx="18.5" fill="none"/>
    </g>
    <text id="Process" transform="translate(1415 7278)" fill="#0c1475" font-size="30" font-family="Poppins-SemiBold, Poppins" font-weight="600"><tspan x="-67.035" y="0">PROCESS</tspan></text>
    <path id="Path_781" data-name="Path 781" d="M970.42,735.63c.226,23.706-149.154,25.878-152,0C818.194,711.928,967.574,709.755,970.42,735.63Z" transform="translate(828.42 6890.233)" fill="#e6e6e6"/>
    <path id="Path_798" data-name="Path 798" d="M623.966,507.569l-11.1,6.055,7.065,23.213,11.1,1.009,6.056-13.12Z" transform="translate(1058 7036)" fill="#9f616a"/>
    <path id="Path_820" data-name="Path 820" d="M658.28,553.994v11.1l17.157-1.009-.239-9.143Z" transform="translate(1058 7036)" fill="#9f616a"/>
    <path id="Path_799" data-name="Path 799" d="M619.929,374.348l6.055,75.694L645.16,561.058l30.277-4.037-10.092-87.8,4.037-80.739Z" transform="translate(1058 7036)" fill="#2f2e41"/>
    <path id="Path_800" data-name="Path 800" d="M930.248,463.6l-72.666,1.009-8.074,55.508,49.453,23.213,12.111,44.407-61.563,65.6,24.222,30.277s34.314-46.425,59.545-72.666S946.4,504.977,946.4,504.977Z" transform="translate(828.42 6890.233)" fill="#2f2e41"/>
    <circle id="Ellipse_2927" data-name="Ellipse 2927" cx="22.203" cy="22.203" r="22.203" transform="translate(1693.067 7166.112)" fill="#9f616a"/>
    <path id="Path_821" data-name="Path 821" d="M878.777,313.221v22.2l15.139,24.222s23.213-17.157,18.166-21.194-6.055-35.324-6.055-35.324Z" transform="translate(828.42 6890.233)" fill="#9f616a"/>
    <path id="Path_809" data-name="Path 809" d="M649.2,185.62l-15.139,18.166,6.056,126.155,47.434-1.009,8.074-110.007L685.53,190.666l-6.923-9.419-12.253,18.5Z" transform="translate(1058 7036)" fill="#d0cde1"/>
    <path id="Path_782" data-name="Path 782" d="M854.555,396.988l-11.1,42.388,11.1,42.388-18.166,24.222-16.148-76.7s12.111-62.573,13.12-69.638,3.028-8.074,3.028-8.074l8.074,1.009Z" transform="translate(828.42 6890.233)" fill="#2f2e41"/>
    <path id="Path_867" data-name="Path 867" d="M705.714,267.368l7.065,13.121,2.019,22.2-4.037,25.231,14.129,23.213,14.129-63.583L723.881,205.8h-6.056Z" transform="translate(1058 7036)" fill="#2f2e41"/>
    <path id="Path_783" data-name="Path 783" d="M849.509,652.327s-14.129,4.037-19.176,5.046,3.028,20.185,3.028,20.185,5.046,26.24,6.055,31.287,8.074,22.2,17.157,24.222,3.028-35.324,3.028-35.324,4.037-12.111,4.037-16.148-6.055-2.018-6.055-2.018C841.435,677.558,849.509,652.327,849.509,652.327Z" transform="translate(828.42 6890.233)" fill="#2f2e41"/>
    <path id="Path_822" data-name="Path 822" d="M882.814,730.039c1.009,6.055-1.009,6.055,15.139,8.074s12.111-11.1,12.111-11.1a84.809,84.809,0,0,0-4.037-18.166c-3.028-8.074-19.176,2.018-19.176,2.018S881.8,723.983,882.814,730.039Z" transform="translate(828.42 6890.233)" fill="#2f2e41"/>
    <path id="Path_810" data-name="Path 810" d="M906.053,303.833l.526,8.976s6.512-14.727,7.522-29.865-16.149-18.166-26.241-19.175-27.25,6.055-27.25,14.129,18.166,6.055,25.231,4.037,10.092,15.139,10.092,15.139l4.037,1.009Z" transform="translate(828.42 6890.233)" fill="#2f2e41"/>
    <path id="Path_823" data-name="Path 823" d="M643.24,192.767l5.957-7.147,17.157,14.129L649.2,211.86Z" transform="translate(1058 7036)" fill="#d0cde1"/>
    <path id="Path_868" data-name="Path 868" d="M685.53,190.666l-7.065-9.083-12.111,18.166,15.139,11.1Z" transform="translate(1058 7036)" fill="#d0cde1"/>
    <path id="Path_801" data-name="Path 801" d="M851.527,411.117l4.037,38.351-8.074,23.213-5.046,22.2s0,21.194,20.185,22.2,37.342-63.582,37.342-63.582,3.028,14.129,5.046,22.2,36.333,40.37,36.333,40.37,8.074-1.009,15.139-17.157-14.129-31.287-14.129-31.287L936.3,446.441l2.018-26.24,14.13-68.629-41.884-21.7L915.11,387.9l-15.139,45.416L877.263,332.9l-7.569,5.551-32.3,13.121Z" transform="translate(828.42 6890.233)" fill="#2f2e41"/>
    <text id="Analyse" transform="translate(1412 7110)" fill="#fff" font-size="18" font-family="Poppins-Medium, Poppins" font-weight="500"><tspan x="-35.973" y="0">Analyse</tspan></text>
    <text id="Search_Engine" data-name="Search
Engine" transform="translate(1547 7186)" fill="#fff" font-size="18" font-family="Poppins-Medium, Poppins" font-weight="500"><tspan x="-31.914" y="0">Search</tspan><tspan x="-30.33" y="27">Engine</tspan></text>
    <text id="Screen" transform="translate(1547 7347)" fill="#fff" font-size="18" font-family="Poppins-Medium, Poppins" font-weight="500"><tspan x="-31.437" y="0">Screen</tspan></text>
    <text id="Schedule" transform="translate(1412 7430)" fill="#fff" font-size="18" font-family="Poppins-Medium, Poppins" font-weight="500"><tspan x="-41.994" y="0">Schedule</tspan></text>
    <text id="Client_Feedback" data-name="Client
Feedback" transform="translate(1277 7332)" fill="#fff" font-size="18" font-family="Poppins-Medium, Poppins" font-weight="500"><tspan x="-26.316" y="0">Client</tspan><tspan x="-44.406" y="27">Feedback</tspan></text>
    <text id="Result" transform="translate(1277 7199)" fill="#fff" font-size="18" font-family="Poppins-Medium, Poppins" font-weight="500"><tspan x="-27.261" y="0">Result</tspan></text>
  </g>
</svg>
