<svg xmlns="http://www.w3.org/2000/svg" width="475" height="631.658" viewBox="0 0 475 631.658">
  <g id="Group_309" data-name="Group 309" transform="translate(-1255 -1203.691)">
    <g id="Group_296" data-name="Group 296" transform="translate(1103 146)">
      <rect id="Rectangle_405" data-name="Rectangle 405" width="475" height="631.658" rx="15" transform="translate(152 1057.691)" fill="#152668"/>
      <text id="Operations_HR_Marketing_Finance_Support" data-name="Operations, HR,  Marketing,  Finance, Support" transform="translate(176.5 1518)" fill="#fff" font-size="25" font-family="Poppins-Medium, Poppins" font-weight="500"><tspan x="45.325" y="26" xml:space="preserve">Operations, HR,  Marketing,  </tspan><tspan x="105.775" y="64">Finance, Support</tspan></text>
      <text id="ADMINISTRATION" transform="translate(390 1475)" fill="#fff" font-size="35" font-family="Poppins-Medium, Poppins" font-weight="500"><tspan x="-143.01" y="0">ADMINISTRATION</tspan></text>
    </g>
    <ellipse id="Ellipse_2995" data-name="Ellipse 2995" cx="76.811" cy="6.483" rx="76.811" ry="6.483" transform="translate(1450.451 1486.752)" fill="#121c7a" opacity="0.55"/>
    <g id="Group_297" data-name="Group 297" transform="translate(1354.736 1291.115)" opacity="0.7">
      <rect id="Rectangle_536" data-name="Rectangle 536" width="54.181" height="29.908" transform="translate(0 93.191)" fill="#0d1252"/>
      <rect id="Rectangle_537" data-name="Rectangle 537" width="16.471" height="3.468" transform="translate(19.072 98.392)" fill="#0d1252" opacity="0.1"/>
      <rect id="Rectangle_538" data-name="Rectangle 538" width="12.353" height="2.601" transform="translate(21.131 98.826)" fill="#0d1252" opacity="0.1"/>
      <rect id="Rectangle_539" data-name="Rectangle 539" width="54.181" height="29.908" transform="translate(55.048 93.191)" fill="#0d1252"/>
      <rect id="Rectangle_540" data-name="Rectangle 540" width="16.471" height="3.468" transform="translate(74.119 98.392)" fill="#0d1252" opacity="0.1"/>
      <rect id="Rectangle_541" data-name="Rectangle 541" width="12.353" height="2.601" transform="translate(76.178 98.826)" fill="#0d1252" opacity="0.1"/>
      <rect id="Rectangle_542" data-name="Rectangle 542" width="54.181" height="29.908" transform="translate(0 62.416)" fill="#0d1252"/>
      <rect id="Rectangle_543" data-name="Rectangle 543" width="16.471" height="3.468" transform="translate(19.072 67.618)" fill="#0d1252" opacity="0.1"/>
      <rect id="Rectangle_544" data-name="Rectangle 544" width="12.353" height="2.601" transform="translate(21.131 68.051)" fill="#0d1252" opacity="0.1"/>
      <rect id="Rectangle_545" data-name="Rectangle 545" width="54.181" height="29.908" transform="translate(55.048 62.416)" fill="#0d1252"/>
      <rect id="Rectangle_546" data-name="Rectangle 546" width="16.471" height="3.468" transform="translate(74.119 67.618)" fill="#0d1252" opacity="0.1"/>
      <rect id="Rectangle_547" data-name="Rectangle 547" width="12.353" height="2.601" transform="translate(76.178 68.051)" fill="#0d1252" opacity="0.1"/>
      <rect id="Rectangle_548" data-name="Rectangle 548" width="54.181" height="29.908" transform="translate(0 31.208)" fill="#0d1252"/>
      <rect id="Rectangle_549" data-name="Rectangle 549" width="16.471" height="3.468" transform="translate(19.072 36.41)" fill="#0d1252" opacity="0.1"/>
      <rect id="Rectangle_550" data-name="Rectangle 550" width="12.353" height="2.601" transform="translate(21.131 36.843)" fill="#0d1252" opacity="0.1"/>
      <rect id="Rectangle_551" data-name="Rectangle 551" width="54.181" height="29.908" transform="translate(55.048 31.208)" fill="#0d1252"/>
      <rect id="Rectangle_552" data-name="Rectangle 552" width="16.471" height="3.468" transform="translate(74.119 36.41)" fill="#0d1252" opacity="0.1"/>
      <rect id="Rectangle_553" data-name="Rectangle 553" width="12.353" height="2.601" transform="translate(76.178 36.843)" fill="#0d1252" opacity="0.1"/>
      <rect id="Rectangle_554" data-name="Rectangle 554" width="54.181" height="29.908" transform="translate(55.048 0)" fill="#0d1252"/>
      <rect id="Rectangle_555" data-name="Rectangle 555" width="16.471" height="3.468" transform="translate(74.119 5.201)" fill="#0d1252" opacity="0.1"/>
      <rect id="Rectangle_556" data-name="Rectangle 556" width="12.353" height="2.601" transform="translate(76.178 5.635)" fill="#0d1252" opacity="0.1"/>
    </g>
    <g id="Group_298" data-name="Group 298" transform="translate(1464.831 1290.682)" opacity="0.7">
      <rect id="Rectangle_557" data-name="Rectangle 557" width="54.181" height="29.908" transform="translate(0 93.191)" fill="#0d1252"/>
      <rect id="Rectangle_558" data-name="Rectangle 558" width="16.471" height="3.468" transform="translate(19.072 98.392)" fill="#0d1252" opacity="0.1"/>
      <rect id="Rectangle_559" data-name="Rectangle 559" width="12.353" height="2.601" transform="translate(21.131 98.826)" fill="#0d1252" opacity="0.1"/>
      <rect id="Rectangle_560" data-name="Rectangle 560" width="54.181" height="29.908" transform="translate(55.048 93.191)" fill="#0d1252"/>
      <rect id="Rectangle_561" data-name="Rectangle 561" width="16.471" height="3.468" transform="translate(74.119 98.392)" fill="#0d1252" opacity="0.1"/>
      <rect id="Rectangle_562" data-name="Rectangle 562" width="12.353" height="2.601" transform="translate(76.178 98.826)" fill="#0d1252" opacity="0.1"/>
      <rect id="Rectangle_563" data-name="Rectangle 563" width="54.181" height="29.908" transform="translate(0 62.416)" fill="#0d1252"/>
      <rect id="Rectangle_564" data-name="Rectangle 564" width="16.471" height="3.468" transform="translate(19.072 67.618)" fill="#0d1252" opacity="0.1"/>
      <rect id="Rectangle_565" data-name="Rectangle 565" width="12.353" height="2.601" transform="translate(21.131 68.051)" fill="#0d1252" opacity="0.1"/>
      <rect id="Rectangle_566" data-name="Rectangle 566" width="54.181" height="29.908" transform="translate(55.048 62.416)" fill="#0d1252"/>
      <rect id="Rectangle_567" data-name="Rectangle 567" width="16.471" height="3.468" transform="translate(74.119 67.618)" fill="#0d1252" opacity="0.1"/>
      <rect id="Rectangle_568" data-name="Rectangle 568" width="12.353" height="2.601" transform="translate(76.178 68.051)" fill="#0d1252" opacity="0.1"/>
      <rect id="Rectangle_569" data-name="Rectangle 569" width="54.181" height="29.908" transform="translate(0 31.208)" fill="#0d1252"/>
      <rect id="Rectangle_570" data-name="Rectangle 570" width="16.471" height="3.468" transform="translate(19.072 36.41)" fill="#0d1252" opacity="0.1"/>
      <rect id="Rectangle_571" data-name="Rectangle 571" width="12.353" height="2.601" transform="translate(21.131 36.843)" fill="#0d1252" opacity="0.1"/>
      <rect id="Rectangle_572" data-name="Rectangle 572" width="54.181" height="29.908" transform="translate(55.048 31.208)" fill="#0d1252"/>
      <rect id="Rectangle_573" data-name="Rectangle 573" width="16.471" height="3.468" transform="translate(74.119 36.41)" fill="#0d1252" opacity="0.1"/>
      <rect id="Rectangle_574" data-name="Rectangle 574" width="12.353" height="2.601" transform="translate(76.178 36.843)" fill="#0d1252" opacity="0.1"/>
      <rect id="Rectangle_575" data-name="Rectangle 575" width="54.181" height="29.908" transform="translate(55.048 0)" fill="#0d1252"/>
      <rect id="Rectangle_576" data-name="Rectangle 576" width="16.471" height="3.468" transform="translate(74.119 5.201)" fill="#0d1252" opacity="0.1"/>
      <rect id="Rectangle_577" data-name="Rectangle 577" width="12.353" height="2.601" transform="translate(76.178 5.635)" fill="#0d1252" opacity="0.1"/>
    </g>
    <path id="Path_1142" data-name="Path 1142" d="M725.043,464.141a1.973,1.973,0,0,0-1.079-1.552,2.015,2.015,0,0,0-2.67,1.127l-9.627,20.255L709.5,563.725h3.468l1.3-79.576L724.861,465.4a2.059,2.059,0,0,0,.182-1.257Z" transform="translate(879.08 895.352)" fill="#63b4fa"/>
    <ellipse id="Ellipse_2996" data-name="Ellipse 2996" cx="13.003" cy="13.003" rx="13.003" ry="13.003" transform="translate(1551.087 1460.594)" fill="#121c7a"/>
    <ellipse id="Ellipse_2997" data-name="Ellipse 2997" cx="8.235" cy="8.235" rx="8.235" ry="8.235" transform="translate(1555.855 1465.361)" fill="#233187"/>
    <path id="Path_1143" data-name="Path 1143" d="M630,680.93l8.53,19.288a1.656,1.656,0,0,0,3,.061l10.138-20.649Z" transform="translate(924.121 772.295)" fill="#121c7a"/>
    <ellipse id="Ellipse_2998" data-name="Ellipse 2998" cx="13.003" cy="13.003" rx="13.003" ry="13.003" transform="translate(1470.033 1460.594)" fill="#121c7a"/>
    <ellipse id="Ellipse_2999" data-name="Ellipse 2999" cx="8.235" cy="8.235" rx="8.235" ry="8.235" transform="translate(1474.801 1465.361)" fill="#233187"/>
    <path id="Path_1144" data-name="Path 1144" d="M443,680.93l8.53,19.288a1.656,1.656,0,0,0,3,.061l10.138-20.649Z" transform="translate(1030.066 772.295)" fill="#121c7a"/>
    <path id="Path_1145" data-name="Path 1145" d="M732.876,466.141a1.972,1.972,0,0,0-1.079-1.552,2.015,2.015,0,0,0-2.67,1.127l-7.46,18.521L719.5,567.459h3.468l1.3-83.044,8.426-17.017a2.059,2.059,0,0,0,.182-1.257Z" transform="translate(873.415 894.219)" fill="#63b4fa"/>
    <path id="Path_1146" data-name="Path 1146" d="M368.5,551.712l11.7-7.369,126.35-1.084,3.251,8.452Z" transform="translate(1084.412 903.465)" fill="#fff"/>
    <path id="Path_1147" data-name="Path 1147" d="M368.5,568.749v-7.8l143.592-1.387-.139,5.288H371.1v3.9Z" transform="translate(1084.412 894.229)" fill="#63b4fa"/>
    <ellipse id="Ellipse_3000" data-name="Ellipse 3000" cx="13.003" cy="13.003" rx="13.003" ry="13.003" transform="translate(1458.113 1465.145)" fill="#fff"/>
    <ellipse id="Ellipse_3001" data-name="Ellipse 3001" cx="8.235" cy="8.235" rx="8.235" ry="8.235" transform="translate(1462.881 1469.914)" fill="#233187"/>
    <path id="Path_1148" data-name="Path 1148" d="M415.5,691.43l8.53,19.288a1.656,1.656,0,0,0,3,.061l10.138-20.649Z" transform="translate(1045.646 766.346)" fill="#63b4fa"/>
    <ellipse id="Ellipse_3002" data-name="Ellipse 3002" cx="13.003" cy="13.003" rx="13.003" ry="13.003" transform="translate(1559.106 1465.145)" fill="#fff"/>
    <ellipse id="Ellipse_3003" data-name="Ellipse 3003" cx="8.235" cy="8.235" rx="8.235" ry="8.235" transform="translate(1563.874 1469.914)" fill="#233187"/>
    <path id="Path_1149" data-name="Path 1149" d="M648.5,691.43l8.53,19.288a1.656,1.656,0,0,0,3,.061l10.138-20.649Z" transform="translate(913.64 766.346)" fill="#63b4fa"/>
    <rect id="Rectangle_1035" data-name="Rectangle 1035" width="54.181" height="29.908" transform="translate(1469.166 1421.15)" fill="#63b4fa"/>
    <rect id="Rectangle_1036" data-name="Rectangle 1036" width="16.471" height="3.468" transform="translate(1488.237 1426.352)" opacity="0.1"/>
    <rect id="Rectangle_1037" data-name="Rectangle 1037" width="12.353" height="2.601" transform="translate(1490.296 1426.785)" fill="#fff"/>
    <rect id="Rectangle_1038" data-name="Rectangle 1038" width="54.181" height="29.908" transform="translate(1524.214 1421.15)" fill="#63b4fa"/>
    <rect id="Rectangle_1039" data-name="Rectangle 1039" width="16.471" height="3.468" transform="translate(1543.285 1426.352)" opacity="0.1"/>
    <rect id="Rectangle_1040" data-name="Rectangle 1040" width="12.353" height="2.601" transform="translate(1545.344 1426.785)" fill="#fff"/>
    <rect id="Rectangle_1041" data-name="Rectangle 1041" width="54.181" height="29.908" transform="translate(1469.166 1390.375)" fill="#f60"/>
    <rect id="Rectangle_1042" data-name="Rectangle 1042" width="16.471" height="3.468" transform="translate(1488.237 1395.578)" opacity="0.1"/>
    <rect id="Rectangle_1043" data-name="Rectangle 1043" width="12.353" height="2.601" transform="translate(1490.296 1396.01)" fill="#fff"/>
    <rect id="Rectangle_1044" data-name="Rectangle 1044" width="54.181" height="29.908" transform="translate(1524.214 1390.375)" fill="#63b4fa"/>
    <rect id="Rectangle_1045" data-name="Rectangle 1045" width="16.471" height="3.468" transform="translate(1543.285 1395.578)" opacity="0.1"/>
    <rect id="Rectangle_1046" data-name="Rectangle 1046" width="12.353" height="2.601" transform="translate(1545.344 1396.01)" fill="#fff"/>
    <rect id="Rectangle_1047" data-name="Rectangle 1047" width="54.181" height="29.908" transform="translate(1469.166 1359.168)" fill="#63b4fa"/>
    <rect id="Rectangle_1048" data-name="Rectangle 1048" width="16.471" height="3.468" transform="translate(1488.237 1364.367)" opacity="0.1"/>
    <rect id="Rectangle_1049" data-name="Rectangle 1049" width="12.353" height="2.601" transform="translate(1490.296 1364.803)" fill="#fff"/>
    <rect id="Rectangle_1050" data-name="Rectangle 1050" width="54.181" height="29.908" transform="translate(1524.214 1359.168)" fill="#f60"/>
    <rect id="Rectangle_1051" data-name="Rectangle 1051" width="16.471" height="3.468" transform="translate(1543.285 1364.367)" opacity="0.1"/>
    <rect id="Rectangle_1052" data-name="Rectangle 1052" width="12.353" height="2.601" transform="translate(1545.344 1364.803)" fill="#fff"/>
    <rect id="Rectangle_1053" data-name="Rectangle 1053" width="54.181" height="29.908" transform="translate(1524.214 1327.959)" fill="#63b4fa"/>
    <rect id="Rectangle_1054" data-name="Rectangle 1054" width="16.471" height="3.468" transform="translate(1543.285 1333.16)" opacity="0.1"/>
    <rect id="Rectangle_1055" data-name="Rectangle 1055" width="12.353" height="2.601" transform="translate(1545.344 1333.594)" fill="#fff"/>
  </g>
</svg>
