<svg xmlns="http://www.w3.org/2000/svg" width="462.448" height="462.448"><defs><linearGradient id="a" x1=".5" y1="1" x2=".5" gradientUnits="objectBoundingBox"><stop offset="0" stop-color="gray" stop-opacity=".251"/><stop offset=".54" stop-color="gray" stop-opacity=".122"/><stop offset="1" stop-color="gray" stop-opacity=".102"/></linearGradient></defs><g data-name="HRM Illustration woT" transform="translate(-720.103 -2046.523)"><rect data-name="Rectangle 967" width="327" height="327" rx="25" transform="rotate(45 -1994.708 2171.615)" fill="#152668"/><g data-name="Icon feather-settings"><path data-name="Path 87" d="M1056.991 2269.386a9.577 9.577 0 00-.886 10.7l.246.426a11.615 11.615 0 11-20.12 11.613l-.245-.426a9.655 9.655 0 00-17.585 2.377l-.255.953a11.61 11.61 0 01-22.427-6.013l.135-.504a9.577 9.577 0 00-3.785-10.09 9.577 9.577 0 00-10.7-.885l-.426.246a11.616 11.616 0 11-11.612-20.12l.426-.247a9.655 9.655 0 00-2.377-17.584l-.954-.256a11.61 11.61 0 116.013-22.426l.504.136a9.577 9.577 0 0010.09-3.785 9.577 9.577 0 00.886-10.7l-.246-.427a11.616 11.616 0 1120.121-11.613l.247.427a9.577 9.577 0 009.707 4.585l.449.12a9.577 9.577 0 007.872-6.963l.256-.954a11.61 11.61 0 0122.427 6.013l-.136.504a9.655 9.655 0 0014.037 10.856l.426-.246a11.616 11.616 0 1111.613 20.12l-.427.246a9.577 9.577 0 00-4.585 9.708l-.12.448a9.577 9.577 0 006.963 7.873l.954.256a11.61 11.61 0 11-6.013 22.425l-.504-.135a9.577 9.577 0 00-9.968 3.333z" fill="#0d1252"/><path data-name="Path 86" d="M1036.832 2245.953a17.414 17.414 0 11-12.31-21.33 17.414 17.414 0 0112.31 21.33z" fill="#233187" stroke="#fff" stroke-linecap="round" stroke-linejoin="round" stroke-width="8.00096"/></g><g data-name="Icon feather-settings" fill="#0d1252"><path data-name="Path 87" d="M919.437 2284.67a9.513 9.513 0 00-.882 10.627l.244.424a11.537 11.537 0 11-19.986 11.533l-.245-.424a9.59 9.59 0 00-17.464 2.359l-.254.946a11.53 11.53 0 01-22.275-5.972l.135-.501a9.513 9.513 0 00-3.761-10.017 9.513 9.513 0 00-10.628-.882l-.424.244a11.537 11.537 0 11-11.528-19.987l.424-.244a9.59 9.59 0 00-2.358-17.465l-.947-.254a11.53 11.53 0 115.972-22.275l.501.135a9.513 9.513 0 0010.017-3.761 9.513 9.513 0 00.882-10.628l-.25-.42a11.539 11.539 0 1119.989-11.533l.245.424a9.513 9.513 0 009.643 4.553l.445.12a9.513 9.513 0 007.822-6.912l.254-.946a11.53 11.53 0 0122.275 5.972l-.134.501a9.59 9.59 0 0013.942 10.78l.424-.245a11.537 11.537 0 1111.534 19.984l-.424.245a9.513 9.513 0 00-4.553 9.643l-.12.445a9.513 9.513 0 006.912 7.823l.946.254a11.53 11.53 0 01-5.972 22.275l-.501-.135a9.513 9.513 0 00-9.898 3.316z"/><path data-name="Path 86" d="M899.832 2261.953a17.414 17.414 0 11-12.31-21.33 17.414 17.414 0 0112.31 21.33z" stroke="#fff" stroke-linecap="round" stroke-linejoin="round" stroke-width="8.00096"/></g><g data-name="Group 193" transform="translate(850.636 2175.168)"><circle data-name="Ellipse 2654" cx="69.377" cy="69.377" r="69.377" transform="translate(30.478 4.273)" fill="url(#a)"/><circle data-name="Ellipse 2655" cx="68.227" cy="68.227" r="68.227" transform="translate(31.628 5.423)" fill="#489ae2"/><path data-name="Path 748" d="M99.856 19.414a54.237 54.237 0 11-54.237 54.237 54.237 54.237 0 0154.237-54.237z" fill="#fff"/><path data-name="Rectangle 410" fill="#233187" opacity=".3" d="M98.322 28.996h3.066v47.912h-3.066z"/><g data-name="Group 127" transform="translate(70.756 58.16)" opacity=".1"><path data-name="Rectangle 411" d="M32.358 14.341h43.313v3.833H32.358z"/><path data-name="Rectangle 412" d="M0 3.396L1.778 0l27.253 14.272-1.778 3.396z"/><circle data-name="Ellipse 2657" cx="5.749" cy="5.749" r="5.749" transform="translate(23.35 10.508)"/></g><path data-name="Rectangle 413" fill="#0c1475" d="M103.114 71.734h43.313v3.833h-43.313z"/><path data-name="Rectangle 414" fill="#0c1475" d="M72.547 57.398L99.8 71.67l-1.778 3.395-27.253-14.271z"/><circle data-name="Ellipse 2658" cx="5.749" cy="5.749" r="5.749" transform="translate(94.106 67.901)" fill="#0c1475"/><path data-name="Path 292" d="M119.461 50.369s4.289 1.575 7.091.351l1.4.088a6.2 6.2 0 004.791.9" opacity=".05"/><path data-name="Path 293" d="M139.771 47.743s-.7 1.664-.351 2.189" opacity=".05"/><path data-name="Path 294" d="M111.845 47.218s.351 1.664 0 2.189" opacity=".05"/></g></g></svg>