<svg xmlns="http://www.w3.org/2000/svg" width="849.866" height="570.047"><defs><linearGradient id="a" x1="-2.193" y1="1" x2="-2.193" gradientUnits="objectBoundingBox"><stop offset="0" stop-color="gray" stop-opacity=".251"/><stop offset=".54" stop-color="gray" stop-opacity=".122"/><stop offset="1" stop-color="gray" stop-opacity=".102"/></linearGradient></defs><g transform="translate(-942.134 -1266.453)"><rect data-name="Rectangle 391" width="330.867" height="256.822" rx="20" transform="translate(1292.134 1548.453)" fill="#489ae2" opacity=".14"/><text data-name="4" transform="translate(1331.134 1621)" fill="#fff" font-size="20" font-family="Poppins-Regular, Poppins"><tspan x="0" y="0">4</tspan></text><text data-name="10%" transform="translate(1563 1621)" fill="#fff" font-size="20" font-family="Poppins-Regular, Poppins"><tspan x="0" y="0">10%</tspan></text><text data-name="3" transform="translate(1331.134 1668)" fill="#fff" font-size="20" font-family="Poppins-Regular, Poppins"><tspan x="0" y="0">3</tspan></text><text data-name="30%" transform="translate(1557 1668)" fill="#fff" font-size="20" font-family="Poppins-Regular, Poppins"><tspan x="0" y="0">30%</tspan></text><text data-name="2" transform="translate(1331.134 1713)" fill="#fff" font-size="20" font-family="Poppins-Regular, Poppins"><tspan x="0" y="0">2</tspan></text><text data-name="60%" transform="translate(1556 1713)" fill="#fff" font-size="20" font-family="Poppins-Regular, Poppins"><tspan x="0" y="0">60%</tspan></text><text data-name="Interviews to hire" transform="translate(1369.134 1771)" fill="#fff" font-size="22" font-family="Poppins-Medium, Poppins" font-weight="500"><tspan x="0" y="0">Interviews to hire</tspan></text><path data-name="Line 9" fill="none" stroke="#489ae2" stroke-width="10" d="M1365.134 1704.5h125.5"/><path data-name="Line 10" fill="none" stroke="#489ae2" stroke-width="10" d="M1365.134 1659.5h59.5"/><path data-name="Line 11" fill="none" stroke="#489ae2" stroke-width="10" d="M1365.134 1614.5h24.5"/></g><g transform="translate(-942.134 -1266.453)"><rect data-name="Rectangle 390" width="317.867" height="256.822" rx="20" transform="translate(942.134 1548.453)" fill="#489ae2" opacity=".15"/><text data-name="4" transform="translate(971 1621)" fill="#fff" font-size="20" font-family="Poppins-Regular, Poppins"><tspan x="0" y="0">4</tspan></text><text data-name="25%" transform="translate(1196 1621)" fill="#fff" font-size="20" font-family="Poppins-Regular, Poppins"><tspan x="0" y="0">25%</tspan></text><text data-name="3" transform="translate(971 1668)" fill="#fff" font-size="20" font-family="SegoeUI, Segoe UI"><tspan x="0" y="0">3</tspan></text><text data-name="47%" transform="translate(1197 1668)" fill="#fff" font-size="20" font-family="Poppins-Regular, Poppins"><tspan x="0" y="0">47%</tspan></text><text data-name="2" transform="translate(972 1713)" fill="#fff" font-size="20" font-family="Poppins-Regular, Poppins"><tspan x="0" y="0">2</tspan></text><text data-name="14%" transform="translate(1202 1713)" fill="#fff" font-size="20" font-family="Poppins-Regular, Poppins"><tspan x="0" y="0">14%</tspan></text><text data-name="Submittals to interview" transform="translate(974.134 1771)" fill="#fff" font-size="22" font-family="Poppins-Medium, Poppins" font-weight="500"><tspan x="0" y="0">Submittals to interview</tspan></text><path data-name="Line 8" fill="none" stroke="#489ae2" stroke-width="10" d="M1005.134 1704.5h59.5"/><path data-name="Line 7" fill="none" stroke="#489ae2" stroke-width="10" d="M1005.134 1659.5h144.5"/><path data-name="Line 6" fill="none" stroke="#489ae2" stroke-width="10" d="M1005.134 1614.5h95.5"/></g><g transform="translate(-942.134 -1266.453)"><rect data-name="Rectangle 389" width="680.867" height="249.822" rx="20" transform="translate(942.134 1266.453)" fill="#489ae2" opacity=".15"/><text data-name="Customer Satisfaction" transform="translate(995.134 1327)" fill="#fff" font-size="25" font-family="Poppins-Medium, Poppins" font-weight="500"><tspan x="0" y="0">Customer Satisfaction</tspan></text><text data-name="Fill Rate" transform="translate(995.134 1426)" fill="#fff" font-size="25" font-family="Poppins-Medium, Poppins" font-weight="500"><tspan x="0" y="0">Fill Rate</tspan></text><text data-name="90%" transform="translate(1463.134 1327)" fill="#489ae2" font-size="25" font-family="Poppins-Regular, Poppins"><tspan x="0" y="0">90%</tspan></text><text data-name="85%" transform="translate(1429.134 1426)" fill="#489ae2" font-size="25" font-family="Poppins-Regular, Poppins"><tspan x="0" y="0">85%</tspan></text><path data-name="Line 5" fill="none" stroke="#fff" stroke-width="10" d="M995.134 1449.5h552.5"/><path data-name="Line 3" fill="none" stroke="#fff" stroke-width="10" d="M995.134 1350.5h552.5"/><path data-name="Line 4" fill="none" stroke="#489ae2" stroke-width="10" d="M995.134 1449.5h460.5"/><path data-name="Line 2" fill="none" stroke="#489ae2" stroke-width="10" d="M995.134 1350.5h494.5"/></g><g transform="translate(636.398 126.055)"><ellipse data-name="Ellipse 2614" cx="80.91" cy="20.227" rx="80.91" ry="20.227" transform="translate(51.648 403.538)" fill="#364995"/><path data-name="Path 166" d="M356.485 385.548c2.7 12.3 7.581 27.466 7.581 27.466-4.821 5.625-25.852 6.631-25.852 6.631l-.035-.042h-.328a25.542 25.542 0 01-.517 2.236q.056 1.055.1 2.138a5.834 5.834 0 01.3 2.627 5.955 5.955 0 01-.154.587c.5 11.137.859 23.015.552 29.877a28.755 28.755 0 01-.594 5.785 20.83 20.83 0 00-.615 4.437c-.342 10.04 2.1 26.907 2.1 26.907s-.063.231-.1.349c.042.286.07.454.07.454a7.959 7.959 0 00-.356 2.1c-.182 8.468 4.674 26.893 4.674 26.893s3.927 28.332 3.368 39.127a24.9 24.9 0 01-.189 2.578c-1.2 8.978-2.795 34.048-2.795 34.048a11.262 11.262 0 01-.915 1.181c.14.559.307 1.125.489 1.684a47.232 47.232 0 012.341 17.551c-.049.7-.1 1.46-.175 2.229-.8 9.251-23.183 3.493-24.657 2.418-.5-.37-.147-3.724.545-7.979l-23.057 5.694s-16.35 2.418-24.126 0-7.5-9.083 3.619-10.18c7.79-.755 13.974-8.007 17.027-12.29-1.181-3.221-10.033-27.669-11.661-42.8a214.266 214.266 0 00-5.163-29.01l-1.74-22.519-3.088-13.275-3.682-17.551c-4.157-12.87-5.429-34.383-5.429-34.383l-3.212-21.116a40.862 40.862 0 01-.748-6.959 78.023 78.023 0 00-8.909 2.383c-5.031-3.913 2.1-41.615 2.1-41.615s3.431-23.812 6.337-45.521a44.485 44.485 0 00-13.876.566l-42.223.929a21.457 21.457 0 01-2.264-3.689h-1.81a3.877 3.877 0 01-.524-1.02l-.748.14a62.449 62.449 0 00-8.077 2.452s-13.317 1.607-11.305-12.36c1.5-10.411 13.345-6.631 19.27-4.046l.748.342c.056-.391.091-.615.091-.615l1.907.349a9.219 9.219 0 01.4-.852s20.71-.8 37.5-3.319c11.941-1.789 20.961-8.615 25.2-12.4 2.942-14.931 11.487-19.466 11.487-19.466a25.57 25.57 0 0011.647-3.941 24.615 24.615 0 002.725-1.887l.461.265.056-.049c-2.844-2.641-5.792-5.066-8.384-7.1l-1.167-.9a25.9 25.9 0 01-21.157-36.27c.112-.252.245-.5.363-.748a5.813 5.813 0 01-5.128-5.052c-.259-2.928 1.761-6.044.44-8.671a8.422 8.422 0 01-.629-1.223 3.3 3.3 0 01-.1-1.23 8.657 8.657 0 013.494-6.288c3-2.173 5.659-1.069 8.936-1.258A107.885 107.885 0 00278.2 198.6a38.971 38.971 0 0112.947-.426c4.276.748 8.461 2.844 10.942 6.407 1.062 1.523 1.782 3.263 2.795 4.835 1.139 1.817 2.613 3.389 3.92 5.08 2.2 2.844 3.983 6.253 3.808 9.845-.1 2.033-.817 3.99-.957 6.023a36.674 36.674 0 00.419 5.659 24.777 24.777 0 01-.412 7.218 4.472 4.472 0 01-.824 2.054 4.381 4.381 0 01-1.817 1.167 16.223 16.223 0 01-2.229.7 31.922 31.922 0 003.123 5.625l1.132-1.174 3.06 4.779.119-.321c.147.3.314.587.489.873l.314-.873a18.372 18.372 0 006.854 6.861c8.007 5.031 19.179 7.113 19.179 7.113 18 2.613 14.673 21.206 14.673 21.206s7.637 33.174 9.782 53.681-5.827 33.573-5.827 33.573zm-85.836-60.633c-.7 2.285-1.314 4.451-1.838 6.344l.335.133c.384-1.754.908-4 1.481-6.477zm19.8-55.666l.1.063-.091-.091zM321.494 615.9c.88-5.261 2.194-11.612 3-15.406-.573-1.866-1.335-4.716-2.229-8.957-2.012-9.509-3.214-43.159-3.214-43.159l-4.7-28.27c-4.29-10.858-5.226-23.756-5.226-23.756-1.726-4.556-5.715-32.441-6.351-36.919.182 3.1.615 10.935.845 19.641v.238c.175 6.575.224 13.625 0 19.473-.063 1.642-.147 3.2-.258 4.639-.035.37-.056.755-.07 1.132-.5 15.162 6.288 34.237 6.288 34.237s3.025 14.142 2.578 22.044a14.549 14.549 0 01-.6 4.192 7.411 7.411 0 00-.342 1.942c-.126 7.56 4.339 23.428 5.478 27.319 2.495 5.124 4.346 18.197 4.801 21.61z" transform="translate(-175.632 -197.798)" fill="url(#a)"/><path data-name="Path 167" d="M120.952 397.467s-7.839 14.212-18.865 15.274-11.291 7.686-3.584 10.1 23.91 0 23.91 0l23.113-5.708s-2.795-22.848-6.5-24.042-18.074 4.376-18.074 4.376z" fill="#f2f2f2"/><path data-name="Path 168" d="M149.117 397.703s-5.848 26.3-4.388 27.368 23.644 6.771 24.455-2.4c.07-.762.126-1.5.168-2.208a46.562 46.562 0 00-2.32-17.4 14.414 14.414 0 01-.9-5.366c.383-3.687-17.015.006-17.015.006z" fill="#f2f2f2"/><path data-name="Path 169" d="M141.872 64.751s-17.929 44.018-14.743 29.9c2.1-9.377-11.536-21.821-20.961-29.136-4.8-3.731-8.517-6.128-8.517-6.128s33.678-39.253 31.288-22.317a25.5 25.5 0 001.838 13.667 35.83 35.83 0 0011.1 14.009z" fill="#cc7248"/><path data-name="Path 170" d="M27.298 127.306a10.306 10.306 0 00-4.1.258 60.52 60.52 0 00-8 2.432s-13.205 1.593-11.179-12.248c1.481-10.327 13.219-6.582 19.1-4.011 2 .873 3.326 1.614 3.326 1.614z" fill="#cc7248"/><path data-name="Path 171" d="M27.301 127.305a10.306 10.306 0 00-4.1.259c-1.432-3.626-.342-12.213-.112-13.827 2 .873 3.326 1.614 3.326 1.614z" opacity=".1"/><path data-name="Path 172" d="M27.368 114.121l-3.452-.636s-1.775 11.878.538 14.98h3.976z" fill="#f2f2f2"/><path data-name="Path 173" d="M96.644 135.772s-10.564-6.288-11.822 1.656-2.928 21.59-2.928 21.59l-2.921 17.335-3.787 34.74.531 5.911s11.228-3.759 13.883-2.459 4.787-14.573 4.787-14.573l4.381-16.475.7-34.935z" fill="#364995"/><path data-name="Path 174" d="M96.644 135.772s-10.564-6.288-11.822 1.656-2.928 21.59-2.928 21.59l-2.921 17.335-3.787 34.74.531 5.911s11.228-3.759 13.883-2.459 4.787-14.573 4.787-14.573l4.381-16.475.7-34.935z" fill="#489ae2" opacity=".68"/><path data-name="Path 175" d="M90.964 94.857s-10.963 12.353-27.6 14.847-37.164 3.284-37.164 3.284-5.177 9.265 2.292 19.13l41.845-.922s9.265-2.012 16.44 0z" fill="#489ae2"/><path data-name="Path 178" d="M128.99 50.357c-4.087 8.741-11.179 15.19-21.492 15.19h-1.342c-4.8-3.731-8.517-6.128-8.517-6.128s33.678-39.253 31.288-22.317c-.737 5.15-1.582 9.364.063 13.255z" opacity=".1"/><path data-name="Path 179" d="M133.165 39.08c0 14.177-1.923 25.946-16.275 25.95-6.315 0-15.743 5.748-20.144 1.785-5.088-4.576-15.552-19.781-15.554-27.721a25.83 25.83 0 0125.98-25.677 26.094 26.094 0 0118.394 7.5 25.457 25.457 0 017.599 18.163z" fill="#cc7248"/><path data-name="Path 180" d="M148.852 195.946s-57.252 5.052-59.39-2.257 5.841-27.1 5.841-27.1l-2.557-27.634-.1-1.062s7.155-29.891 6.917-32.252c-.245-2.145 11.55-27.249 13.974-32.357l.44-.922.454.266.2.119 2.795 1.635 11.088-2.613 13.345-6.987 1.265 76.438z" fill="#f2f2f2"/><path data-name="Path 181" d="M119.094 73.264a4.563 4.563 0 00-5.45 2.858 40.282 40.282 0 01-2.1 4.891l-1.53 9.083-2.795 14.344-2.054 63.582.922 11.319 5.115-9.083.929-59.39v-7.404a53.6 53.6 0 014.262-18.558l.7-1.67 4.451-5.708z" opacity=".1"/><path data-name="Path 182" d="M118.297 72.47a4.563 4.563 0 00-5.45 2.858 40.285 40.285 0 01-2.1 4.891l-1.53 9.083-2.795 14.344-2.057 63.583.936 11.291 5.115-9.083.929-59.39v-7.406a53.59 53.59 0 014.255-18.558l.7-1.67 4.465-5.687z" fill="#010000"/><path data-name="Path 183" d="M135.034 56.037s-13.548 14.351-18.327 16.07c0 0 2.39 10.893 4.779 13.017 0 0 14.219-14.5 16.769-15.672l2.1-5.163z" opacity=".1"/><path data-name="Path 184" d="M135.034 55.269s-13.548 14.351-18.327 16.07c0 0 2.39 10.893 4.779 13.017 0 0 14.219-14.5 16.769-15.672l2.1-5.163z" fill="#f2f2f2"/><path data-name="Path 185" d="M114.769 72.352l-.14.37-4.346 11.64-7.756 21.981s-.077.224-.21.643c-1.286 4-8.2 25.691-9.565 32l-.1-1.062s7.148-29.918 6.91-32.28c-.245-2.145 11.55-27.249 13.974-32.357.384-.266.7-.489.894-.657z" opacity=".1"/><path data-name="Path 186" d="M113.983 72.338l-4.486 12.025-7.763 21.981s-.077.224-.21.643c-1.362 4.262-9.125 28.577-9.782 33.028-.7 4.891-10.481 31.288-10.481 31.288l-5.59 45.73c-4.982-3.885 2.1-41.224 2.1-41.224s7.972-55.393 9.859-73.818 12.109-23.875 12.109-23.875a25.366 25.366 0 0011.543-3.906 24.647 24.647 0 002.7-1.872z" fill="#489ae2"/><path data-name="Path 187" d="M170.232 366.514c-1.195 8.9-2.795 33.747-2.795 33.747-5.59 8.384-17.936 3.85-17.936 3.85s-1.321-2.529-3.312-11.962-3.193-42.775-3.193-42.775l-4.656-28.028c-4.248-10.76-5.177-23.511-5.177-23.511-1.859-4.891-6.379-37.2-6.379-37.2s1.866 28.961.7 44.235 6.107 35.871 6.107 35.871 4.122 19.263 1.991 25.237 5.317 30.687 5.317 30.687c-.664 7.176-21.786 4.248-21.786 4.248s-9.964-26.7-11.689-42.775a212.308 212.308 0 00-5.121-28.759l-1.719-22.316-3.06-13.15-3.654-17.4c-4.115-12.758-5.38-34.076-5.38-34.076l-3.186-20.919c-2.1-10.348.608-22.477 2.424-28.849.783-2.746 1.4-4.43 1.4-4.43 1.831 1.3 12.311 2.795 17.733 4.06a30.859 30.859 0 009.083.7 201.809 201.809 0 0040.455-7.4l1.4-.419.279 2.39.657 5.7 1.16 10.11s3.591 53.933 1.467 61.241 1.46 31.854 1.46 31.854c-1.991 5.827 4.248 29.513 4.248 29.513s4.357 31.631 3.162 40.526z" opacity=".1"/><path data-name="Path 188" d="M170.232 365.716c-1.195 8.9-2.795 33.747-2.795 33.747-5.59 8.384-17.936 3.85-17.936 3.85s-1.321-2.529-3.312-11.962-3.193-42.775-3.193-42.775l-4.657-28.024c-4.248-10.76-5.177-23.511-5.177-23.511-1.859-4.891-6.379-37.2-6.379-37.2s1.866 28.961.7 44.235 6.107 35.871 6.107 35.871 4.122 19.263 1.991 25.237 5.317 30.687 5.317 30.687c-.664 7.176-21.786 4.248-21.786 4.248s-9.964-26.7-11.689-42.775a212.3 212.3 0 00-5.122-28.759l-1.719-22.317-3.06-13.15-3.654-17.4c-4.115-12.758-5.38-34.076-5.38-34.076l-3.186-20.926c-2.1-10.341.608-22.47 2.424-28.842.783-2.746 1.4-4.43 1.4-4.43 1.831 1.3 12.311 2.795 17.733 4.059a30.853 30.853 0 009.083.7 201.808 201.808 0 0040.455-7.4l1.4-.419.279 2.39.657 5.7 1.16 10.11s3.591 53.933 1.467 61.241 1.438 31.864 1.438 31.864c-1.991 5.827 4.248 29.513 4.248 29.513s4.381 31.62 3.186 40.514z" fill="#010000"/><path data-name="Path 189" d="M133.169 39.079a25.615 25.615 0 01-3.4 12.765 13.536 13.536 0 01-11.277-2.718c-2.047-1.8-3.368-4.269-5.128-6.358a37.375 37.375 0 00-3.668-3.619 11.36 11.36 0 00-2.893-2.1 3.927 3.927 0 00-3.493-.042c-1.4.79-1.9 2.543-2.7 3.948a5.268 5.268 0 01-2.942 2.564 3.116 3.116 0 01-3.499-1.188c-.866-1.5-.231-3.829-1.691-4.737a8.806 8.806 0 00-1.188-.482c-1.88-.852-2.1-3.375-2.25-5.429a3.4 3.4 0 00-1.153-2.7c-.852-.545-1.963-.272-2.977-.245a4.194 4.194 0 01-.894-.077 25.67 25.67 0 0149.14 10.4z" opacity=".1"/><path data-name="Path 190" d="M82.482 5.731a8.524 8.524 0 00-3.459 6.2 3.263 3.263 0 00.091 1.223 9.083 9.083 0 00.622 1.216c1.314 2.6-.7 5.687-.433 8.594a5.715 5.715 0 005.59 5.017c1.013 0 2.1-.3 2.976.245a3.312 3.312 0 011.153 2.7c.161 2.061.37 4.583 2.25 5.429a9.852 9.852 0 011.188.489c1.46.908.818 3.249 1.691 4.73a3.109 3.109 0 003.493 1.2 5.3 5.3 0 002.942-2.564c.8-1.4 1.286-3.158 2.7-3.948a3.948 3.948 0 013.493.035 11.389 11.389 0 012.893 2.1 38.171 38.171 0 013.668 3.619c1.761 2.1 3.081 4.556 5.135 6.358 3.857 3.389 9.782 3.724 14.533 1.8a4.444 4.444 0 001.8-1.153 4.513 4.513 0 00.838-2.068 24.834 24.834 0 00.412-7.155 36.116 36.116 0 01-.419-5.59c.133-2.012.852-3.955.95-5.967.175-3.556-1.593-6.938-3.773-9.782-1.3-1.677-2.76-3.235-3.885-5.031-.978-1.558-1.691-3.284-2.746-4.793-2.459-3.493-6.61-5.59-10.844-6.351s-8.587-.279-12.835.419a105.589 105.589 0 01-11.179 1.733c-3.234.198-5.875-.899-8.845 1.295z" fill="#010000"/><path data-name="Path 191" d="M113.98 72.338l-4.486 12.025-7.763 21.981s-.077.224-.21.643l9.782-32.776a24.643 24.643 0 002.677-1.873z" opacity=".1"/><path data-name="Path 192" d="M162.462 209.899s.468 14.54-3.452 18.166l-10.419-19.661 8.757-4.241z" fill="#ffb9b9"/><path data-name="Path 193" d="M186.805 215.209c-4.786 5.59-25.6 6.575-25.6 6.575l-20.633-32.476s-4.891-3.389-14.037-18.634-8.867-27-8.384-35.767 6.288-33.978 6.288-33.978c.887-5.673 13.737-41.224 13.737-41.224a18.214 18.214 0 006.8 6.8c7.93 4.968 19.019 7 19.019 7 17.838 2.592 14.547 21.024 14.547 21.024s.217 71.666-.9 80.232 9.163 40.448 9.163 40.448z" opacity=".1"/><path data-name="Path 194" d="M162.728 212.687l-.594 5.31-7.246-2.655-5.31-8.035 3.983-3.123z" fill="#cbcdda"/><path data-name="Path 195" d="M162.48 192.095l-3.787.384-36.528 3.647a59.175 59.175 0 01-17.551-.859l-16.93-3.389c.783-2.746 1.4-4.43 1.4-4.43 1.831 1.3 12.311 2.795 17.733 4.059a30.851 30.851 0 009.083.7 201.807 201.807 0 0040.5-7.4l1.649 1.97z" opacity=".1"/><g data-name="Group 113" opacity=".1"><path data-name="Path 196" d="M89.497 187.652a3.806 3.806 0 01-.356-.2l-.035.1z"/><path data-name="Path 197" d="M167.081 325.199s-6.246-23.686-4.248-29.513c0 0-3.591-24.545-1.46-31.854s-1.467-61.241-1.467-61.241l-1.181-10.11-.7-5.7-.279-2.39s-.475.154-1.4.419l-.845.251.2.936.664 5.7 1.181 10.11s3.584 53.926 1.467 61.241 1.453 31.854 1.453 31.854c-1.991 5.827 4.248 29.513 4.248 29.513s4.388 31.623 3.193 40.525-2.795 33.74-2.795 33.74c-4.073 6.121-11.766 5.352-15.609 4.493.042.1.07.161.07.161s12.353 4.514 17.936-3.85c0 0 1.593-24.846 2.795-33.747s-3.223-40.538-3.223-40.538z"/><path data-name="Path 198" d="M135.598 365.185c2.1-5.974-2-25.237-2-25.237s-7.294-20.591-6.1-35.871c.5-6.365.461-15.1.252-23.127-1.7-10.341-3.312-21.9-3.312-21.9s1.866 28.954.664 44.235 6.107 35.871 6.107 35.871 4.122 19.263 1.991 25.237 5.317 30.687 5.317 30.687c-.531 5.75-14.184 5.017-19.564 4.493l.2.552s21.122 2.928 21.779-4.248c-.024-.005-7.458-24.725-5.334-30.692z"/></g><path data-name="Path 199" d="M187.602 215.209c-4.786 5.59-25.6 6.575-25.6 6.575l-20.626-32.476s-4.891-3.389-14.044-18.634-8.867-27-8.384-35.767 6.288-33.978 6.288-33.978c.887-5.673 13.737-41.224 13.737-41.224a18.214 18.214 0 006.8 6.8c7.937 4.968 19.012 7 19.012 7 17.838 2.592 14.547 21.024 14.547 21.024s.2 71.638-.9 80.2 9.17 40.48 9.17 40.48z" fill="#489ae2"/><path data-name="Path 200" d="M142.773 77.32l-4.486 1.691 2.99 2.1-22.3 53.8c.517-8.769 6.288-33.978 6.288-33.978.887-5.673 13.737-41.224 13.737-41.224a18.213 18.213 0 006.8 6.8z" fill="#364995" opacity=".1"/><path data-name="Path 201" d="M148.146 173.161l22.82-5.876 2.99 9.265-23.316 5.68z" opacity=".1"/><path data-name="Path 202" d="M161.204 81.107s-10.362 9.782-6.477 31.484 10.161 45.331 10.161 45.331l-16.874 46.729s11.759 12.255 17.537 13.743l16.839-37.36s7.867-12.954 5.778-33.272-9.663-53.206-9.663-53.206.034-20.024-17.301-13.449z" opacity=".1"/><path data-name="Path 203" d="M161.987 81.107s-10.362 9.782-6.477 31.484 10.159 45.332 10.159 45.332l-16.818 46.729s11.738 12.255 17.53 13.743l16.839-37.36s7.867-12.954 5.778-33.272-9.663-53.206-9.663-53.206.001-20.025-17.348-13.45z" fill="#489ae2"/><path data-name="Path 204" d="M149.411 205.644s13.15 18.166 12.15 23.057-4.849 2.257-4.849 2.257l-5.205-7.113-4.653-13.275s.461-5.708 2.557-4.926z" opacity=".1"/><path data-name="Path 205" d="M147.783 205.643s13.157 18.166 12.157 23.057-4.849 2.257-4.849 2.257l-5.177-7.106-4.653-13.275s.454-5.715 2.522-4.933z" opacity=".1"/><path data-name="Path 206" d="M148.586 205.643s13.15 18.166 12.15 23.057-4.849 2.257-4.849 2.257l-5.177-7.106-4.653-13.275s.454-5.715 2.529-4.933z" fill="#474463"/></g></svg>