<svg xmlns="http://www.w3.org/2000/svg" width="462.448" height="462.448"><g data-name="Group 194" transform="rotate(-14.98 556.916 -31.216)"><rect data-name="Rectangle 968" width="327" height="327" rx="25" transform="rotate(60 191.154 160.188)" fill="#152566"/><rect data-name="Rectangle 433" width="84.964" height="123.382" rx="14" transform="rotate(-12.753 277.922 -307.748)" fill="#fff"/><path data-name="Rectangle 435" fill="#0d1252" d="M92.526 63.44l49.757-11.262 1.877 8.294-49.757 11.261z"/><path data-name="Rectangle 451" fill="#0d1252" d="M121.771 131.559l40.083-9.072 6.257 27.644-40.083 9.072z"/><path data-name="Rectangle 453" fill="#6c63ff" opacity=".3" d="M202.265 68.353l40.083-9.072 6.257 27.644-40.083 9.072z"/><rect data-name="Rectangle 460" width="84.964" height="123.382" rx="13.435" transform="rotate(-12.753 369.945 -775.655)" fill="#489ae2"/><circle data-name="Ellipse 2667" cx="2.451" cy="2.451" r="2.451" transform="translate(192.007 76.249)" fill="#fff"/><circle data-name="Ellipse 2668" cx="2.451" cy="2.451" r="2.451" transform="translate(194.316 85.237)" fill="#fff"/><circle data-name="Ellipse 2669" cx="2.451" cy="2.451" r="2.451" transform="translate(209.323 151.011)" fill="#fff"/><circle data-name="Ellipse 2670" cx="2.451" cy="2.451" r="2.451" transform="translate(211.632 159.999)" fill="#fff"/><path data-name="Rectangle 461" fill="#fff" d="M207.804 101.842l49.757-11.262 1.877 8.294-49.757 11.261z"/><path data-name="Rectangle 462" fill="#0d1252" d="M102.174 102.098l49.757-11.262 1.877 8.294-49.757 11.261z"/><path data-name="Rectangle 463" fill="#0d1252" d="M104.415 117.653l49.757-11.262 1.877 8.294-49.757 11.261z"/></g></svg>