<svg xmlns="http://www.w3.org/2000/svg" width="462.448" height="462.448"><g data-name="Staffing Illustration woT" transform="translate(-198.103 -2046.523)"><rect data-name="Rectangle 966" width="327" height="327" rx="25" transform="rotate(45 -2255.708 1541.505)" fill="#152668"/><path data-name="Path 233" d="M432.252 2203.883c-18.748 0-33.946 16.867-33.946 37.673v26.434h8.13l4.707-9.794-1.177 9.794h52.257l4.279-8.9-1.07 8.9h5.884v-20.756c-.001-23.942-17.49-43.351-39.064-43.351z" fill="#010000"/><circle data-name="Ellipse 2638" cx="24.166" cy="24.166" transform="translate(405.082 2215.964)" fill="#f19e77" r="24.166"/><path data-name="Intersection 2" d="M382.81 2299.5c1.721-7.188 12.088-14.314 19.257-18.473a28.309 28.309 0 0115.691-3.892 10.94 10.94 0 011.281.108c.209.021.428.05.636.09 2.811.567 26.439-3.934 26.439-3.934a21.35 21.35 0 011.669-.754 25.76 25.76 0 0118.218-.567 200.694 200.694 0 0112.177 4.688 5.552 5.552 0 012.771 2.7h.011s5.65 5.74 5.65 8.551c0 .332-.016 2.338-.046 5.624A70.355 70.355 0 01432 2319.5a70.277 70.277 0 01-49.19-20z" fill="#fff"/><path data-name="Path 237" d="M441.901 2214.26a17.8 17.8 0 00-14.047-7.168h-.666c-12.85 0-23.267 11.628-23.267 25.971h4.306l.7-5.293 1.02 5.293h25.537l2.139-4.478-.535 4.478h5.024q3.516 17.464-10.105 34.927h8.557l4.279-8.956-1.07 8.956h16.313l3.209-20.6c-.004-15.424-8.967-28.504-21.394-33.13z" fill="#010000"/><circle data-name="Ellipse 2639" cx="12.715" cy="12.715" transform="translate(433.877 2191)" fill="#010000" r="12.715"/><g data-name="Group 191" transform="translate(486.749 2195.643)" fill="#0d1252"><ellipse data-name="Ellipse 2640" cx="34.326" cy="36.439" rx="34.326" ry="36.439"/><circle data-name="Ellipse 2641" cx="18.058" cy="18.058" transform="translate(46.724 55.464)" r="18.058"/><path data-name="Path 238" d="M52.206 49.338L61.88 74.49 37.371 84.809l-2.152-4.878-7.523-17.05z"/><circle data-name="Ellipse 2642" cx="21.605" cy="21.605" transform="translate(11.253 22.573)" r="21.605"/><path data-name="Path 239" d="M15.199 41.808c13.58-9.061 17.639-11.228 33.2-7.727l.934-22.708L9.11 19.811z"/><path data-name="Path 240" d="M102.506 93.185l-.6.07a.381.381 0 00-.05-.06c-2.364-2.364-13.647-6.665-22.06-9.644h-.01a406.786 406.786 0 00-9.525-3.258L60.096 69.837c-2.563 2.88-7.976 5.105-13.121 6.674a103.041 103.041 0 01-12 2.861h-.01l-2.106 6.724S8.992 104.163 7.065 106.09h-.01v.02a1.049 1.049 0 00-.179.755v.05a87.576 87.576 0 00-1.843 17.522h103.929v-6.1c0-8.377-6.456-25.152-6.456-25.152z"/></g><g data-name="Group 192" transform="translate(263.65 2191.527)" fill="#0d1252"><circle data-name="Ellipse 2651" cx="27.856" cy="27.856" r="27.856" transform="translate(40.417 13.808)"/><path data-name="Path 248" d="M85.683 57.913l-2.322 47.586-35.98-20.891 4.642-26.7z"/><path data-name="Path 249" d="M96.13 107.82l-2.36 20.24H74.88l-20.5-39.39-5.78-11.09-2.77-1.81 3.21-.73 2.53 1.83 28.31 20.51 4.54-13.63.12-.35 1.14-3.43z"/><path data-name="Path 250" d="M46.702 11.411S54.925-3.021 74.656.46l-2.321 1.161S90.905-.7 88.584 9.746c0 0 15.089 9.285 11.607 19.731a118.093 118.093 0 00-4.643 18.57l-1.39-3.9s-1.758-1.615-3-6.036c-.727-2.6-.383-7.544-2.577-10.518-3.589-4.869-12.518-.98-21.335 0-15.669 1.741-21.3-3.452-22.93 1.88-.369 1.231.313 7.061 0 11.827a24.581 24.581 0 01-2.153 8.734l-2.329-4.312s-11.703-28.508 6.868-34.311z"/><path data-name="Path 251" d="M110.94 109.96l-.02-.01-14.79-13.74v-9.28l-11.42-9-.17 5.47-1.18 37.19-18.99-26.12-12.8-17.6-2.3-3.15.56-2.95-7.09 8.03-25.66 19.25-2.2 1.65a69.984 69.984 0 00-6.96 8.12c-.69 1.03-3.83 9.23-7.92 20.24h114.25c.28-5.8.45-9.83.45-10.95 0-5.57-3.47-7.04-3.76-7.15z"/></g><g data-name="Ellipse 2907" transform="translate(358 2175)" fill="none" stroke="#489ae2" stroke-width="10"><circle cx="74" cy="74" r="74" stroke="none"/><circle cx="74" cy="74" r="69"/></g><path data-name="Line 34" fill="none" stroke="#489ae2" stroke-linecap="round" stroke-width="10" d="M484.023 2301.023L510.5 2327.5"/><path data-name="Path 235" d="M415.393 2254.63s7.089 36.733 3.867 40.6 34.155-7.089 34.155-7.089-12.244-25.133-5.8-39.311z" fill="#f19e77"/></g></svg>