<svg xmlns="http://www.w3.org/2000/svg" xmlns:xlink="http://www.w3.org/1999/xlink" width="462.448" height="499.246" viewBox="0 0 462.448 499.246">
  <defs>
    <linearGradient id="linear-gradient" x1="0.5" y1="1" x2="0.5" gradientUnits="objectBoundingBox">
      <stop offset="0" stop-color="gray" stop-opacity="0.251"/>
      <stop offset="0.54" stop-color="gray" stop-opacity="0.122"/>
      <stop offset="1" stop-color="gray" stop-opacity="0.102"/>
    </linearGradient>
  </defs>
  <g id="HRM_Illustration" data-name="HRM Illustration" transform="translate(-720.103 -2046.523)">
    <rect id="Rectangle_967" data-name="Rectangle 967" width="327" height="327" rx="25" transform="translate(951.327 2046.523) rotate(45)" fill="#152668"/>
    <text id="Human_Resource_Management" data-name="Human Resource
Management" transform="translate(952 2415)" fill="#fff" font-size="32" font-family="Poppins-Medium, Poppins" font-weight="500"><tspan x="-142.24" y="0">HUMAN RESOURCE</tspan><tspan x="-109.792" y="48">MANAGEMENT</tspan></text>
    <rect id="Rectangle_821" data-name="Rectangle 821" width="26" height="26" rx="7" transform="translate(951.385 2509) rotate(45)" fill="#f60"/>
    <g id="Icon_feather-settings" data-name="Icon feather-settings" transform="matrix(0.966, 0.259, -0.259, 0.966, 974.876, 2163.236)">
      <path id="Path_87" data-name="Path 87" d="M106.791,81.254a9.576,9.576,0,0,0,1.915,10.563l.348.348A11.614,11.614,0,1,1,92.63,108.59l-.348-.348a9.654,9.654,0,0,0-16.367,6.849v.987a11.608,11.608,0,0,1-23.216,0v-.522a9.576,9.576,0,0,0-6.268-8.764,9.576,9.576,0,0,0-10.563,1.915l-.348.348A11.614,11.614,0,1,1,19.095,92.63l.348-.348a9.654,9.654,0,0,0-6.849-16.367h-.987a11.608,11.608,0,1,1,0-23.215h.522a9.576,9.576,0,0,0,8.764-6.268,9.576,9.576,0,0,0-1.915-10.563l-.348-.348A11.614,11.614,0,1,1,35.056,19.095l.348.348a9.576,9.576,0,0,0,10.563,1.915h.464a9.576,9.576,0,0,0,5.8-8.764v-.987a11.608,11.608,0,0,1,23.216,0v.522a9.654,9.654,0,0,0,16.367,6.849l.348-.348a11.614,11.614,0,1,1,16.425,16.425l-.348.348a9.576,9.576,0,0,0-1.915,10.563v.464a9.576,9.576,0,0,0,8.764,5.8h.987a11.608,11.608,0,1,1,0,23.215h-.522a9.576,9.576,0,0,0-8.764,5.8Z" transform="translate(0 0)" fill="#0d1252"/>
      <path id="Path_86" data-name="Path 86" d="M34.823,17.412A17.412,17.412,0,1,1,17.412,0,17.412,17.412,0,0,1,34.823,17.412Z" transform="translate(46.431 46.431)" fill="#233187" stroke="#fff" stroke-linecap="round" stroke-linejoin="round" stroke-width="8"/>
    </g>
    <g id="Icon_feather-settings-2" data-name="Icon feather-settings" transform="matrix(0.966, 0.259, -0.259, 0.966, 837.876, 2179.236)">
      <path id="Path_87-2" data-name="Path 87" d="M106.07,80.706a9.512,9.512,0,0,0,1.9,10.492l.346.346A11.536,11.536,0,1,1,92,107.857l-.346-.346a9.589,9.589,0,0,0-16.256,6.8v.98a11.529,11.529,0,0,1-23.059,0v-.519a9.512,9.512,0,0,0-6.226-8.7,9.512,9.512,0,0,0-10.492,1.9l-.346.346A11.536,11.536,0,1,1,18.966,92l.346-.346a9.589,9.589,0,0,0-6.8-16.256h-.98a11.529,11.529,0,1,1,0-23.059h.519a9.512,9.512,0,0,0,8.7-6.226,9.512,9.512,0,0,0-1.9-10.492L18.5,35.28A11.536,11.536,0,1,1,34.819,18.966l.346.346a9.512,9.512,0,0,0,10.492,1.9h.461a9.512,9.512,0,0,0,5.765-8.7v-.98a11.529,11.529,0,0,1,23.059,0v.519a9.589,9.589,0,0,0,16.256,6.8l.346-.346a11.536,11.536,0,1,1,16.314,16.314l-.346.346a9.512,9.512,0,0,0-1.9,10.492v.461a9.512,9.512,0,0,0,8.7,5.765h.98a11.529,11.529,0,0,1,0,23.059h-.519a9.512,9.512,0,0,0-8.7,5.765Z" transform="translate(0 0)" fill="#0d1252"/>
      <path id="Path_86-2" data-name="Path 86" d="M34.823,17.412A17.412,17.412,0,1,1,17.412,0,17.412,17.412,0,0,1,34.823,17.412Z" transform="translate(46.431 46.431)" fill="#0d1252" stroke="#fff" stroke-linecap="round" stroke-linejoin="round" stroke-width="8"/>
    </g>
    <g id="Group_193" data-name="Group 193" transform="translate(850.636 2175.168)">
      <circle id="Ellipse_2654" data-name="Ellipse 2654" cx="69.377" cy="69.377" r="69.377" transform="translate(30.478 4.273)" fill="url(#linear-gradient)"/>
      <circle id="Ellipse_2655" data-name="Ellipse 2655" cx="68.227" cy="68.227" r="68.227" transform="translate(31.628 5.423)" fill="#489ae2"/>
      <path id="Path_748" data-name="Path 748" d="M54.237,0A54.237,54.237,0,1,1,0,54.237,54.237,54.237,0,0,1,54.237,0Z" transform="translate(45.619 19.414)" fill="#fff"/>
      <rect id="Rectangle_410" data-name="Rectangle 410" width="3.066" height="47.912" transform="translate(98.322 28.996)" fill="#233187" opacity="0.3"/>
      <g id="Group_127" data-name="Group 127" transform="translate(70.756 58.16)" opacity="0.1">
        <rect id="Rectangle_411" data-name="Rectangle 411" width="43.313" height="3.833" transform="translate(32.358 14.341)"/>
        <rect id="Rectangle_412" data-name="Rectangle 412" width="3.833" height="30.764" transform="translate(0 3.396) rotate(-62.36)"/>
        <circle id="Ellipse_2657" data-name="Ellipse 2657" cx="5.749" cy="5.749" r="5.749" transform="translate(23.35 10.508)"/>
      </g>
      <rect id="Rectangle_413" data-name="Rectangle 413" width="43.313" height="3.833" transform="translate(103.114 71.734)" fill="#0c1475"/>
      <rect id="Rectangle_414" data-name="Rectangle 414" width="30.764" height="3.833" transform="translate(72.547 57.398) rotate(27.64)" fill="#0c1475"/>
      <circle id="Ellipse_2658" data-name="Ellipse 2658" cx="5.749" cy="5.749" r="5.749" transform="translate(94.106 67.901)" fill="#0c1475"/>
      <path id="Path_292" data-name="Path 292" d="M705.32,326.79s4.289,1.575,7.091.351l1.4.088a6.2,6.2,0,0,0,4.791.9" transform="translate(-585.859 -276.421)" opacity="0.05"/>
      <path id="Path_293" data-name="Path 293" d="M809.4,313.09s-.7,1.664-.351,2.189" transform="translate(-669.629 -265.347)" opacity="0.05"/>
      <path id="Path_294" data-name="Path 294" d="M665.58,310.35s.351,1.664,0,2.189" transform="translate(-553.735 -263.132)" opacity="0.05"/>
    </g>
  </g>
</svg>
