<svg xmlns="http://www.w3.org/2000/svg" xmlns:xlink="http://www.w3.org/1999/xlink" width="849.866" height="570.047" viewBox="0 0 849.866 570.047">
  <defs>
    <linearGradient id="linear-gradient" x1="-2.193" y1="1" x2="-2.193" gradientUnits="objectBoundingBox">
      <stop offset="0" stop-color="gray" stop-opacity="0.251"/>
      <stop offset="0.54" stop-color="gray" stop-opacity="0.122"/>
      <stop offset="1" stop-color="gray" stop-opacity="0.102"/>
    </linearGradient>
  </defs>
  <g id="p2Illustration" transform="translate(-942.134 -1266.453)">
    <g id="Part3">
      <rect id="Rectangle_391" data-name="Rectangle 391" width="330.867" height="256.822" rx="20" transform="translate(1292.134 1548.453)" fill="#489ae2" opacity="0.14"/>
      <text id="_4" data-name="4" transform="translate(1331.134 1621)" fill="#fff" font-size="20" font-family="Poppins-Regular, Poppins"><tspan x="0" y="0">4</tspan></text>
      <text id="_10_" data-name="10%" transform="translate(1563 1621)" fill="#fff" font-size="20" font-family="Poppins-Regular, Poppins"><tspan x="0" y="0">10%</tspan></text>
      <text id="_3" data-name="3" transform="translate(1331.134 1668)" fill="#fff" font-size="20" font-family="Poppins-Regular, Poppins"><tspan x="0" y="0">3</tspan></text>
      <text id="_30_" data-name="30%" transform="translate(1557 1668)" fill="#fff" font-size="20" font-family="Poppins-Regular, Poppins"><tspan x="0" y="0">30%</tspan></text>
      <text id="_2" data-name="2" transform="translate(1331.134 1713)" fill="#fff" font-size="20" font-family="Poppins-Regular, Poppins"><tspan x="0" y="0">2</tspan></text>
      <text id="_60_" data-name="60%" transform="translate(1556 1713)" fill="#fff" font-size="20" font-family="Poppins-Regular, Poppins"><tspan x="0" y="0">60%</tspan></text>
      <text id="Interviews_to_hire" data-name="Interviews to hire" transform="translate(1369.134 1771)" fill="#fff" font-size="22" font-family="Poppins-Medium, Poppins" font-weight="500"><tspan x="0" y="0">Interviews to hire</tspan></text>
      <line id="Line_9" data-name="Line 9" x2="125.5" transform="translate(1365.134 1704.5)" fill="none" stroke="#489ae2" stroke-width="10"/>
      <line id="Line_10" data-name="Line 10" x2="59.5" transform="translate(1365.134 1659.5)" fill="none" stroke="#489ae2" stroke-width="10"/>
      <line id="Line_11" data-name="Line 11" x2="24.5" transform="translate(1365.134 1614.5)" fill="none" stroke="#489ae2" stroke-width="10"/>
    </g>
    <g id="Part2">
      <rect id="Rectangle_390" data-name="Rectangle 390" width="317.867" height="256.822" rx="20" transform="translate(942.134 1548.453)" fill="#489ae2" opacity="0.15"/>
      <text id="_4-2" data-name="4" transform="translate(971 1621)" fill="#fff" font-size="20" font-family="Poppins-Regular, Poppins"><tspan x="0" y="0">4</tspan></text>
      <text id="_25_" data-name="25%" transform="translate(1196 1621)" fill="#fff" font-size="20" font-family="Poppins-Regular, Poppins"><tspan x="0" y="0">25%</tspan></text>
      <text id="_3-2" data-name="3" transform="translate(971 1668)" fill="#fff" font-size="20" font-family="SegoeUI, Segoe UI"><tspan x="0" y="0">3</tspan></text>
      <text id="_47_" data-name="47%" transform="translate(1197 1668)" fill="#fff" font-size="20" font-family="Poppins-Regular, Poppins"><tspan x="0" y="0">47%</tspan></text>
      <text id="_2-2" data-name="2" transform="translate(972 1713)" fill="#fff" font-size="20" font-family="Poppins-Regular, Poppins"><tspan x="0" y="0">2</tspan></text>
      <text id="_14_" data-name="14%" transform="translate(1202 1713)" fill="#fff" font-size="20" font-family="Poppins-Regular, Poppins"><tspan x="0" y="0">14%</tspan></text>
      <text id="Submittals_to_interview" data-name="Submittals to interview" transform="translate(974.134 1771)" fill="#fff" font-size="22" font-family="Poppins-Medium, Poppins" font-weight="500"><tspan x="0" y="0">Submittals to interview</tspan></text>
      <line id="Line_8" data-name="Line 8" x2="59.5" transform="translate(1005.134 1704.5)" fill="none" stroke="#489ae2" stroke-width="10"/>
      <line id="Line_7" data-name="Line 7" x2="144.5" transform="translate(1005.134 1659.5)" fill="none" stroke="#489ae2" stroke-width="10"/>
      <line id="Line_6" data-name="Line 6" x2="95.5" transform="translate(1005.134 1614.5)" fill="none" stroke="#489ae2" stroke-width="10"/>
    </g>
    <g id="Part1">
      <rect id="Rectangle_389" data-name="Rectangle 389" width="680.867" height="249.822" rx="20" transform="translate(942.134 1266.453)" fill="#489ae2" opacity="0.15"/>
      <text id="Customer_Satisfaction" data-name="Customer Satisfaction" transform="translate(995.134 1327)" fill="#fff" font-size="25" font-family="Poppins-Medium, Poppins" font-weight="500"><tspan x="0" y="0">Customer Satisfaction</tspan></text>
      <text id="Fill_Rate" data-name="Fill Rate" transform="translate(995.134 1426)" fill="#fff" font-size="25" font-family="Poppins-Medium, Poppins" font-weight="500"><tspan x="0" y="0">Fill Rate</tspan></text>
      <text id="_90_" data-name="90%" transform="translate(1463.134 1327)" fill="#489ae2" font-size="25" font-family="Poppins-Regular, Poppins"><tspan x="0" y="0">90%</tspan></text>
      <text id="_85_" data-name="85%" transform="translate(1429.134 1426)" fill="#489ae2" font-size="25" font-family="Poppins-Regular, Poppins"><tspan x="0" y="0">85%</tspan></text>
      <line id="Line_5" data-name="Line 5" x2="552.5" transform="translate(995.134 1449.5)" fill="none" stroke="#fff" stroke-width="10"/>
      <line id="Line_3" data-name="Line 3" x2="552.5" transform="translate(995.134 1350.5)" fill="none" stroke="#fff" stroke-width="10"/>
      <line id="Line_4" data-name="Line 4" x2="460.5" transform="translate(995.134 1449.5)" fill="none" stroke="#489ae2" stroke-width="10"/>
      <line id="Line_2" data-name="Line 2" x2="494.5" transform="translate(995.134 1350.5)" fill="none" stroke="#489ae2" stroke-width="10"/>
    </g>
    <g id="Man" transform="translate(1578.532 1392.508)">
      <ellipse id="Ellipse_2614" data-name="Ellipse 2614" cx="80.91" cy="20.227" rx="80.91" ry="20.227" transform="translate(51.648 403.538)" fill="#364995"/>
      <path id="Path_166" data-name="Path 166" d="M356.485,385.548c2.7,12.3,7.581,27.466,7.581,27.466-4.821,5.625-25.852,6.631-25.852,6.631l-.035-.042h-.328c-.147.776-.314,1.523-.517,2.236q.056,1.055.1,2.138a5.834,5.834,0,0,1,.3,2.627,5.955,5.955,0,0,1-.154.587c.5,11.137.859,23.015.552,29.877a28.755,28.755,0,0,1-.594,5.785,20.83,20.83,0,0,0-.615,4.437c-.342,10.04,2.1,26.907,2.1,26.907s-.063.231-.1.349c.042.286.07.454.07.454a7.959,7.959,0,0,0-.356,2.1c-.182,8.468,4.674,26.893,4.674,26.893s3.927,28.332,3.368,39.127a24.9,24.9,0,0,1-.189,2.578c-1.2,8.978-2.795,34.048-2.795,34.048a11.262,11.262,0,0,1-.915,1.181c.14.559.307,1.125.489,1.684a47.232,47.232,0,0,1,2.341,17.551c-.049.7-.1,1.46-.175,2.229-.8,9.251-23.183,3.493-24.657,2.418-.5-.37-.147-3.724.545-7.979l-23.057,5.694s-16.35,2.418-24.126,0-7.5-9.083,3.619-10.18c7.79-.755,13.974-8.007,17.027-12.29-1.181-3.221-10.033-27.669-11.661-42.8a214.266,214.266,0,0,0-5.163-29.01l-1.74-22.519-3.088-13.275-3.682-17.551c-4.157-12.87-5.429-34.383-5.429-34.383L260.811,419.4a40.862,40.862,0,0,1-.748-6.959,78.023,78.023,0,0,0-8.909,2.383c-5.031-3.913,2.1-41.615,2.1-41.615s3.431-23.812,6.337-45.521a44.485,44.485,0,0,0-13.876.566l-42.223.929a21.457,21.457,0,0,1-2.264-3.689h-1.81a3.877,3.877,0,0,1-.524-1.02l-.748.14a62.449,62.449,0,0,0-8.077,2.452s-13.317,1.607-11.305-12.36c1.5-10.411,13.345-6.631,19.27-4.046l.748.342c.056-.391.091-.615.091-.615l1.907.349a9.219,9.219,0,0,1,.4-.852s20.71-.8,37.5-3.319c11.941-1.789,20.961-8.615,25.2-12.4,2.942-14.931,11.487-19.466,11.487-19.466a25.57,25.57,0,0,0,11.647-3.941,24.615,24.615,0,0,0,2.725-1.887l.461.265.056-.049c-2.844-2.641-5.792-5.066-8.384-7.1l-1.167-.9a25.9,25.9,0,0,1-21.157-36.27c.112-.252.245-.5.363-.748a5.813,5.813,0,0,1-5.128-5.052c-.259-2.928,1.761-6.044.44-8.671a8.422,8.422,0,0,1-.629-1.223,3.3,3.3,0,0,1-.1-1.23,8.657,8.657,0,0,1,3.494-6.288c3-2.173,5.659-1.069,8.936-1.258A107.885,107.885,0,0,0,278.2,198.6a38.971,38.971,0,0,1,12.947-.426c4.276.748,8.461,2.844,10.942,6.407,1.062,1.523,1.782,3.263,2.795,4.835,1.139,1.817,2.613,3.389,3.92,5.08,2.2,2.844,3.983,6.253,3.808,9.845-.1,2.033-.817,3.99-.957,6.023a36.674,36.674,0,0,0,.419,5.659,24.777,24.777,0,0,1-.412,7.218,4.472,4.472,0,0,1-.824,2.054,4.381,4.381,0,0,1-1.817,1.167,16.223,16.223,0,0,1-2.229.7,31.922,31.922,0,0,0,3.123,5.625l1.132-1.174,3.06,4.779.119-.321c.147.3.314.587.489.873l.314-.873a18.372,18.372,0,0,0,6.854,6.861c8.007,5.031,19.179,7.113,19.179,7.113,18,2.613,14.673,21.206,14.673,21.206s7.637,33.174,9.782,53.681-5.827,33.573-5.827,33.573Zm-85.836-60.633c-.7,2.285-1.314,4.451-1.838,6.344l.335.133c.384-1.754.908-4,1.481-6.477Zm19.8-55.666.1.063-.091-.091ZM321.494,615.9c.88-5.261,2.194-11.612,3-15.406-.573-1.866-1.335-4.716-2.229-8.957-2.012-9.509-3.214-43.159-3.214-43.159l-4.7-28.27c-4.29-10.858-5.226-23.756-5.226-23.756-1.726-4.556-5.715-32.441-6.351-36.919.182,3.1.615,10.935.845,19.641v.238c.175,6.575.224,13.625,0,19.473h0c-.063,1.642-.147,3.2-.258,4.639-.035.37-.056.755-.07,1.132-.5,15.162,6.288,34.237,6.288,34.237s3.025,14.142,2.578,22.044a14.549,14.549,0,0,1-.6,4.192,7.411,7.411,0,0,0-.342,1.942c-.126,7.56,4.339,23.428,5.478,27.319C319.188,599.414,321.039,612.487,321.494,615.9Z" transform="translate(-175.632 -197.798)" fill="url(#linear-gradient)"/>
      <path id="Path_167" data-name="Path 167" d="M270.316,764.7s-7.839,14.212-18.865,15.274-11.291,7.686-3.584,10.1,23.91,0,23.91,0l23.113-5.708s-2.795-22.848-6.5-24.042S270.316,764.7,270.316,764.7Z" transform="translate(-149.364 -367.233)" fill="#f2f2f2"/>
      <path id="Path_168" data-name="Path 168" d="M212.973,766.293s-5.848,26.3-4.388,27.368,23.644,6.771,24.455-2.4c.07-.762.126-1.5.168-2.208a46.562,46.562,0,0,0-2.32-17.4,14.414,14.414,0,0,1-.9-5.366C230.371,762.6,212.973,766.293,212.973,766.293Z" transform="translate(-63.856 -368.59)" fill="#f2f2f2"/>
      <path id="Path_169" data-name="Path 169" d="M292.011,276.707s-17.929,44.018-14.743,29.9c2.1-9.377-11.536-21.821-20.961-29.136-4.8-3.731-8.517-6.128-8.517-6.128s33.678-39.253,31.288-22.317a25.5,25.5,0,0,0,1.838,13.667,35.83,35.83,0,0,0,11.1,14.009Z" transform="translate(-150.139 -211.956)" fill="#cc7248"/>
      <path id="Path_170" data-name="Path 170" d="M435.262,372.928a10.306,10.306,0,0,0-4.1.258,60.52,60.52,0,0,0-8,2.432s-13.205,1.593-11.179-12.248c1.481-10.327,13.219-6.582,19.1-4.011,2,.873,3.326,1.614,3.326,1.614Z" transform="translate(-407.964 -245.622)" fill="#cc7248"/>
      <path id="Path_171" data-name="Path 171" d="M416.6,374.149a10.306,10.306,0,0,0-4.1.259c-1.432-3.626-.342-12.213-.112-13.827,2,.873,3.326,1.614,3.326,1.614Z" transform="translate(-389.299 -246.844)" opacity="0.1"/>
      <path id="Path_172" data-name="Path 172" d="M414.252,360.856l-3.452-.636s-1.775,11.878.538,14.98h3.976Z" transform="translate(-386.884 -246.735)" fill="#f2f2f2"/>
      <path id="Path_173" data-name="Path 173" d="M329.937,391.1s-10.564-6.288-11.822,1.656-2.928,21.59-2.928,21.59l-2.921,17.335-3.787,34.74.531,5.911s11.228-3.759,13.883-2.459S327.68,455.3,327.68,455.3l4.381-16.475.7-34.935Z" transform="translate(-233.293 -255.328)" fill="#364995"/>
      <path id="Path_174" data-name="Path 174" d="M329.937,391.1s-10.564-6.288-11.822,1.656-2.928,21.59-2.928,21.59l-2.921,17.335-3.787,34.74.531,5.911s11.228-3.759,13.883-2.459S327.68,455.3,327.68,455.3l4.381-16.475.7-34.935Z" transform="translate(-233.293 -255.328)" fill="#489ae2" opacity="0.68"/>
      <path id="Path_175" data-name="Path 175" d="M387.16,333.56s-10.963,12.353-27.6,14.847-37.164,3.284-37.164,3.284-5.177,9.265,2.292,19.13l41.845-.922s9.265-2.012,16.44,0Z" transform="translate(-296.196 -238.703)" fill="#489ae2"/>
      <path id="Path_177" data-name="Path 177" d="M450.84,406.14" transform="translate(-450.84 -260.571)" fill="none" stroke="blue" stroke-miterlimit="10" stroke-width="1"/>
      <path id="Path_178" data-name="Path 178" d="M297.5,262.325c-4.087,8.741-11.179,15.19-21.492,15.19h-1.342c-4.8-3.731-8.517-6.128-8.517-6.128s33.678-39.253,31.288-22.317C296.7,254.22,295.855,258.434,297.5,262.325Z" transform="translate(-168.51 -211.968)" opacity="0.1"/>
      <path id="Path_179" data-name="Path 179" d="M312.223,242.663c0,14.177-1.923,25.946-16.275,25.95-6.315,0-15.743,5.748-20.144,1.785-5.088-4.576-15.552-19.781-15.554-27.721A25.83,25.83,0,0,1,286.23,217a26.094,26.094,0,0,1,18.394,7.5A25.457,25.457,0,0,1,312.223,242.663Z" transform="translate(-179.058 -203.583)" fill="#cc7248"/>
      <path id="Path_180" data-name="Path 180" d="M297.554,421.681s-57.252,5.052-59.39-2.257,5.841-27.1,5.841-27.1l-2.557-27.634-.1-1.062s7.155-29.891,6.917-32.252c-.245-2.145,11.55-27.249,13.974-32.357l.44-.922.454.266.2.119,2.795,1.635,11.088-2.613,13.345-6.987,1.265,76.438Z" transform="translate(-148.702 -225.735)" fill="#f2f2f2"/>
      <path id="Path_181" data-name="Path 181" d="M290.805,302.6a4.563,4.563,0,0,0-5.45,2.858,40.282,40.282,0,0,1-2.1,4.891l-1.53,9.083-2.795,14.344-2.054,63.582.922,11.319,5.115-9.083.929-59.39V332.8a53.6,53.6,0,0,1,4.262-18.558l.7-1.67,4.451-5.708Z" transform="translate(-171.711 -229.336)" opacity="0.1"/>
      <path id="Path_182" data-name="Path 182" d="M291.932,301.463a4.563,4.563,0,0,0-5.45,2.858,40.285,40.285,0,0,1-2.1,4.891l-1.53,9.083-2.795,14.344L278,396.222l.936,11.291,5.115-9.083.929-59.39v-7.406a53.59,53.59,0,0,1,4.255-18.558l.7-1.67,4.465-5.687Z" transform="translate(-173.635 -228.993)" fill="#010000"/>
      <path id="Path_183" data-name="Path 183" d="M268.3,278s-13.548,14.351-18.327,16.07c0,0,2.39,10.893,4.779,13.017,0,0,14.219-14.5,16.769-15.672l2.1-5.163Z" transform="translate(-133.266 -221.963)" opacity="0.1"/>
      <path id="Path_184" data-name="Path 184" d="M268.3,276.9s-13.548,14.351-18.327,16.07c0,0,2.39,10.893,4.779,13.017,0,0,14.219-14.5,16.769-15.672l2.1-5.163Z" transform="translate(-133.266 -221.631)" fill="#f2f2f2"/>
      <path id="Path_185" data-name="Path 185" d="M308.694,301.35l-.14.37-4.346,11.64-7.756,21.981s-.077.224-.21.643c-1.286,4-8.2,25.691-9.565,32l-.1-1.062s7.148-29.918,6.91-32.28c-.245-2.145,11.55-27.249,13.974-32.357.384-.266.7-.489.894-.657Z" transform="translate(-193.925 -228.998)" opacity="0.1"/>
      <path id="Path_186" data-name="Path 186" d="M327.8,301.33l-4.486,12.025-7.763,21.981s-.077.224-.21.643c-1.362,4.262-9.125,28.577-9.782,33.028-.7,4.891-10.481,31.288-10.481,31.288l-5.59,45.73c-4.982-3.885,2.1-41.224,2.1-41.224s7.972-55.393,9.859-73.818,12.109-23.875,12.109-23.875a25.366,25.366,0,0,0,11.543-3.906,24.647,24.647,0,0,0,2.7-1.872Z" transform="translate(-213.817 -228.992)" fill="#489ae2"/>
      <path id="Path_187" data-name="Path 187" d="M292.592,644.168c-1.195,8.9-2.795,33.747-2.795,33.747-5.59,8.384-17.936,3.85-17.936,3.85s-1.321-2.529-3.312-11.962-3.193-42.775-3.193-42.775L260.7,599c-4.248-10.76-5.177-23.511-5.177-23.511-1.859-4.891-6.379-37.2-6.379-37.2s1.866,28.961.7,44.235,6.107,35.871,6.107,35.871,4.122,19.263,1.991,25.237,5.317,30.687,5.317,30.687c-.664,7.176-21.786,4.248-21.786,4.248s-9.964-26.7-11.689-42.775a212.308,212.308,0,0,0-5.121-28.759l-1.719-22.316-3.06-13.15-3.654-17.4c-4.115-12.758-5.38-34.076-5.38-34.076l-3.186-20.919c-2.1-10.348.608-22.477,2.424-28.849.783-2.746,1.4-4.43,1.4-4.43,1.831,1.3,12.311,2.795,17.733,4.06a30.859,30.859,0,0,0,9.083.7,201.809,201.809,0,0,0,40.455-7.4l1.4-.419.279,2.39.657,5.7,1.16,10.11s3.591,53.933,1.467,61.241,1.46,31.854,1.46,31.854c-1.991,5.827,4.248,29.513,4.248,29.513S293.787,635.273,292.592,644.168Z" transform="translate(-122.36 -277.654)" opacity="0.1"/>
      <path id="Path_188" data-name="Path 188" d="M292.593,643.027c-1.195,8.9-2.795,33.747-2.795,33.747-5.59,8.384-17.936,3.85-17.936,3.85s-1.321-2.529-3.312-11.962-3.193-42.775-3.193-42.775L260.7,597.863c-4.248-10.76-5.177-23.511-5.177-23.511-1.859-4.891-6.379-37.2-6.379-37.2s1.866,28.961.7,44.235,6.107,35.871,6.107,35.871,4.122,19.263,1.991,25.237,5.317,30.687,5.317,30.687c-.664,7.176-21.786,4.248-21.786,4.248s-9.964-26.7-11.689-42.775a212.3,212.3,0,0,0-5.122-28.759l-1.719-22.317-3.06-13.15-3.654-17.4c-4.115-12.758-5.38-34.076-5.38-34.076l-3.186-20.926c-2.1-10.341.608-22.47,2.424-28.842.783-2.746,1.4-4.43,1.4-4.43,1.831,1.3,12.311,2.795,17.733,4.059a30.853,30.853,0,0,0,9.083.7,201.808,201.808,0,0,0,40.455-7.4l1.4-.419.279,2.39.657,5.7,1.16,10.11s3.591,53.933,1.467,61.241S285.159,573,285.159,573c-1.991,5.827,4.248,29.513,4.248,29.513S293.788,634.133,292.593,643.027Z" transform="translate(-122.361 -277.311)" fill="#010000"/>
      <path id="Path_189" data-name="Path 189" d="M309.4,242.648a25.615,25.615,0,0,1-3.4,12.765,13.536,13.536,0,0,1-11.277-2.718c-2.047-1.8-3.368-4.269-5.128-6.358a37.375,37.375,0,0,0-3.668-3.619,11.36,11.36,0,0,0-2.893-2.1,3.927,3.927,0,0,0-3.493-.042c-1.4.79-1.9,2.543-2.7,3.948a5.268,5.268,0,0,1-2.942,2.564A3.116,3.116,0,0,1,270.4,245.9c-.866-1.5-.231-3.829-1.691-4.737a8.806,8.806,0,0,0-1.188-.482c-1.88-.852-2.1-3.375-2.25-5.429a3.4,3.4,0,0,0-1.153-2.7c-.852-.545-1.963-.272-2.977-.245a4.194,4.194,0,0,1-.894-.077,25.67,25.67,0,0,1,49.14,10.4Z" transform="translate(-176.231 -203.569)" opacity="0.1"/>
      <path id="Path_190" data-name="Path 190" d="M258.813,204.348a8.524,8.524,0,0,0-3.459,6.2,3.263,3.263,0,0,0,.091,1.223,9.083,9.083,0,0,0,.622,1.216c1.314,2.6-.7,5.687-.433,8.594a5.715,5.715,0,0,0,5.59,5.017c1.013,0,2.1-.3,2.976.245a3.312,3.312,0,0,1,1.153,2.7c.161,2.061.37,4.583,2.25,5.429a9.852,9.852,0,0,1,1.188.489c1.46.908.818,3.249,1.691,4.73a3.109,3.109,0,0,0,3.493,1.2,5.3,5.3,0,0,0,2.942-2.564c.8-1.4,1.286-3.158,2.7-3.948a3.948,3.948,0,0,1,3.493.035,11.389,11.389,0,0,1,2.893,2.1,38.171,38.171,0,0,1,3.668,3.619c1.761,2.1,3.081,4.556,5.135,6.358,3.857,3.389,9.782,3.724,14.533,1.8a4.444,4.444,0,0,0,1.8-1.153,4.513,4.513,0,0,0,.838-2.068,24.834,24.834,0,0,0,.412-7.155,36.116,36.116,0,0,1-.419-5.59c.133-2.012.852-3.955.95-5.967.175-3.556-1.593-6.938-3.773-9.782-1.3-1.677-2.76-3.235-3.885-5.031-.978-1.558-1.691-3.284-2.746-4.793-2.459-3.493-6.61-5.59-10.844-6.351s-8.587-.279-12.835.419a105.589,105.589,0,0,1-11.179,1.733C264.424,203.251,261.783,202.154,258.813,204.348Z" transform="translate(-176.331 -198.617)" fill="#010000"/>
      <path id="Path_191" data-name="Path 191" d="M300.168,301.33l-4.486,12.025-7.763,21.981s-.077.224-.21.643h0l9.782-32.776A24.643,24.643,0,0,0,300.168,301.33Z" transform="translate(-186.188 -228.992)" opacity="0.1"/>
      <path id="Path_192" data-name="Path 192" d="M232.171,495.736s.468,14.54-3.452,18.166L218.3,494.241,227.057,490Z" transform="translate(-69.709 -285.837)" fill="#ffb9b9"/>
      <path id="Path_193" data-name="Path 193" d="M252.326,438.753c-4.786,5.59-25.6,6.575-25.6,6.575l-20.633-32.476s-4.891-3.389-14.037-18.634-8.867-27-8.384-35.767,6.288-33.978,6.288-33.978c.887-5.673,13.737-41.224,13.737-41.224a18.214,18.214,0,0,0,6.8,6.8c7.93,4.968,19.019,7,19.019,7,17.838,2.592,14.547,21.024,14.547,21.024s.217,71.666-.9,80.232S252.326,438.753,252.326,438.753Z" transform="translate(-65.521 -223.544)" opacity="0.1"/>
      <path id="Path_194" data-name="Path 194" d="M202.64,486.423l-.594,5.31-7.246-2.655-5.31-8.035,3.983-3.123Z" transform="translate(-39.912 -273.736)" fill="#cbcdda"/>
      <path id="Path_195" data-name="Path 195" d="M293.1,469.587l-3.787.384-36.528,3.647a59.175,59.175,0,0,1-17.551-.859l-16.93-3.389c.783-2.746,1.4-4.43,1.4-4.43,1.831,1.3,12.311,2.795,17.733,4.059a30.851,30.851,0,0,0,9.083.7,201.807,201.807,0,0,0,40.5-7.4l1.649,1.97Z" transform="translate(-130.62 -277.492)" opacity="0.1"/>
      <g id="Group_113" data-name="Group 113" transform="translate(89.106 184.389)" opacity="0.1">
        <path id="Path_196" data-name="Path 196" d="M323.141,466.283a3.806,3.806,0,0,1-.356-.2l-.035.1Z" transform="translate(-322.75 -463.02)"/>
        <path id="Path_197" data-name="Path 197" d="M224.383,602.51s-6.246-23.686-4.248-29.513c0,0-3.591-24.545-1.46-31.854s-1.467-61.241-1.467-61.241l-1.181-10.11-.7-5.7-.279-2.39s-.475.154-1.4.419l-.845.251.2.936.664,5.7,1.181,10.11s3.584,53.926,1.467,61.241,1.453,31.854,1.453,31.854c-1.991,5.827,4.248,29.513,4.248,29.513s4.388,31.623,3.193,40.525-2.795,33.74-2.795,33.74c-4.073,6.121-11.766,5.352-15.609,4.493.042.1.07.161.07.161s12.353,4.514,17.936-3.85c0,0,1.593-24.846,2.795-33.747S224.383,602.51,224.383,602.51Z" transform="translate(-146.408 -461.7)"/>
        <path id="Path_198" data-name="Path 198" d="M265.773,674.69c2.1-5.974-2-25.237-2-25.237s-7.294-20.591-6.1-35.871c.5-6.365.461-15.1.252-23.127-1.7-10.341-3.312-21.9-3.312-21.9s1.866,28.954.664,44.235,6.107,35.871,6.107,35.871,4.122,19.263,1.991,25.237,5.317,30.687,5.317,30.687c-.531,5.75-14.184,5.017-19.564,4.493l.2.552s21.122,2.928,21.779-4.248C271.083,705.377,263.649,680.657,265.773,674.69Z" transform="translate(-219.281 -493.894)"/>
      </g>
      <path id="Path_199" data-name="Path 199" d="M251.187,438.753c-4.786,5.59-25.6,6.575-25.6,6.575l-20.626-32.476s-4.891-3.389-14.044-18.634-8.867-27-8.384-35.767,6.288-33.978,6.288-33.978c.887-5.673,13.737-41.224,13.737-41.224a18.214,18.214,0,0,0,6.8,6.8c7.937,4.968,19.012,7,19.012,7,17.838,2.592,14.547,21.024,14.547,21.024s.2,71.638-.9,80.2S251.187,438.753,251.187,438.753Z" transform="translate(-63.585 -223.544)" fill="#489ae2"/>
      <path id="Path_200" data-name="Path 200" d="M265.968,300.864l-4.486,1.691,2.99,2.1-22.3,53.8c.517-8.769,6.288-33.978,6.288-33.978.887-5.673,13.737-41.224,13.737-41.224a18.213,18.213,0,0,0,6.8,6.8Z" transform="translate(-123.195 -223.544)" fill="#364995" opacity="0.1"/>
      <path id="Path_201" data-name="Path 201" d="M173.42,430.986l22.82-5.876,2.99,9.265-23.316,5.68Z" transform="translate(-25.274 -257.825)" opacity="0.1"/>
      <path id="Path_202" data-name="Path 202" d="M194.216,313.309s-10.362,9.782-6.477,31.484S197.9,390.124,197.9,390.124l-16.874,46.729s11.759,12.255,17.537,13.743l16.839-37.36s7.867-12.954,5.778-33.272-9.663-53.206-9.663-53.206S211.551,306.734,194.216,313.309Z" transform="translate(-33.012 -232.202)" opacity="0.1"/>
      <path id="Path_203" data-name="Path 203" d="M192.97,313.309s-10.362,9.782-6.477,31.484,10.159,45.332,10.159,45.332l-16.818,46.729s11.738,12.255,17.53,13.743l16.839-37.36s7.867-12.954,5.778-33.272-9.663-53.206-9.663-53.206S210.319,306.734,192.97,313.309Z" transform="translate(-30.983 -232.202)" fill="#489ae2"/>
      <path id="Path_204" data-name="Path 204" d="M222.09,492.088s13.15,18.166,12.15,23.057-4.849,2.257-4.849,2.257l-5.205-7.113-4.653-13.275S219.994,491.306,222.09,492.088Z" transform="translate(-72.679 -286.444)" opacity="0.1"/>
      <path id="Path_205" data-name="Path 205" d="M224.375,492.088s13.157,18.166,12.157,23.057-4.849,2.257-4.849,2.257l-5.177-7.106-4.653-13.275S222.307,491.306,224.375,492.088Z" transform="translate(-76.592 -286.445)" opacity="0.1"/>
      <path id="Path_206" data-name="Path 206" d="M223.242,492.088s13.15,18.166,12.15,23.057-4.849,2.257-4.849,2.257l-5.177-7.106-4.653-13.275S221.167,491.306,223.242,492.088Z" transform="translate(-74.656 -286.445)" fill="#474463"/>
    </g>
  </g>
</svg>
