<svg xmlns="http://www.w3.org/2000/svg" width="462.448" height="499.246" viewBox="0 0 462.448 499.246">
  <g id="Group_194" data-name="Group 194" transform="matrix(0.966, -0.259, 0.259, 0.966, 27.02, 143.18)">
    <rect id="Rectangle_968" data-name="Rectangle 968" width="327" height="327" rx="25" transform="translate(234.304 -85.45) rotate(60)" fill="#152566"/>
    <rect id="Rectangle_433" data-name="Rectangle 433" width="84.964" height="123.382" rx="14" transform="translate(74.791 53.759) rotate(-12.753)" fill="#fff"/>
    <rect id="Rectangle_435" data-name="Rectangle 435" width="51.016" height="8.503" transform="translate(92.526 63.44) rotate(-12.753)" fill="#0d1252"/>
    <rect id="Rectangle_451" data-name="Rectangle 451" width="41.097" height="28.343" transform="translate(121.771 131.559) rotate(-12.753)" fill="#0d1252"/>
    <rect id="Rectangle_453" data-name="Rectangle 453" width="41.097" height="28.343" transform="translate(202.265 68.353) rotate(-12.753)" fill="#6c63ff" opacity="0.3"/>
    <rect id="Rectangle_460" data-name="Rectangle 460" width="84.964" height="123.382" rx="13.435" transform="translate(180.351 62.53) rotate(-12.753)" fill="#489ae2"/>
    <circle id="Ellipse_2667" data-name="Ellipse 2667" cx="2.451" cy="2.451" r="2.451" transform="translate(192.007 76.249)" fill="#fff"/>
    <circle id="Ellipse_2668" data-name="Ellipse 2668" cx="2.451" cy="2.451" r="2.451" transform="translate(194.316 85.237)" fill="#fff"/>
    <circle id="Ellipse_2669" data-name="Ellipse 2669" cx="2.451" cy="2.451" r="2.451" transform="translate(209.323 151.011)" fill="#fff"/>
    <circle id="Ellipse_2670" data-name="Ellipse 2670" cx="2.451" cy="2.451" r="2.451" transform="translate(211.632 159.999)" fill="#fff"/>
    <rect id="Rectangle_461" data-name="Rectangle 461" width="51.016" height="8.503" transform="translate(207.804 101.842) rotate(-12.753)" fill="#fff"/>
    <rect id="Rectangle_462" data-name="Rectangle 462" width="51.016" height="8.503" transform="translate(102.174 102.098) rotate(-12.753)" fill="#0d1252"/>
    <rect id="Rectangle_463" data-name="Rectangle 463" width="51.016" height="8.503" transform="translate(104.415 117.653) rotate(-12.753)" fill="#0d1252"/>
    <rect id="Rectangle_822" data-name="Rectangle 822" width="26" height="26" rx="7" transform="translate(114.662 361.284) rotate(60)" fill="#f60"/>
    <text id="PROFESSIONAL_EMPLOYER_ORGANIZATION" data-name="PROFESSIONAL EMPLOYER
ORGANIZATION" transform="matrix(0.966, 0.259, -0.259, 0.966, 139.585, 270.646)" fill="#fff" font-size="32" font-family="Poppins-Medium, Poppins" font-weight="500"><tspan x="-195.424" y="0">PROFESSIONAL EMPLOYER</tspan><tspan x="-117.28" y="48">ORGANIZATION</tspan></text>
  </g>
</svg>
