<svg xmlns="http://www.w3.org/2000/svg" width="462.448" height="499.246" viewBox="0 0 462.448 499.246">
  <g id="Staffing_Illustration" data-name="Staffing Illustration" transform="translate(-198.103 -2046.523)">
    <rect id="Rectangle_966" data-name="Rectangle 966" width="327" height="327" rx="25" transform="translate(429.327 2046.523) rotate(45)" fill="#152668"/>
    <text id="Staffing" transform="translate(357 2439)" fill="#fff" font-size="32" font-family="Poppins-Medium, Poppins" font-weight="500"><tspan x="0" y="0">STAFFING</tspan></text>
    <rect id="Rectangle_820" data-name="Rectangle 820" width="26" height="26" rx="7" transform="translate(429.385 2509) rotate(45)" fill="#f60"/>
    <path id="Path_233" data-name="Path 233" d="M597.649,528.783h0c-18.748,0-33.946,16.867-33.946,37.673V592.89h8.13l4.707-9.794-1.177,9.794h52.257l4.279-8.9-1.07,8.9h5.884V572.134C636.712,548.192,619.223,528.783,597.649,528.783Z" transform="translate(-165.397 1675.1)" fill="#010000"/>
    <ellipse id="Ellipse_2638" data-name="Ellipse 2638" cx="24.166" cy="24.166" rx="24.166" ry="24.166" transform="translate(405.082 2215.964)" fill="#f19e77"/>
    <path id="Intersection_2" data-name="Intersection 2" d="M-10485.19,124.5c1.721-7.188,12.088-14.314,19.257-18.473a28.309,28.309,0,0,1,15.691-3.892,10.94,10.94,0,0,1,1.281.108c.209.021.428.05.636.09,2.811.567,26.439-3.934,26.439-3.934.548-.277,1.1-.525,1.669-.754a25.76,25.76,0,0,1,18.218-.567c3.356,1.163,7.438,2.692,12.177,4.688a5.552,5.552,0,0,1,2.771,2.7h.011s5.65,5.74,5.65,8.551c0,.332-.016,2.338-.046,5.624A70.355,70.355,0,0,1-10436,144.5,70.277,70.277,0,0,1-10485.19,124.5Z" transform="translate(10868 2175)" fill="#fff"/>
    <path id="Path_237" data-name="Path 237" d="M607.337,539.182a17.8,17.8,0,0,0-14.047-7.168h-.666c-12.85,0-23.267,11.628-23.267,25.971h4.306l.7-5.293,1.02,5.293h25.537l2.139-4.478-.535,4.478h5.024q3.516,17.464-10.105,34.927H606l4.279-8.956-1.07,8.956h16.313l3.209-20.6C628.727,556.888,619.764,543.808,607.337,539.182Z" transform="translate(-165.436 1675.078)" fill="#010000"/>
    <ellipse id="Ellipse_2639" data-name="Ellipse 2639" cx="12.715" cy="12.715" rx="12.715" ry="12.715" transform="translate(433.877 2191)" fill="#010000"/>
    <g id="Group_191" data-name="Group 191" transform="translate(486.749 2195.643)">
      <ellipse id="Ellipse_2640" data-name="Ellipse 2640" cx="34.326" cy="36.439" rx="34.326" ry="36.439" fill="#0d1252"/>
      <ellipse id="Ellipse_2641" data-name="Ellipse 2641" cx="18.058" cy="18.058" rx="18.058" ry="18.058" transform="translate(46.724 55.464)" fill="#0d1252"/>
      <path id="Path_238" data-name="Path 238" d="M409.235,188.971l9.674,25.152L394.4,224.442l-2.152-4.878-7.523-17.05Z" transform="translate(-357.029 -139.633)" fill="#0d1252"/>
      <ellipse id="Ellipse_2642" data-name="Ellipse 2642" cx="21.605" cy="21.605" rx="21.605" ry="21.605" transform="translate(11.253 22.573)" fill="#0d1252"/>
      <path id="Path_239" data-name="Path 239" d="M563.494,369.372c13.58-9.061,17.639-11.228,33.2-7.727l.934-22.708-40.223,8.438Z" transform="translate(-548.295 -327.564)" fill="#0d1252"/>
      <path id="Path_240" data-name="Path 240" d="M650.773,421.148l-.6.07a.381.381,0,0,0-.05-.06c-2.364-2.364-13.647-6.665-22.06-9.644h-.01c-5.344-1.9-9.525-3.258-9.525-3.258L608.363,397.8c-2.563,2.88-7.976,5.105-13.121,6.674a103.041,103.041,0,0,1-12,2.861h-.01l-2.106,6.724s-23.867,18.067-25.794,19.994h-.01v.02a1.049,1.049,0,0,0-.179.755v.05A87.576,87.576,0,0,0,553.3,452.4H657.229v-6.1C657.229,437.923,650.773,421.148,650.773,421.148Z" transform="translate(-548.267 -327.963)" fill="#0d1252"/>
    </g>
    <g id="Group_192" data-name="Group 192" transform="translate(263.65 2191.527)">
      <circle id="Ellipse_2651" data-name="Ellipse 2651" cx="27.856" cy="27.856" r="27.856" transform="translate(40.417 13.808)" fill="#0d1252"/>
      <path id="Path_248" data-name="Path 248" d="M648.068,387.44l-2.322,47.586-35.98-20.891,4.642-26.7Z" transform="translate(-562.385 -329.527)" fill="#0d1252"/>
      <path id="Path_249" data-name="Path 249" d="M658.515,437.347l-2.36,20.24h-18.89l-20.5-39.39-5.78-11.09-2.77-1.81,3.21-.73,2.53,1.83,28.31,20.51,4.54-13.63.12-.35,1.14-3.43Z" transform="translate(-562.385 -329.527)" fill="#0d1252"/>
      <path id="Path_250" data-name="Path 250" d="M800.48,529.128s8.223-14.432,27.954-10.951l-2.321,1.161s18.57-2.321,16.249,8.125c0,0,15.089,9.285,11.607,19.731a118.093,118.093,0,0,0-4.643,18.57l-1.39-3.9s-1.758-1.615-3-6.036c-.727-2.6-.383-7.544-2.577-10.518-3.589-4.869-12.518-.98-21.335,0-15.669,1.741-21.3-3.452-22.93,1.88-.369,1.231.313,7.061,0,11.827a24.581,24.581,0,0,1-2.153,8.734l-2.329-4.312S781.909,534.931,800.48,529.128Z" transform="translate(-753.778 -517.717)" fill="#0d1252"/>
      <path id="Path_251" data-name="Path 251" d="M864.718,627.677l-.02-.01-14.79-13.74v-9.28l-11.42-9-.17,5.47-1.18,37.19-18.99-26.12-12.8-17.6-2.3-3.15.56-2.95-7.09,8.03-25.66,19.25-2.2,1.65a69.984,69.984,0,0,0-6.96,8.12c-.69,1.03-3.83,9.23-7.92,20.24h114.25c.28-5.8.45-9.83.45-10.95C868.478,629.257,865.008,627.787,864.718,627.677Z" transform="translate(-753.778 -517.717)" fill="#0d1252"/>
    </g>
    <g id="Ellipse_2907" data-name="Ellipse 2907" transform="translate(358 2175)" fill="none" stroke="#489ae2" stroke-width="10">
      <circle cx="74" cy="74" r="74" stroke="none"/>
      <circle cx="74" cy="74" r="69" fill="none"/>
    </g>
    <line id="Line_34" data-name="Line 34" x2="26.477" y2="26.477" transform="translate(484.023 2301.023)" fill="none" stroke="#489ae2" stroke-linecap="round" stroke-width="10"/>
    <path id="Path_235" data-name="Path 235" d="M580.907,579.836s7.089,36.733,3.867,40.6,34.155-7.089,34.155-7.089-12.244-25.133-5.8-39.311Z" transform="translate(-165.514 1674.794)" fill="#f19e77"/>
  </g>
</svg>
