<svg id="HowWeWorkimg" xmlns="http://www.w3.org/2000/svg" width="597.37" height="362.015" viewBox="0 0 597.37 362.015">
  <rect id="Rectangle_686" data-name="Rectangle 686" width="215.202" height="1.09" transform="translate(382.167 360.361)" fill="#3f3d56"/>
  <path id="Path_665" data-name="Path 665" d="M258.413,233.88V117.758H391.435V0H0V350.547H391.435V233.88Z" fill="#152668" opacity="0.63"/>
  <path id="Path_666" data-name="Path 666" d="M391.435,117.758V0H255.687V116.122H135.749V0H0V117.758H122.664V233.88H0V350.547H259.5V233.88h-1.09V117.758Z" fill="#152668"/>
  <path id="Path_667" data-name="Path 667" d="M145.9,117.983a93.772,93.772,0,0,1-93.768,93.77l0-93.77Z" transform="translate(-52.13 -117.983)" fill="#63b4fa"/>
  <path id="Path_668" data-name="Path 668" d="M95.744,117.983A43.616,43.616,0,0,1,52.132,161.6l0,23.988a67.6,67.6,0,0,0,67.6-67.6Z" transform="translate(-52.13 -117.983)" opacity="0.1"/>
  <path id="Path_674" data-name="Path 674" d="M938.127,356.757l-9.019,23.837L896.58,392.007s-19.626-2.181-19.626,8.723c0,7.731,23.443,1.09,23.443,1.09l42.884-12.851,13.529-33.5Z" transform="translate(-427.281 -225.997)" fill="#cc7248"/>
  <rect id="Rectangle_688" data-name="Rectangle 688" width="128" height="110" transform="translate(345.815 123.666)" fill="#63b4fa"/>
  <path id="Path_678" data-name="Path 678" d="M1008.026,329.4s-9.019-1.288-13.529,15.462-5.8,18.039-5.8,18.039,26.414,3.865,27.058,2.577S1021.557,333.267,1008.026,329.4Z" transform="translate(-478.105 -214.131)" fill="#2f2e41"/>
  <circle id="Ellipse_2835" data-name="Ellipse 2835" cx="17.395" cy="17.395" r="17.395" transform="translate(507.374 74.039)" fill="#cc7248"/>
  <path id="Path_679" data-name="Path 679" d="M1000.52,306.6s5.8,14.818,3.865,16.75,23.837,4.51,23.837,4.51,1.933-9.664-5.8-15.462c0,0-3.221-9.664-2.577-11.6S1000.52,306.6,1000.52,306.6Z" transform="translate(-483.482 -200.992)" fill="#cc7248"/>
  <path id="Path_680" data-name="Path 680" d="M959.878,321.957a46.457,46.457,0,0,0-17.395,11.6c-7.731,8.375-11.6,10.952-11.6,10.952s-9.019,3.221-5.8,18.683c1.611,7.731.483,16.428-1.047,23.193a144.924,144.924,0,0,0-3.463,31.978v6.677s-59.27,124.339-39.3,132.714,38.01,10.952,39.3,9.019S945.06,464.334,945.06,464.334s6.442,107.588,22.548,107.588,42.52-4.51,42.52-4.51L977.272,438.564s7.731-21.9-11.6-37.366l-2.577-7.087c10.688.005,15.573-67.64,4.51-73.443C967.608,320.668,965.03,318.736,959.878,321.957Z" transform="translate(-427.378 -209.908)" fill="#2f2e41"/>
  <path id="Path_681" data-name="Path 681" d="M948.3,386.249l-9.019,23.837L906.756,421.5s-19.626-2.181-19.626,8.723c0,7.731,23.443,1.09,23.443,1.09l42.884-12.851,13.529-33.5Z" transform="translate(-431.909 -239.411)" fill="#cc7248"/>
  <ellipse id="Ellipse_2836" data-name="Ellipse 2836" cx="11.274" cy="6.442" rx="11.274" ry="6.442" transform="translate(462.278 349.13)" fill="#2f2e41"/>
  <ellipse id="Ellipse_2837" data-name="Ellipse 2837" cx="11.274" cy="6.442" rx="11.274" ry="6.442" transform="translate(548.604 349.13)" fill="#2f2e41"/>
  <path id="Path_682" data-name="Path 682" d="M1006.7,240.2h0a13.816,13.816,0,0,0-2.667.265,11.688,11.688,0,0,0-5.092-1.174h-.462c-8.911,0-16.134,8.063-16.134,18.01h2.986l.482-3.67.706,3.671h2.487a35.2,35.2,0,0,0-1.155,9.023v18.331h4.514l2.614-6.792-.653,6.792h29.016l2.376-6.174-.594,6.174h3.267V270.258C1028.388,253.655,1018.678,240.2,1006.7,240.2Z" transform="translate(-475.215 -173.155)" fill="#2f2e41"/>
  <circle id="Ellipse_2838" data-name="Ellipse 2838" cx="41" cy="41" r="41" transform="translate(146.815 250.666)" fill="#fff"/>
  <circle id="Ellipse_2839" data-name="Ellipse 2839" cx="26" cy="26" r="26" transform="translate(161.815 265.666)" fill="#63b4fa"/>
  <g id="Rectangle_689" data-name="Rectangle 689" transform="translate(173.815 34.666)" fill="#63b4fa" stroke="#707070" stroke-width="1">
    <rect width="43" height="51" stroke="none"/>
    <rect x="0.5" y="0.5" width="42" height="50" fill="none"/>
  </g>
  <circle id="Ellipse_2840" data-name="Ellipse 2840" cx="14" cy="14" r="14" transform="translate(173.815 277.666)" fill="#fff"/>
  <path id="Icon_ionic-ios-magnet" data-name="Icon ionic-ios-magnet" d="M76.094,40.928l-30.3-30.3A24.866,24.866,0,0,0,10.626,45.792l30.3,30.3a1.093,1.093,0,0,0,.755.316,1.049,1.049,0,0,0,.755-.316L52.533,66a1.039,1.039,0,0,0,0-1.492l-28.582-28.6a13.087,13.087,0,0,1-4.02-7.321,7.366,7.366,0,0,1,2.3-6.373A7.4,7.4,0,0,1,28.551,20a12.962,12.962,0,0,1,7.374,3.95L64.507,52.533a1.039,1.039,0,0,0,1.492,0l10.1-10.1A1.06,1.06,0,0,0,76.094,40.928ZM43.369,61.7l3.546,3.546-5.232,5.232L38.119,66.93ZM65.244,46.915,61.7,43.369l5.232-5.232,3.546,3.546Z" transform="translate(369.547 141.723)" fill="#fff"/>
  <g id="Rectangle_690" data-name="Rectangle 690" transform="translate(36.815 155.666)" fill="#fff" stroke="#707070" stroke-width="1">
    <rect width="50" height="35" stroke="none"/>
    <rect x="0.5" y="0.5" width="49" height="34" fill="none"/>
  </g>
  <path id="Icon_material-speaker-notes" data-name="Icon material-speaker-notes" d="M62.178,3H9.575A6.567,6.567,0,0,0,3.033,9.575L3,68.754,16.151,55.6H62.178a6.6,6.6,0,0,0,6.575-6.575V9.575A6.6,6.6,0,0,0,62.178,3ZM22.726,42.452H16.151V35.877h6.575Zm0-9.863H16.151V26.014h6.575Zm0-9.863H16.151V16.151h6.575ZM45.74,42.452H29.3V35.877H45.74ZM55.6,32.589H29.3V26.014H55.6Zm0-9.863H29.3V16.151H55.6Z" transform="translate(25.016 143.016)" fill="#63b4fa"/>
  <path id="Icon_awesome-user-circle" data-name="Icon awesome-user-circle" d="M34.983.562A34.983,34.983,0,1,0,69.966,35.545,34.977,34.977,0,0,0,34.983.562Zm0,13.542A12.413,12.413,0,1,1,22.57,26.518,12.413,12.413,0,0,1,34.983,14.1Zm0,48.525a27.031,27.031,0,0,1-20.665-9.62,15.727,15.727,0,0,1,13.894-8.435,3.452,3.452,0,0,1,1,.155,18.677,18.677,0,0,0,5.769.973,18.606,18.606,0,0,0,5.769-.973,3.451,3.451,0,0,1,1-.155,15.727,15.727,0,0,1,13.894,8.435A27.031,27.031,0,0,1,34.983,62.629Z" transform="translate(159.27 21.883)" fill="#fff"/>
</svg>
