<svg xmlns="http://www.w3.org/2000/svg" width="84.48" height="129.899" viewBox="0 0 84.48 129.899">
  <g id="ResultOrientedimg" transform="translate(-194.259 -70.859)">
    <path id="Path_696" data-name="Path 696" d="M17.369,20.877,10.5,72.6,38.886,55.564,67.272,72.6,60.4,20.82" transform="translate(197.614 125.662)" fill="#152668" stroke="#63b4fa" stroke-linecap="round" stroke-linejoin="round" stroke-width="5"/>
    <path id="Path_695" data-name="Path 695" d="M86.98,41.24A39.74,39.74,0,1,1,47.24,1.5,39.74,39.74,0,0,1,86.98,41.24Z" transform="translate(189.259 71.859)" fill="#152668" stroke="#63b4fa" stroke-linecap="round" stroke-linejoin="round" stroke-width="5"/>
    <g id="Path_912" data-name="Path 912" transform="translate(216.844 94.211)" fill="#233187">
      <path d="M 19.19883918762207 35.89787673950195 C 14.73841953277588 35.89787673950195 10.54496955871582 34.16088485717773 7.390979290008545 31.00687599182129 C 4.236979007720947 27.85285568237305 2.499999284744263 23.65938568115234 2.499999284744263 19.19893646240234 C 2.499999284744263 14.73848628997803 4.236979007720947 10.54501628875732 7.390979290008545 7.39099645614624 C 10.54496955871582 4.236986637115479 14.73841953277588 2.499996423721313 19.19883918762207 2.499996423721313 C 23.65925979614258 2.499996423721313 27.85270881652832 4.236986637115479 31.00669860839844 7.39099645614624 C 34.16069793701172 10.54501628875732 35.89767837524414 14.73848628997803 35.89767837524414 19.19893646240234 C 35.89767837524414 23.65938568115234 34.16069793701172 27.85285568237305 31.00669860839844 31.00687599182129 C 27.85270881652832 34.16088485717773 23.65925979614258 35.89787673950195 19.19883918762207 35.89787673950195 Z" stroke="none"/>
      <path d="M 19.19883918762207 4.999996185302734 C 15.40619850158691 4.999996185302734 11.8405590057373 6.476936340332031 9.158748626708984 9.158756256103516 C 6.476938247680664 11.84058570861816 5 15.4062557220459 5 19.19893646240234 C 5 22.99161529541016 6.476938247680664 26.55728530883789 9.158748626708984 29.23911666870117 C 11.8405590057373 31.92093658447266 15.40619850158691 33.39787673950195 19.19883918762207 33.39787673950195 C 22.99147796630859 33.39787673950195 26.55711936950684 31.92093658447266 29.23892974853516 29.23911666870117 C 31.92073822021484 26.55728530883789 33.39767837524414 22.99161529541016 33.39767837524414 19.19893646240234 C 33.39767837524414 15.4062557220459 31.92073822021484 11.84058570861816 29.23892974853516 9.158756256103516 C 26.55711936950684 6.476936340332031 22.99147796630859 4.999996185302734 19.19883918762207 4.999996185302734 M 19.19883918762207 -3.814697265625e-06 C 29.80207061767578 -3.814697265625e-06 38.39767837524414 8.595657348632813 38.39767837524414 19.19893646240234 C 38.39767837524414 29.80221557617188 29.80207061767578 38.39787673950195 19.19883918762207 38.39787673950195 C 8.595609664916992 38.39787673950195 0 29.80221557617188 0 19.19893646240234 C 0 8.595657348632813 8.595609664916992 -3.814697265625e-06 19.19883918762207 -3.814697265625e-06 Z" stroke="none" fill="#63b4fa"/>
    </g>
  </g>
</svg>
