<svg xmlns="http://www.w3.org/2000/svg" width="86.054" height="122.9" viewBox="0 0 86.054 122.9">
  <path id="Speedimg" d="M22.12,104.622a7.372,7.372,0,0,0,1.234,4.073l3.935,5.916a7.366,7.366,0,0,0,6.134,3.288h14.21a7.366,7.366,0,0,0,6.134-3.288L57.7,108.7a7.366,7.366,0,0,0,1.234-4.073l.009-8.831H22.108ZM0,40.527a40.3,40.3,0,0,0,10.03,26.66c3.8,4.341,9.754,13.408,12.022,21.058.009.06.016.12.025.18h36.9c.009-.06.016-.117.025-.18C61.27,80.6,67.22,71.528,71.024,67.188A40.519,40.519,0,1,0,0,40.527ZM40.527,22.106A18.443,18.443,0,0,0,22.106,40.527a3.684,3.684,0,0,1-7.369,0,25.818,25.818,0,0,1,25.79-25.79,3.684,3.684,0,1,1,0,7.369Z" transform="translate(2.5 2.5)" fill="none" stroke="#63b4fa" stroke-width="5"/>
</svg>
