<svg xmlns="http://www.w3.org/2000/svg" width="101.957" height="112.73" viewBox="0 0 101.957 112.73">
  <g id="WDNOutsourceimg" transform="translate(-195.828 -75.693)">
    <g id="Ellipse_2955" data-name="Ellipse 2955" transform="translate(231 142.792)" fill="#233187" stroke="#63b4fa" stroke-width="5">
      <circle cx="16" cy="16" r="16" stroke="none"/>
      <circle cx="16" cy="16" r="13.5" fill="none"/>
    </g>
    <path id="Path_913" data-name="Path 913" d="M15.273,16.5H90.684a10.773,10.773,0,0,1,10.773,10.773V64.979A10.773,10.773,0,0,1,90.684,75.752H15.273A10.773,10.773,0,0,1,4.5,64.979V27.273A10.773,10.773,0,0,1,15.273,16.5Z" transform="translate(193.828 110.172)" fill="none" stroke="#63b4fa" stroke-linecap="round" stroke-linejoin="round" stroke-width="5"/>
    <path id="Path_914" data-name="Path 914" d="M10.5,51.479V29.933a26.933,26.933,0,0,1,53.865,0V51.479" transform="translate(209.375 75.193)" fill="none" stroke="#63b4fa" stroke-linecap="round" stroke-linejoin="round" stroke-width="5"/>
  </g>
</svg>
